<svg xmlns="http://www.w3.org/2000/svg" id="comp-lnc576v6-top" preserveAspectRatio="xMidYMax slice" data-bbox="0.048 156.239 1919.899 143.756" viewBox="0.048 156.239 1919.899 143.756" height="100%" width="100%" data-type="shape">
	<defs>
		<style>
			#comp-lnc576v6-top { fill: #FFFFFF; }
		</style>
	</defs>
	<g>
		<path d="M1532.417 279.335c-.414-9.115.647-18.213-7.738-26.922-6.022-6.254-9.113-13.469-10.442-20.885-.349-1.948-2.125-3.617-2.82-5.482-.279-.748.204-1.627.344-2.447.953.371 2.175.596 2.819 1.136 6.183 5.19 10.661 11.058 14.581 17.141.857 1.33 1.746 2.654 2.738 3.938.256.332.96.505 1.458.751.206-.307.525-.601.602-.922 3.548-14.653 7.076-29.308 10.603-43.963.065-.269.016-.564.164-.806.288-.472.678-.916 1.026-1.372.102.44.29.879.292 1.319.031 10.713.093 21.426.024 32.139-.021 3.349-.505 6.697-.565 10.047-.02 1.137.154 2.481 1.023 3.382 3.359 3.48 7.023 6.824 10.608 10.202.364.343.965.571 1.456.853.201-.414.565-.826.579-1.244.198-5.793.523-11.588.463-17.381-.065-6.238-.198-12.488-.857-18.706-.718-6.771-2.078-13.511-3.14-20.266-.065-.412.034-.835.057-1.253.368.334.914.632 1.077 1.007 2.956 6.786 5.968 13.563 8.749 20.383 1.705 4.181 3.265 8.402 4.486 12.659 1.423 4.959 2.41 9.976 3.567 14.969.103.446-.089.945.134 1.35.29.527.858.984 1.306 1.471.263-.47.681-.927.766-1.411.886-5.042 1.705-10.09 2.576-15.133.171-.99.32-2.007.789-2.94.295-.586 1.168-1.039 1.782-1.551.59.542 1.356 1.036 1.718 1.642.426.714.274 1.615.36 2.366.291 2.53.434 5.062.254 7.597-.351 4.951.808 10.087-.369 14.958-1.32 5.464 1.566 9.954 4.86 14.535 1.115 1.551 2.196 3.112 3.34 4.653.212.285.652.493.987.736.188-.301.533-.602.536-.904.019-1.815.047-3.633-.092-5.445-.418-5.433-.859-10.866-1.398-16.293-.251-2.531-.74-5.051-1.137-7.574-.1-.631-.443-1.269-.354-1.882.106-.734.555-1.445.855-2.166.511.663 1.232 1.29 1.498 1.996 1.46 3.866 2.471 7.826 4.271 11.614 3.14 6.608 3.751 13.492 5.499 20.251.123.477.635.907.967 1.359.593-.406 1.493-.749 1.708-1.233.338-.759.312-1.615.273-2.426-.646-13.315-1.32-26.628-1.984-39.943-.09-1.803-.323-3.613-.16-5.406.069-.764.75-1.95 1.565-2.142 1.723-.407 2.123.772 2.359 1.665 1.062 4.017 2.205 8.027 3.067 12.064 2.487 11.641 1.827 23.355 1.572 35.058-.006.272-.138.554-.067.812.08.293.324.566.496.848.29-.277.737-.53.839-.836.204-.614.273-1.256.304-1.888.249-5.067.506-10.135.699-15.203.138-3.617.101-7.238.288-10.853.211-4.076.048-8.207 1.008-12.208 1.732-7.219-.347-13.879-4.805-20.352-1.132-1.643-2.326-3.27-3.329-4.949-.418-.7-.414-1.516-.602-2.279.884.419 1.981.727 2.609 1.279 1.385 1.219 2.52 2.568 3.791 3.848.274.276.693.485 1.045.725.094-.318.315-.646.262-.953-.628-3.601-1.324-7.197-1.94-10.799-.182-1.064-.173-2.142-.251-3.214.489.969 1.1 1.918 1.443 2.91 1.13 3.268 2.141 6.555 3.258 9.825.165.484.658.916.999 1.372.169-.412.344-.823.503-1.236.067-.175.009-.416.165-.523.517-.358 1.105-.668 1.665-.997.457.387 1.213.739 1.32 1.167.626 2.499 1.248 5.007 1.594 7.529.704 5.117.458 10.304 3.219 15.244 2.148 3.843 5.047 10.277 6.763 14.218 2.275 5.228 4.474 10.472 6.51 15.743 1.078 2.791 1.527 5.693 2.258 8.545.16.625.252 1.261.486 1.872.122.32.484.598.738.896.308-.335.863-.662.888-1.006.304-4.237.397-8.483.81-12.715.589-6.044 1.504-12.074 2.088-18.119 1.2-12.411-.7-10.467 7.122-36.912.647-2.677 18.298-37.004 20.563-35.671.643.379-13.925 20.342-14.996 47.949-2.258 58.192 19.668 55.247 21.71 55.124 1.044-.063 2.104-.103 3.146-.054 3.457.162 4.839-1.022 3.769-3.303-.937-1.998-1.895-3.992-2.518-6.046-1.636-5.397-2.96-10.838-4.507-16.248-.964-3.37-2.113-6.716-3.158-10.076-1.628-5.235-3.255-10.47-4.82-15.713-.112-.377.285-.824.445-1.238.604.286 1.457.48 1.774.872 2.246 2.785 4.363 5.617 6.56 8.42.999 1.275 2.088 2.517 3.135 3.774l.125.777.395-.091-.571-.658c-.98-4.845-1.978-9.689-2.931-14.537a92.733 92.733 0 0 1-.966-5.933c-.032-.247.518-.529.799-.794.26.19.642.35.76.574 1.081 2.048 2.42 4.061 3.109 6.17 2.809 8.589 5.337 17.221 8.143 25.811.864 2.643 2.269 5.206 3.471 7.797.091.196.539.317.82.472.212-.226.541-.436.616-.682.435-1.418.887-2.837 1.193-4.27.994-4.664 2.061-9.325 2.823-14.007.362-2.227.116-4.501.111-6.754-.005-1.89-1.362-3.944 2.289-5.246.937-.334 1.146-1.758 1.464-2.716 1.883-5.666 3.7-11.341 5.539-17.014.144-.443.21-.907.453-1.324.212-.365.622-.677.945-1.012.049.354.182.713.132 1.06-.197 1.352-.508 2.696-.677 4.049-.966 7.736-1.975 15.47-2.794 23.213-.196 1.856-.045 3.72.397 5.556.967 4.013 2.262 7.989 3.48 11.973.121.395.642.734.977 1.099.281-.396.755-.779.812-1.189.451-3.249.901-6.5 1.183-9.757.127-1.465-.004-2.859 1.928-3.959.714-.406.931-1.266 1.219-1.949.293-.693.215-1.476.621-2.127.706-1.131 1.659-2.192 2.508-3.282 1.895 1.068.417 2.323.405 3.491-.049 4.991-.313 9.985-.111 14.971.091 2.238 1.057 4.464 1.72 6.682.108.361.701.654 1.07.979.201-.382.633-.786.561-1.143a56.772 56.772 0 0 0-1.208-4.824c-1.655-5.658-.633-11.324-.194-16.992.196-2.535.153-5.078.357-7.613.197-2.442.547-4.879.904-7.313.042-.286.552-.54.846-.808.38.211.832.386 1.115.646.222.204.23.514.342.776 3.645 8.535 7.394 17.05 10.867 25.617.933 2.303.949 4.771 1.54 7.146.28 1.126 1.083 2.193 1.364 3.319.615 2.474 1.024 4.971 1.58 7.452.094.419.508.804.774 1.205.226-.438.656-.878.648-1.314-.186-9.238-.435-18.476-.641-27.715-.057-2.543-.041-5.087.001-7.63a6.606 6.606 0 0 1 .405-2.144c.091-.249.695-.412 1.065-.615.232.204.611.389.674.615.897 3.195 1.952 6.378 2.573 9.599 1.248 6.467 2.248 12.957 3.376 19.435.041.234.346.448.527.671.273-.253.72-.487.783-.763.145-.623.159-1.268.124-1.902-.315-5.546.389-11.032 1.787-16.499.684-2.675.897-5.404 1.488-8.092.134-.611.954-1.152 1.458-1.725.601.606 1.599 1.174 1.737 1.826.916 4.299 1.35 8.653 2.502 12.919 2.288 8.474 4.909 16.907 7.465 25.346.456 1.506 1.207 2.977 1.946 4.434.174.344.852.57 1.298.85.119-.419.427-.86.329-1.254-1.374-5.54-2.906-11.063-4.19-16.613-1.327-5.733-2.463-11.487-3.593-17.239-.224-1.138-.469-2.546 1.5-3.022.409-.099 2.035 1.403 2.54 2.311 5.349 9.609 9.411 19.477 12.682 29.5.116.354.13.741.364 1.054.202.27.648.457.986.68.1-.258.288-.515.287-.773-.016-2.815.149-5.641-.146-8.443-.486-4.608-1.249-9.203-1.954-13.799-.214-1.398-.366-2.652 1.686-3.624 2.3-1.09 1.603-2.941 2.063-4.502.29-.985.895-1.927 1.358-2.888.337.978.84 1.944.983 2.934.988 6.853 1.893 13.713 2.865 20.567.044.312.481.598.735.896l1.329-.976-.056-.022c.739.931.854 1.75-.729 2.386-.2.08-.048.563-.059.86l.125.115-.171-.083c1.564-.7 2.097-.249 2.281.854.811 4.86 1.661 9.716 2.535 14.571.373 2.071 4.487 3.447 7.133 2.317.553-.236.845-1.11.729-1.637-.254-1.153-1.053-2.254-1.266-3.407-1.181-6.381-2.729-12.753-3.257-19.162-.918-11.135-1.225-22.294-1.684-33.444-.085-2.076.235-4.167.55-6.238.093-.611.812-1.177 1.245-1.764.394.541 1.015 1.058 1.145 1.627.651 2.866 1.187 5.744 1.741 8.62 1.178 6.116 2.12 12.258 3.621 18.337.608 2.464 2.132 4.886 3.742 7.163 4.626 6.545 9.501 13.01 14.312 19.495.318.429.917.763 1.386 1.141.04-.444.195-.899.103-1.33-1.796-8.399-3.827-16.777-5.204-25.213-.173-1.062-.169-2.826-.179-3.894-.006-.615-.286-1.527.142-2.153.353-.516 1.095-1.221 1.74-1.258.867-.049 2.247.299 2.623.767a15.517 15.517 0 0 1 2.357 4.04c2.927 7.446 5.721 14.916 8.646 22.363.401 1.022 1.271 1.959 1.923 2.936.335-1.016.957-2.031.963-3.048.07-12.452 1.049-24.854 4.328-37.129.643-2.408 1.636-4.775 2.568-7.143.144-.364.829-.63 1.264-.942.271.361.772.721.773 1.082.009 2.088.069 4.185-.196 6.262-1.513 11.859-2.04 23.719-.733 35.609.547 4.973.72 9.964 1.06 14.947.105 1.533.173 3.066.308 4.597.094 1.057.908 1.661 2.533 1.704a40.35 40.35 0 0 1 2.916.193c5.275.609 5.289.502 5.725-3.243 1.308-11.219.798-22.432-.141-33.647-.197-2.356-.152-4.722-.119-7.084.007-.479.463-.956.713-1.434.525.349 1.35.64 1.527 1.057 1.149 2.699 2.414 5.393 3.161 8.148 2.421 8.92 4.01 17.907 4.29 26.994.095 3.075.629 6.143.961 9.214.102.942.308 1.767 2.028 2.042 2.723.436 3.505.07 3.143-1.828-1.872-9.802-3.91-19.591-5.669-29.403-2.275-12.693-7.867-88.221-7.711-88.787.277.587 5.117 34.247 5.2 34.846.388 2.8.661 5.606 1.004 8.409.842 6.869 1.552 13.747 2.589 20.602 1.269 8.387 2.893 16.749 4.217 25.132a303.976 303.976 0 0 1 2.165 16.528c.443 4.344.532 8.705.786 13.058.026.452-.006.929.205 1.344.142.28.665.471 1.017.702.288-.254.833-.513.824-.762a74.058 74.058 0 0 0-.412-5.679c-.605-5.224-1.273-10.445-1.904-15.668-.697-5.771-1.455-11.54-2.046-17.316-.592-5.788-1.014-11.585-1.5-17.378-.053-.634-.22-1.3-.006-1.897.191-.53.838-.985 1.284-1.473.522.466 1.346.886 1.519 1.405 1.447 4.332 2.948 8.662 4.097 13.033 1.736 6.608 3.302 13.238 4.754 19.878 1.819 8.32 3.493 16.655 5.117 24.994.27 1.388.821 2.375 2.88 2.933 3.144.852 4.385.371 4.54-1.942.368-5.508.641-11.02 1.131-16.523.635-7.137 1.509-14.265 2.156-21.402.533-5.877.642-11.776 1.385-17.639.756-5.956 2.023-11.884 3.175-17.814.116-.596 1.364-17.026 1.882-17.585.542.628 1.144 17.148 1.176 17.788.304 6.165.474 12.333.631 18.501.237 9.307.463 18.615.638 27.923.177 9.411.304 18.822.417 28.233.021 1.697 2.035 3.069 4.537 3.092 1.176.011 2.352.079 3.528.121 0 18.898-.025-3.204.052 15.693.006 1.364-.451 1.9-2.465 1.643-.388-.05-.802-.007-1.204-.007H.275c-.079-.904-.227-1.807-.227-2.711-.009-29.071.705.708.466-28.362-.063-7.64 1.544-32.817 3.897-40.18 1.754-5.49 3.683-10.959 5.132-16.486.575-2.192.1-4.515.031-6.777-.025-.812-.422-1.626-.359-2.429.058-.749-1.073-13.755-.8-14.496.592.618 2.852 13.475 3.325 14.132.594.825.948 1.707 2.739 1.638 2.524-.097 8.907-16.732 8.92-15.498.026 2.434-6.352 22.756-6.182 25.187.072 1.033.301 2.059.685 3.06 2.75 7.173 5.578 14.333 8.421 21.49 1.699 4.278 3.484 8.541 5.211 12.814 1.581 3.911 3.125 7.829 4.722 11.736.137.335.644.596.822.929.595 1.114 1.327 1.986 3.464 1.605 2.229-.398 2.429-1.5 2.262-2.762-.312-2.348-.655-4.695-.956-7.044-.717-5.601-1.489-11.199-2.107-16.805-1.097-9.946-2.1-19.896-3.132-29.845a234.521 234.521 0 0 1-.664-7.328c-.022-.306.371-.626.572-.939.512.204 1.202.328 1.493.63.424.44.679.995.804 1.523 1.375 5.815 3.222 11.606 3.943 17.459 1.245 10.115 1.748 20.272 2.636 30.408.341 3.888.814 7.773 1.358 11.651.414 2.947 1.053 2.026 4.903 2.064 2.904.029 2.665-1.478 2.493-2.721-.511-3.695-1.177-7.38-1.772-11.07-.537-3.333-.987-6.673-1.607-9.999-.888-4.758-1.915-9.503-2.845-14.257-.614-3.142-1.046-6.303-1.762-9.434-1.925-8.418-3.957-16.824-5.95-25.235-.297-1.253-.859-2.506-.838-3.756.014-.784.582-1.926 1.445-2.259 1.514-.584 2.86.227 3.468 1.215 1.491 2.425 3.176 4.832 4.16 7.358 2.625 6.742 4.903 13.545 7.365 20.316.426 1.172 1.078 2.307 1.625 3.459.241-1.204.583-2.404.703-3.614.339-3.439.542-6.884.919-10.321.056-.512.767-.991 1.174-1.485.471.397 1.138.745 1.383 1.198 2.06 3.803 4.121 7.607 6.028 11.445 2.53 5.091 3.639 10.366 4.213 15.71.189 1.763.752 3.507 1.268 5.25.436-7.258-.193-14.483-1.683-21.656-1.343-6.464-3.077-12.891-4.641-19.335-.043-.179-.186-.358-.166-.531.068-.585.188-1.168.288-1.752.728.436 1.796.777 2.126 1.324 1.82 3.016 3.941 6.002 5.062 9.146 2.291 6.428 4.154 12.931 5.929 19.436 1.847 6.769 3.542 13.561 5.009 20.371 1.267 5.884 2.173 11.805 3.109 17.719.176 1.111.719 1.683 2.333 1.779 1.836.11 3.065-.295 2.931-1.862-.064-.746-.147-1.492-.096-2.238.495-7.263 1.363-14.513 1.839-21.776.141-2.149.113-4.384-.588-6.463-2.532-7.511-5.31-14.985-8.136-22.448-2.362-6.237-4.922-12.441-7.39-18.66-.104-.263-.318-.56-.225-.794.248-.624.636-1.223.969-1.831 1.006.286 2.541.387 2.926.891a51.384 51.384 0 0 1 4.192 6.475c2.611 4.756 5.067 9.552 7.59 14.331.18.342.304.714.595 1.008.247.251.697.409 1.057.609.128-.387.496-.79-.04-1.133-3.77-2.405-5.03-6.153-1.999-8.999 1.149-1.079.434-2.059.344-3.068-.012-.132.221-.369.389-.391.2-.026.582.089.658.209.366.58.712 1.172.964 1.779 3.018 7.269 4.978 14.677 5.935 22.192.872 6.838 3.453 13.38 6.824 19.808.161.307.572.553.866.827.072-.354.191-.707.208-1.062.334-6.8.652-13.601.982-20.401.259-5.339.525-10.678.802-16.017.023-.451.006-.944.269-1.337.245-.366.888-.9 1.269-.869.649.053 1.484.402 1.779.788.15.197.253.413.326.639.519 1.594.679 3.232.766 4.864.539 10.016 1.09 20.033 1.476 30.053.29 7.526.386 15.054.63 22.581.014.417.601.826.921 1.238 1.225-.56 3.543-.107 3.667-1.655.108-1.356.037-2.729-.146-4.082-1.724-12.767-1.799-25.567-1.444-38.363.221-7.979 1.223-15.947 1.537-23.927.127-3.233-.645-6.483-1.002-9.725-.038-.346-.039-.694-.057-1.041.319.236.645.468.954.71.325.254.633.519.948.778.265-.38.715-.75.764-1.143.369-2.983.663-5.971.97-8.958.075-.725.07-1.454.192-2.174.039-.232.369-.442.565-.662.24.252.682.502.686.756.019 1.178-.099 2.357-.14 3.536-.166 4.809-.647 9.627-.355 14.423.169 2.769 1.779 5.483 2.418 8.256 1.897 8.236 3.843 16.471 5.371 24.741 1.297 7.014 2.07 14.073 3 21.116.165 1.247-.091 2.518-.033 3.775.013.278.535.546.822.818.11-.247.303-.492.317-.742.556-9.876 1.4-19.751 1.508-29.63.053-4.868-1.275-9.742-1.94-14.616-.159-1.168-.377-2.364-.175-3.515.175-.997 1.464-1.192 2.23-.365 1.049 1.133 1.821 2.413 2.451 3.69 3.603 7.305 4.461 14.915 5.057 22.525.468 5.97.587 11.955.701 17.935.096 5.05-.049 10.102-.044 15.153 0 .368.352.735.54 1.103.126-.338.283-.671.373-1.013 2.043-7.751 3.881-15.531 6.177-23.247 1.825-6.135 4.114-12.209 6.392-18.277.802-2.135.392-4.139-.354-6.168-1.748-4.753-3.57-9.494-5.331-14.245-.407-1.099-1.356-2.237.182-3.297 1.103.792 2.564 1.464 3.24 2.397 2.001 2.762 3.663 5.636 5.533 8.443.287.431.974.74 1.475 1.105.394-.346.917-.655 1.16-1.044.887-1.42 1.4-2.987 2.595-4.267 1.064-1.14 2.843-1.974 4.306-2.943.167 1.281.71 2.6.433 3.835-.927 4.122-2.496 8.19-3.124 12.327-.374 2.463.204 5.067.961 7.521 2.131 6.903 4.22 13.829 7.011 20.616 2.218 5.393 2.427 10.896 3.393 16.362.253 1.433.114 2.897.312 4.337.254 1.852 1.4 2.33 4.749 2.397 2.527.05 2.107-1.135 2.422-2.198 1.729-5.831.295-11.59-.974-17.314-2.007-9.054-4.364-18.073-6.661-27.097-1.411-5.543-2.942-11.073-4.515-16.597-.478-1.68-1.306-3.314-1.917-4.978-.383-1.045-1.021-2.283 1.066-2.775 1.896-.447 2.594.65 3.065 1.614 2.522 5.163 5.501 10.255 7.36 15.527 2.728 7.738 4.661 15.605 6.886 23.424.328 1.154.345 2.347.615 3.511.116.5.511.97.779 1.453.514-.458 1.298-.869 1.496-1.383 1.116-2.896 2.01-5.831 3.133-8.725 2.945-7.591 6.016-15.16 9.133-22.719.958-2.323 2.009-4.628 3.216-6.897 3.017-5.674 6.309-11.283 9.598-16.889.336-.572 18.887-26.683 19.765-27.108.388.71-17.286 33.404-18.209 35.962-3.243 8.984-6.969 17.64-10.277 26.613-.639 1.733-.708 3.348.434 5.017 3.73 5.451 5.926 11.186 7.859 17.063 1.873 5.693 2.88 11.416 3.931 17.16.606 3.311 1.022 6.64 1.342 9.97.181 1.882 1.156 2.635 8.497 1.853 2.355-.251 3.975.931 5.418 2.217.194.173 1.219-.589 1.219-.961.001-1.992-.006-3.996-.33-5.972-.929-5.667-1.786-11.347-3.087-16.978-2.177-9.42-4.644-18.812-7.295-28.176-.377-1.332-2.551-5.701-2.992-7.024-.144-.431.141-.936.222-1.405.615.299 1.535.509 1.794.913a92.754 92.754 0 0 1 3.872 6.568c3.128 5.887 6.167 11.797 9.276 17.689.203.384.694.698 1.051 1.044.056-.395.19-.793.155-1.185-.567-6.428-1.501-12.851-1.615-19.282-.075-4.238 1.01-8.486 1.629-12.726.044-.3.532-.57.813-.854.099.243.322.498.278.728-1.558 8.136.344 16.126 2.437 24.078 1.855 7.047 4.001 14.065 6.318 21.05 1.875 5.652 4.258 11.226 6.285 16.855.727 2.018 1.057 4.1 1.602 6.149.19.713.397 1.434.768 2.108.134.244.77.361 1.176.536.238-.285.67-.564.687-.855.487-8.622 1.157-17.244 1.229-25.871.035-4.235-.281-8.465-.611-12.694-.299-3.833-.061-7.688-.459-11.514-.452-4.336-1.229-8.656-1.88-12.982-.081-.54-.448-1.097-.324-1.606.156-.641.681-1.242 1.047-1.859.597.448 1.454.828 1.75 1.354 3.143 5.58 6.422 11.133 9.197 16.799 1.922 3.924 3.333 7.982 4.577 12.036 1.351 4.402 2.203 8.874 3.354 13.305.5 1.925 1.229 3.822 1.799 5.739.182.611.15 1.249.287 1.867.102.458.318.905.483 1.356.377-.443.971-.859 1.097-1.332 1.254-4.732 2.391-9.479 3.644-14.211.97-3.662 2.051-7.311 3.101-10.963.178-.618.356-1.252.725-1.822.164-.253.802-.365 1.225-.541.148.238.42.476.423.715.018 1.624.153 3.26-.073 4.872-.926 6.586-1.803 13.179-3.023 19.742-.902 4.852-2.343 9.657-3.469 14.491-.436 1.874-.727 3.766-.942 5.657-.052.452.346 1.287.735 1.346 3.328.505 6.702.871 10.062 1.282 2.197.269 2.302-.632 2.345-1.765.416-11.09-1.482-22.078-2.972-33.09-1.063-7.851-1.659-15.731-2.737-23.582-1.004-7.313-2.37-14.603-3.571-21.904a13.175 13.175 0 0 1-.185-1.627c-.01-.26.12-.523.187-.784.229.255.57.491.67.768 1.02 2.82 2.104 5.633 2.974 8.475 2.282 7.462 4.458 14.939 6.713 22.405.114.376.57.704.867 1.055.181-.4.503-.798.519-1.201.084-2.088.085-4.178.126-6.267.016-.817-.139-1.67.159-2.44.23-.597 1.042-1.091 1.595-1.631.519.464 1.375.889 1.5 1.397.595 2.411 1.282 4.838 1.404 7.272.419 8.415.604 16.836.907 25.254.049 1.359.196 2.719.405 4.072.046.298.547.564.838.845.247-.306.625-.593.722-.92 1.507-5.067 2.98-10.139 4.454-15.211.594-2.044.959-4.132 1.805-6.126 1.827-4.308.282-8.449-.955-12.622-1.081-3.648-2.218-7.289-3.22-10.947-.141-.517.345-1.112.54-1.671.684.353 1.723.612 1.993 1.076 1.619 2.785 3.036 5.623 4.582 8.428.398.723 1.018 1.39 1.536 2.082.46-.715 1.231-1.414 1.314-2.148.171-1.509.375-3.105-.151-4.545-1.222-3.343-2.894-6.61-4.327-9.919-.334-.77-.44-1.586-.651-2.381l-.052.03c1.181 1.615 2.424 3.21 3.522 4.851.94 1.404 1.652 2.879 2.587 4.284.402.604 1.116 1.113 1.688 1.666.441-.542.884-1.083 1.321-1.626.449-.558.784-1.179 1.371-1.658.536-.437 1.343-.722 2.03-1.074.175.549.599 1.124.484 1.644-.533 2.422-1.409 4.816-1.774 7.246-.237 1.581-.216 3.283.391 4.801 3.014 7.53 6.261 15.016 9.428 22.517.184.436.343.88.594 1.299.139.232.444.419.674.627.278-.275.765-.538.804-.828.985-7.288 3.272-14.585-.367-21.847-.776-1.55-1.281-3.099.715-4.584.675-.502.429-1.553.697-2.338.106-.312.467-.583.712-.873.398.194.996.331 1.161.593.681 1.081 1.206 2.206 1.843 3.3.178.306.546.562.826.841.306-.277.744-.525.897-.837 1.096-2.24 2.055-4.512 3.209-6.737 1.776-3.424 3.652-6.825 5.536-10.223.369-.666.963-1.275 1.453-1.91-.139.681-.175 1.38-.433 2.039-2.026 5.174-4.19 10.324-6.122 15.514-1.756 4.716-2.05 9.342.035 14.207 1.808 4.218 2.203 8.748 2.774 13.167.584 4.514.9 9.063.829 13.593-.084 5.347-.742 10.689-1.076 16.035-.084 1.349.07 2.708.227 4.056.034.29.555.555.852.831.357-.228.978-.433 1.027-.689a25.87 25.87 0 0 0 .442-3.761c.143-3.523.203-7.048.354-10.571.012-.288.462-.566.709-.849.324.247.86.468.935.746.527 1.948.532 3.96 1.41 5.868.964 2.096 1.067 4.286.994 6.481-.012.362.143.741.359 1.082.631 1 1.133 2.182 3.211 2.055 2.53-.154 2.235-1.813 2.43-2.986.435-2.614.922-5.226.918-7.857-.008-5.149.914-10.302.974-15.457.04-3.436-.269-6.873-.432-10.31-.047-.993-.608-2.125-.095-2.954 2.565-4.148.901-8.262-.03-12.343-.734-3.218-2.124-6.366-3.22-9.546-.183-.531-.507-1.067-.483-1.594.022-.48.337-1.313.685-1.354.758-.089 1.984.05 2.369.413 1.162 1.096 2.272 2.28 2.937 3.542 2.109 4.007 4.067 8.052 5.97 12.107 2.429 5.177 4.467 10.446 7.183 15.551 3.325 6.249 6.547 12.489 7.909 19.102.102.494.579.952.882 1.427.114-.51.321-1.019.328-1.529.059-4.5.168-9.001.1-13.501-.212-13.95-4.496-27.509-8.681-41.076-1.534-4.973-15.233-37.415-15.153-37.93.679.343 12.58 22.044 12.863 22.5 2.646 4.265 5.275 8.537 7.692 12.863 2.417 4.326 4.609 8.71 6.847 13.081.555 1.084 1.254 1.696 3.19 1.368 2.201-.373 3.407.522 4.35 1.795 4.077 5.503 8.403 10.923 12.318 16.478 3.37 4.781 5.034 9.949 6.163 15.168.794 3.674 1.414 7.373 1.79 11.076.218 2.147-.099 4.329-.372 6.484-.149 1.176.33 1.728 2.11 1.701 1.338-.021 2.683.064 4.015 0 3.95-.189 4.224-.496 4.085-3.288-.139-2.808.094-5.628-.17-8.428-.628-6.647-1.177-13.31-4.728-19.646-3.23-5.763-6.426-11.535-9.47-17.344-.583-1.112-.387-2.412-.55-3.625 2.464-.195 2.97 1.304 4.025 2.233 6.255 5.511 10.815 11.664 14.642 18.085.301.504.541 1.036.954 1.495.299.333.838.566 1.27.844.102-.35.27-.698.296-1.051.515-6.883 1.226-13.764 1.429-20.652.106-3.602-.631-7.219-1.105-10.823-.154-1.175-.348-2.123 2.11-1.556.126.029.279.017.39.06 1.384.527.966-1.953 2.424-.742.62.515.234 1.576.339 2.387.981 7.588 1.646 15.203 3.033 22.756 1.999 10.884 4.519 21.724 6.833 32.582.229 1.074.639 2.132.835 3.209.247 1.359 1.381 1.859 3.285 1.813 2.044-.05 2.902-.808 2.884-2.15-.012-.86-.086-1.718-.05-2.578.404-9.639 1.526-19.28 1.423-28.915-.088-8.241-.984-16.49-3.267-24.634-.747-2.666-1.004-5.396-1.435-8.101-.063-.397.153-.813.24-1.221.468.259 1.159.455 1.366.789 1.139 1.835 2.393 3.659 3.182 5.568 3.513 8.501 6.047 17.115 5.894 26.003-.008.454-.007.911.06 1.361.049.329.216.649.33.973.291-.269.738-.511.848-.81.899-2.46 1.678-4.941 2.605-7.396a229.646 229.646 0 0 1 3.489-8.654c.156-.368.796-.642 1.212-.96.349.433 1.024.875.997 1.296-.285 4.349-.42 8.713-1.103 13.036-1.551 9.811-3.899 19.566-4.196 29.46-.043 1.442-.258 2.885-.191 4.322.026.548.623 1.083.961 1.624.704-.309 1.677-.507 2.07-.945 2.419-2.698 4.386-5.609 7.112-8.149 4.226-3.937 4.454-8.463 4.766-12.925.307-4.385.223-8.782-.437-13.149-1.043-6.908-2.702-13.773-4.158-20.651-.208-.983-.735-1.933-.998-2.913-.078-.291.118-.808.413-.905.353-.115 1.147.001 1.398.21.664.556 1.255 1.182 1.671 1.84 3.934 6.214 6.751 12.637 7.21 19.432.238 3.518.068 7.048.118 10.573.012.815.131 1.632.28 2.441.042.226.365.429.56.642.289-.157.714-.274.845-.478.961-1.497 2.165-2.963 2.72-4.532 1.118-3.158 1.876-6.375 2.769-9.57.099-.355.014-.746.195-1.075.173-.314.583-.568.888-.849.464.256 1.188.454 1.346.778.586 1.203 1.202 2.431 1.415 3.68.673 3.957 1.587 7.789 4.051 11.528 4.424 6.714 5.645 13.94 5.743 21.253.006.453-.019.916.102 1.358.248.913 3.03 2.254 4.261 1.83.703-.242 1.128-1.279 1.136-1.961.061-5.358.41-10.736-.139-16.07-.791-7.68-2.272-15.328-3.436-22.991-.15-.989-.372-2.003-.201-2.977.296-1.68 2.554-2.248 4.321-1.079.81.536 1.385 1.344 1.695 2.099 3.097 7.532 5.718 15.131 5.976 22.997.196 5.98.238 11.961.342 17.942.018 1.031.105 2.095 1.928 2.363 1.618.238 4.163-1.275 4.037-2.438-.176-1.624-.554-3.243-.981-4.847-3.533-13.27-4.601-26.653-3.818-40.105.163-2.794 1.002-5.571 1.558-8.353.089-.446.194-.937.536-1.302.444-.473 1.132-.841 1.716-1.254.331.454.821.888.953 1.367.169.615.055 1.267.056 1.903.01 7.621-.309 15.25.111 22.86.541 9.783 1.408 19.568 3.898 29.241.069.268.048.56.206.8.144.219.474.381.722.568.216-.183.525-.346.625-.555.12-.25.085-.539.076-.81-.325-10.709-.323-21.428-1.078-32.122-.737-10.428-1.105-31.651-1.064-31.827.245-1.04.05-37.062 2.263-37.065 1.883-.003 8.451 103.205 10.671 103.186.764-.007 1.538.25 2.301.403 1.871.377 2.458-.236 2.365-1.391-.637-7.967-1.299-15.934-1.902-23.902-.63-8.325-1.184-16.653-1.821-24.978-.081-1.06-.244-2.143 1.688-2.374 2.197-.263 2.749.989 3.004 2.044 1.32 5.45 2.834 10.893 3.656 16.381.715 4.768.586 9.593.872 14.391.023.393.375.776.574 1.164.3-.355.815-.696.869-1.067 1.141-7.936 2.227-15.875 3.33-23.814.314-2.257.516-4.526 1.051-6.759.157-.654 1.285-1.2 1.968-1.796.614.593 1.561 1.135 1.776 1.788.539 1.635 1.96 2.791 3.285 4.143 2.051 2.093 2.989 4.782 3.815 7.306.864 2.642 1.034 5.388 1.523 8.087.045.25.21.491.319.736.267-.261.721-.505.774-.785.91-4.858 1.765-9.72 2.644-14.58.357-1.976.68-3.957 1.137-5.923.234-1.006.018-2.491 2.393-2.312 1.941.146 1.636 1.452 1.776 2.417.831 5.721.255 11.41-.944 17.076-1.253 5.924-2.445 11.856-3.947 17.752-1.206 4.732-2.835 9.415-4.279 14.12-.109.355-.325.705-.35 1.061-.058.809-1.211 1.985.868 2.227 1.839.214 2.506-.95 2.792-1.917.281-.95-.033-1.974.161-2.943.791-3.942 1.518-7.894 2.566-11.806 1.625-6.068 3.489-12.108 5.263-18.158.156-.533.308-1.083.637-1.57.185-.273.758-.618 1.107-.595.355.024.831.428.942.721a63.16 63.16 0 0 1 1.53 4.51c.605 2.037 1.109 4.089 1.718 6.125.123.411.524.784.797 1.174.424-.393 1.067-.746 1.239-1.185 2.024-5.167 3.974-10.348 5.954-15.523.335-.874.56-1.794 1.145-2.587.353-.479 1.304-.754 1.986-1.121.575.539 1.598 1.06 1.645 1.62.175 2.081.314 4.197-.051 6.258-1.132 6.404-3.192 12.657-6.445 18.756-1.521 2.851-2.857 6.002-2.613 8.954.217 2.615.304 5.16-.059 7.755-.153 1.095.122 2.439 2.296 2.334 1.669-.081 2.641-1.054 2.725-2.314.435-6.574 3.605-12.737 6.219-18.986 1.456-3.482 3.365-6.928 4.116-10.483 1.32-6.245 2.04-12.554 2.764-18.849.727-6.318 1.131-12.653 1.749-18.978.055-.56-.675-8.364-.338-8.911.676.453 3.053 8.097 3.281 8.636 3.193 7.567 6.337 15.064 6.8 23.098.359 6.242.661 12.484.7 18.728.046 7.309-1.979 14.429-4.836 21.451a250.198 250.198 0 0 0-2.181 5.526c-.473 1.248-.507 2.409 1.888 2.745 3.135.441 4.083.175 4.334-1.758.597-4.6.975-9.215 1.309-13.828.306-4.228.264-8.396 2.052-12.599 2.4-5.643 3.463-11.541 5.368-17.289 1.465-4.421 3.316-8.784 5.077-13.158.211-.525.932-.955 1.417-1.429.233.575.654 1.149.667 1.726.07 3.27-.16 6.548.1 9.809.301 3.768 1.305 7.515 1.464 11.282.262 6.238.25 12.486.054 18.726-.16 5.074-.771 10.141-1.146 15.212-.053.717.105 1.441.156 2.162.091 1.293.647 2.064 2.969 1.663 1.977-.341 3.714 1.052 6.084.309 1.479-.463 1.866-.619 1.634-1.795-.734-3.722-1.204-7.47-1.607-11.215-.884-8.206-2.027-16.41-2.503-24.63-.324-5.594.051-11.207.118-16.812.003-.272-.094-.594.081-.808.536-.657 1.183-1.272 1.786-1.904.456.591 1.167 1.152 1.327 1.778 1.391 5.453 2.579 10.93 4.041 16.374 1.028 3.824 2.296 7.623 3.628 11.405 1.79 5.081 3.745 10.135 5.628 15.201.13.348.138.748.407 1.036.539.577 1.219 1.094 1.841 1.635.299-.577.712-1.139.879-1.732 2.007-7.12 4.335-14.21 5.843-21.379 1.148-5.461 1.245-11.025 1.806-16.543.046-.453-.121-.965.141-1.346.353-.514 1.065-1.319 1.554-1.296.849.039 2.175.515 2.368.984.713 1.736 1.436 3.542 1.452 5.325.076 8.714.047 17.43-.188 26.142-.153 5.678-.634 11.356-2.703 16.907-.11.296.129.652.206.981.279-.175.639-.318.826-.53 3.552-4.036 7.165-8.049 10.573-12.14 1.162-1.395 1.898-2.968 2.656-4.499 3.291-6.648 4.389-13.625 6.68-20.417 1.437-4.259 2.707-8.494 3.307-12.83.262-1.896.382-3.801.568-5.702.071-.724-.068-1.5.283-2.155.325-.607 1.176-1.085 1.795-1.619.703.475 1.922.902 2.027 1.431.69 3.49 1.449 6.996 1.58 10.508.128 3.426-.498 6.863-.713 10.298-.034.545.355 1.103.549 1.655.296-.466.723-.914.868-1.4 1.111-3.733 2.136-7.477 3.259-11.208.292-.971.771-1.923 1.289-2.852.241-.431.783-.785 1.189-1.174.205.496.604.995.585 1.487-.28 6.985-.672 13.969-.926 20.955-.28 7.703-.458 15.408-.65 23.113-.045 1.815.047 3.632.045 5.448-.001 1.028.437 1.775 2.171 1.885 1.962.124 1.599-.941 1.851-1.658 1.75-4.984 4.289-9.766 6.932-14.575 3.76-6.84 7.488-13.777 8.367-21.193.202-1.705.948-3.38 1.46-5.067.35-1.152 1.134-2.111 3.048-2.189 2.242-.092 2.961 1.072 3.363 2.257.63 1.856 1.085 3.738 1.635 5.607.143.485.359.96.542 1.44.212-.519.474-1.031.623-1.558.201-.711.307-1.435.47-2.151.265-1.169 1.057-2.336 2.891-2.156 1.063.104 2.363 1.138 2.768 1.938 2.043 4.032 2.017 8.248 1.333 12.401-1.038 6.308-2.482 12.586-3.835 18.868-.308 1.43-.978 2.824-1.431 4.242-.332 1.041-.059 1.827 1.899 1.777.397-.01.8.097 1.196.086 6.03-.179 6.34.61 5.865-3.938-.573-5.49-.204-11.079.599-16.568 1.437-9.813-.191-19.594.13-29.383.127-3.881 1.018-7.76 1.82-11.614.228-1.096 1.368-2.105 2.09-3.154l.012.006c-2.904 8.272-1.803 16.585-.539 24.898.04.266.175.691.324.939.258.429.562.846.844 1.268.302-.453.827-.897.87-1.361.361-3.891.624-7.786.938-11.679.109-1.357.229-2.715.455-4.064.06-.358.532-.685.814-1.026.464.292 1.022.541 1.361.889.278.285.404.686.414 1.037.18 6.25.551 12.503.429 18.75-.13 6.613-1.256 13.234-.944 19.829.199 4.204 2.196 8.372 3.467 12.544.137.448.81.822 1.235 1.23.245-.475.63-.94.711-1.428.341-2.066.599-4.138.874-6.209.458-3.45 1.037-6.896 1.32-10.353.259-3.165.196-6.343.27-9.515.009-.363-.006-.727-.017-1.09-.049-1.543 1.014-2.685 3.078-3.194 2.302-.569 3.582.776 4.43 1.762 1.904 2.212 2.695 4.928 3.851 7.245.355.711.429 1.458.387 2.207-.015.27.384.478.626.71.126-.226.383-.46.357-.677-.217-1.806-.412-3.615-.753-5.411-1.448-7.637-2.943-15.269-4.42-22.904-.035-.18-.167-.387-.081-.535.266-.461.616-.899.933-1.346.417.31 1.024.573 1.22.938a59.056 59.056 0 0 1 2.252 4.659c1.006 2.354 1.868 4.736 2.887 7.088.679 1.567 1.509 3.104 2.31 4.645.119.229.453.406.688.607.082-.238.242-.478.236-.715-.142-5.623-.427-11.246-.431-16.869-.007-9.236.156-18.472.288-27.707.007-.476.403-.95.618-1.425.255.454.686.899.737 1.362.563 5.155.885 10.325 1.633 15.467a422.69 422.69 0 0 0 3.535 20.54c1.287 6.553 2.866 13.08 4.327 19.617.12.538.271 1.077.494 1.599.097.227.415.41.633.613.233-.18.579-.334.679-.543a27.79 27.79 0 0 0 .977-2.358c.977-2.641 1.829-5.305 2.926-7.923 1.56-3.72.61-7.351-.315-11.04-3.139-12.52-6.165-25.053-9.15-37.59-.681-2.86-1.047-5.756-1.506-8.639-.062-.39.183-.803.286-1.205.222.412.535.812.654 1.238 1.563 5.614 2.856 11.268 4.701 16.838 2.435 7.347 5.289 14.631 8.006 21.934.138.371.68.672 1.034 1.006.226-.314.387-.661.691-.936.511-.462 1.111-.879 1.674-1.314.44.601 1.186 1.183 1.27 1.805.398 2.978.959 5.974.821 8.95-.226 4.859 2.188 9.277 4.22 13.776.169.374.71.672 1.078 1.005.145-.341.375-.676.421-1.023.563-4.234 1.126-8.468 1.63-12.705.238-1.994-.811-4.439 4.084-4.591.358-.011.969-1.217.901-1.839-.671-6.151-1.468-12.295-2.213-18.442a2463.448 2463.448 0 0 1-1.89-15.997c-.038-.331.168-.674.26-1.012.263.298.678.577.766.897 1.519 5.53 2.95 11.071 4.495 16.597a1903.686 1903.686 0 0 0 6.512 22.717c.199.681.623 1.663 1.355 1.888 4.597 1.41 4.408 4.347 4.82 6.943.584 3.678.449 7.408.967 11.093.392 2.786 1.304 5.54 2.042 8.301.086.32.538.595.821.891.307-.343.891-.69.878-1.027-.101-2.717-.51-5.433-.454-8.146.139-6.71.467-13.418.749-20.126.026-.626-.058-1.468.472-1.836 2.888-2.005 2.146-4.481 1.678-6.714-1.465-6.998-3.338-13.957-5.059-20.93-.088-.358-.262-.705-.349-1.063-.04-.165.033-.343.054-.515.248.137.625.241.725.417.822 1.438 1.766 2.858 2.348 4.342 2.478 6.313 4.847 12.646 7.247 18.973.133.351.065.759.301 1.065.72.932 1.544 1.828 2.327 2.738-.022-.926.217-1.897-.11-2.771-1.709-4.57-3.543-9.119-5.374-13.667-.669-1.663-1.513-3.295-2.137-4.965-.165-.442.188-.974.303-1.464.669.338 1.474.603 1.972 1.033.565.487.758 1.167 1.294 1.675.491.465 1.223.813 1.848 1.213.141-.511.422-1.025.401-1.532-.263-6.178-.725-12.335-4.499-18.118-.283-.434-.237-.966-.344-1.453.438.436.983.84 1.298 1.313 4.495 6.747 7.176 13.867 9.188 21.106 1.785 6.42 3.326 12.872 5.07 19.297.304 1.12 1.082 2.181 1.641 3.269.667-1.032 1.431-2.041 1.975-3.102.526-1.026.673-2.148 1.284-3.144.339-.553 1.287-.933 1.961-1.391.116.567.445 1.158.314 1.698-.922 3.809-2.031 7.597-2.881 11.413a16.018 16.018 0 0 0-.322 4.606c.421 6.093.975 12.181 1.506 18.27.043.494.292.98.445 1.469.11-.433.306-.864.318-1.298.311-10.78 3.271-21.269 7.61-31.599 2.198-5.233 4.524-10.443 6.846-15.652.204-.458.81-.835 1.23-1.249.314.529 1.003 1.102.88 1.578-.672 2.59-1.612 5.148-2.302 7.737-.198.744-.328 1.849.287 2.281 3.389 2.381 2.718 5.442 3.056 8.231.854 7.048.919 14.143 1.932 21.177.79 5.481 2.526 10.9 3.865 16.344.08.325.372.627.565.939.253-.361.719-.719.729-1.083.35-12.699.794-25.399.894-38.099.033-4.242-.844-8.487-1.257-12.732-.028-.287.349-.592.537-.889.326.245.843.457.947.739 1.036 2.817 2.124 5.629 2.948 8.476.512 1.77 1.524 3.173 3.605 4.377 3.864 2.234 7.479 4.666 11.259 6.969.748.456 1.773.702 2.67 1.044.371-.636.785-1.262 1.096-1.911.204-.425.138-.922.421-1.312.195-.269.778-.562 1.188-.563.404 0 1.076.31 1.169.562.514 1.403.76 2.854 1.349 4.24.536 1.259 1.063 2.626 2.198 3.632 1.218 1.079 2.161.78 2.48-.575.241-1.025-.259-2.572 1.984-2.444.917.052 1.911 1.524 2.416 2.463 1.317 2.452 1.878 5.153 3.68 7.409 2.19 2.741 5.333 5.133 8.098 7.659.167.152.635.153.962.224.026-.259.132-.529.064-.776-.655-2.398-1.363-4.789-2.006-7.188-.353-1.317-.51-2.66-.938-3.964-.396-1.206-1.069-2.37-1.558-3.563-2.201-5.368-4.256-10.766-6.61-16.103-12.59-18.218-20.282-26.362-20.088-26.936.813.17 16.957 14.334 17.41 14.706 2.891 2.372 5.849 4.729 8.376 7.277 3.484 3.514 6.702 7.155 9.851 10.815 2.198 2.555 3.646 5.453 6.213 7.804 4.282 3.922 6.465 8.514 9.871 12.701.223.274.713.448 1.078.669.15-.314.51-.661.415-.936-.61-1.762-1.201-3.535-2.025-5.254-1.322-2.759-2.684-5.516-4.272-8.207-2.81-4.762-4.111-9.752-5.245-14.778-.061-.269-.205-.554-.131-.807.149-.506.423-.996.645-1.492.692.316 1.601.53 2.043.963 8.511 8.341 15.746 17.059 17.487 27.396.635 3.771 1.417 7.531 2.158 11.294.064.325.317.634.483.95.284-.275.762-.533.816-.827.165-.897.21-1.808.224-2.715.073-4.723.121-9.445.178-14.168l.142-.509c.358-.633.726-1.264 1.091-1.895.853.588 2.264 1.101 2.462 1.778.856 2.918 1.338 5.885 1.996 8.83.253 1.132.614 2.253.926 3.379.163-1.114.581-2.244.443-3.341-.557-4.416-1.284-8.822-1.951-13.232-.123-.812-.51-1.651-.321-2.426.173-.706.793-1.763 1.526-1.899.822-.153 2.487.372 2.924.919 1.842 2.302 3.432 4.702 4.972 7.108.743 1.161 1.117 2.427 1.772 3.617.208.378.785.661 1.194.988.368-.338.941-.643 1.073-1.019 1.143-3.264 2.519-6.51 3.216-9.821.886-4.211 1.201-8.478 1.766-12.72.06-.452-.028-.958.247-1.342.431-.6 1.115-1.117 1.691-1.669.558.457 1.146.899 1.664 1.375.305.28.499.615.744.925.316-.363.746-.701.93-1.093 1.704-3.631 3.287-7.288 5.054-10.905 4.713-9.648 9.493-19.281 14.274-28.914.248-.499.761-.938 1.151-1.405l-.051-.027c-.428 1.507-.765 3.03-1.298 4.52-3.47 9.688-7.032 19.36-10.467 29.054-2.322 6.553-4.604 13.114-6.72 19.699-.741 2.306-1.414 6.126-1.511 8.484-.405 9.866-.649 19.734-1.013 29.601-.13 3.53-.435 7.056-.661 10.584l-.181.406.132-.433c1.292-3.603 2.735-7.185 3.843-10.815 2.333-7.637 4.49-15.299 6.718-22.951.052-.178.011-.399.154-.528.433-.389.935-.742 1.41-1.109.253.382.724.764.724 1.146-.002 2.451.144 4.92-.224 7.351-1.221 8.048-3.792 15.933-6.612 23.783-.665 1.852-1.328 3.706-1.859 5.577-.354 1.248.341 1.894 2.44 1.666 1.913-.208 4.432.19 5.622-.509.975-.574.328-2.373.503-3.622 1.022-7.308 2.275-14.604 3.049-21.924.535-5.061.632-10.154.559-15.231-.135-9.427-.537-18.852-.829-28.278-.005-.182-.105-.385-.015-.54.203-.348.497-.671.754-1.004.185.316.505.627.534.95.339 3.802.604 7.608.949 11.41.402 4.435.851 8.869 1.316 13.301.044.422.352.83.537 1.245.19-.378.454-.747.559-1.136.673-2.497 1.234-5.011 2.019-7.491.193-.609 1.08-1.117 1.647-1.672.483.591 1.307 1.161 1.394 1.777.543 3.875.892 7.762 1.369 11.642.255 2.075.613 4.146.99 6.213.048.262.494.49.756.733.156-.231.409-.454.456-.695 2.239-11.501 4.461-23.003 6.684-34.504.104-.54.178-1.083.321-1.618.236-.884.517-1.762.78-2.642.397.901 1.026 1.787 1.154 2.705a771.588 771.588 0 0 1 2.254 17.519c.203 1.735.302 3.475.314 5.216.027 3.798.223 4.237 4.405 5.458 1.132.331 2.083 1.078 2.884 1.759.738.628 1.077 1.466 1.758 2.133.482.472 1.244.812 1.881 1.211.093-.533.286-1.069.263-1.6-.208-4.804-.505-9.607-.648-14.412-.033-1.096.432-2.198.667-3.298.504.981 1.246 1.938 1.473 2.947 1.71 7.618 3.605 15.225 4.891 22.878 1.803 10.731 1.882 21.525 1.619 32.317-.015.609.43 1.223.661 1.835 1.49-.737 3.935.591 4.974-1.019.422-.654.72-1.385.802-2.095.861-7.406 1.69-14.813 2.481-22.223.752-7.05 1.682-14.097 2.09-21.157.292-5.055-.151-10.129-.261-15.195-.059-2.724-.142-5.448-.127-8.171.002-.368.514-.734.79-1.101.41.318 1.078.599 1.189.959.988 3.196 1.957 6.396 2.772 9.614.747 2.949 1.271 5.923 1.957 8.879.119.512.554.99.843 1.484.132-.481.359-.96.377-1.443.056-1.452-.008-2.907.072-4.359.015-.271.482-.531.74-.796.267.191.619.353.782.578.107.148.204.301.292.456 3.334 5.84 4.632 12.129 4.56 18.39-.051 4.482.433 8.96.789 13.437.033.414.346.818.529 1.227.505-.358 1.197-.657 1.487-1.082 4.265-6.249 4.222-6.758 1.557-14.68-2.915-8.665-5.649-17.359-8.475-26.038-.606-1.86-1.292-3.708-1.883-5.57-.224-.706-.434-1.442-.373-2.154.048-.556.523-1.095.809-1.641.618.443 1.458.817 1.81 1.342.994 1.483 1.895 3.005 2.643 4.553 3.916 8.106 7.773 16.225 11.649 24.34.164.344.25.717.504 1.027.167.204.574.444.864.439.28-.005.691-.271.798-.48a48.508 48.508 0 0 0 1.577-3.376c2.362-5.656 4.655-11.325 7.101-16.964.385-.889 1.206-1.638 2.176-2.29 1.737-1.167.271-2.562.865-3.773.154-.314.382-.61.576-.915.245.286.64.555.713.86 1.354 5.64 2.692 11.282 3.98 16.929.388 1.703.59 3.425.939 5.132.059.289.432.549.66.822.254-.289.635-.557.739-.869.623-1.857 1.085-3.742 1.813-5.579.277-.699 1.117-1.295 1.7-1.938.207.669.672 1.356.577 2.006-.579 3.964-.866 7.98-2.067 11.862-1.226 3.964-1.292 7.878-1.089 11.87.405 7.98.593 15.965.863 23.948.015.453-.072.909-.034 1.361.022.258.199.509.307.764.15-.218.403-.43.435-.656.51-3.602.997-7.206 1.48-10.811 1.101-8.212 2.285-16.419 3.257-24.638.513-4.336.643-8.693.966-13.041.228-3.079.467-6.157.769-9.233.036-.362.505-.703.774-1.054.282.289.733.556.82.87.816 2.937 1.732 5.868 2.312 8.828 1.644 8.385 1.893 16.821 1.721 25.268-.147 7.259-.911 14.471-2.922 21.616-.323 1.149.054 2.388.107 3.585 2.626-.384 2.285-2.019 2.821-3.215 2.119-4.723 2.465-9.614 3.05-14.502.712-5.947 1.983-11.863 2.96-17.797.698-4.236 1.317-8.479 1.954-12.719.081-.541-.015-1.097.111-1.631.095-.403.414-.781.634-1.17.293.341.769.663.85 1.026a558.076 558.076 0 0 1 2.42 11.31c.201.986.158 1.996.373 2.98.103.472.546.909.835 1.362.302-.38.688-.74.893-1.142.907-1.776 1.962-3.533 2.58-5.357.625-1.844.73-3.767 1.219-5.636.131-.503.057-1.873 1.823-.769 2.279 1.424 2.495-.053 2.535-.94.135-2.991.087-5.988-.012-8.981-.095-2.894-3.211-22.021-2.971-21.591 1.967 3.513 9.452 19.303 10.06 23.236.449 2.899 2.654 5.666 4 8.509 1.265 2.671 2.323 5.388 3.661 8.04 2.153 4.268 4.444 8.505 6.739 12.74.191.352.85.587 1.291.876.197-.396.506-.783.574-1.189.973-5.814 1.944-11.627 2.853-17.446.746-4.776 1.411-9.557 2.111-14.336.053-.361-.046-.767.166-1.076.3-.436.823-.802 1.251-1.197.553.336 1.445.612 1.602 1.018.709 1.841 1.482 3.701 1.739 5.585.971 7.13 1.578 14.284 2.669 21.404.618 4.028 1.27 8.15 3.084 11.972 1.864 3.927 5.157 7.542 7.848 11.286.139.194.499.315.756.47.081-.263.227-.526.231-.79.034-1.998.059-3.995.052-5.993-.021-6.619.028-13.239-.118-19.857-.094-4.262-.549-8.52-.682-12.782-.028-.896.643-1.803.992-2.704.64.857 1.664 1.676 1.855 2.576 1.029 4.843 1.983 9.697 2.714 14.564 1.109 7.393 2.024 14.799 2.993 22.202.201 1.536.214 3.085.457 4.618.05.316.74.585 1.134.875.29-.277.81-.547.829-.832.101-1.449.258-2.915.051-4.352-.559-3.878-1.678-7.736-1.868-11.618-.293-6.003-2.577-11.938-1.248-18 .269-1.225-.225-2.519-.22-3.781.03-7.151.407-14.307.086-21.45-.385-8.583-1.167-17.163-2.123-25.726-.97-8.687-2.549-17.343-3.802-26.014-.036-.249-.633-2.164-.666-2.413-.038-.292.157-.604.239-.907.284.276.72.527.828.832 2.699 7.589 5.56 15.155 7.974 22.786 2.131 6.738 4.072 13.518 5.517 20.336 1.593 7.52 2.525 15.104 3.745 22.661.375 2.323.741 4.647 1.151 6.968.042.236.362.449.553.672.175-.211.451-.409.51-.634.832-3.122 1.608-6.251 2.449-9.372 1.779-6.599 3.59-13.195 5.386-19.792.097-.357.027-.782.294-1.061.461-.482 1.126-.876 1.705-1.306.455.476 1.27.941 1.301 1.43.121 1.903.165 3.823-.075 5.718-.582 4.605-1.376 9.197-1.988 13.8-.103.775-.055 1.707.483 2.351 6.081 7.28 8.207 15.312 9.597 23.445 1.154 6.752 1.832 13.542 2.75 20.313.122.9.276 1.822.694 2.671.199.404 1.057.91 1.608.906.475-.004 1.292-.644 1.346-1.042.261-1.89.21-3.8.459-5.691.95-7.197 1.818-14.401 3.005-21.581 1.726-10.44 3.695-20.861 5.581-31.289.195-1.08.495-2.153.84-3.216.099-.304.525-.56.801-.837.313.254.839.484.906.764.514 2.146 1.075 4.293 1.364 6.455a643.1 643.1 0 0 1 1.97 16.547c.154 1.436-.094 2.889-.006 4.331.138 2.255.382 4.508.645 6.758.031.267.457.513.7.769.172-.232.441-.453.498-.697.34-1.433.661-2.869.934-4.309 1.948-10.254 3.852-20.512 5.848-30.762.402-2.064 1.111-4.102 1.75-6.142.082-.263.596-.464.91-.693.028.256.106.515.077.768-.971 8.31-1.966 16.618-2.928 24.928-1.214 10.488-2.402 20.977-3.604 31.465-.394 3.437-.805 6.874-1.193 10.311-.246 2.179-.232 2.176 3.106 2.078 1.623-.048 3.246-.101 4.87-.113 2.324-.018 4.211-1.301 4.213-2.877.005-4.257-.15-8.514-.092-12.77.237-17.617.58-35.234.76-52.851.01-.98-.488-2.698-.642-3.673-.049-.313.227-.636.362-.955.243.306.637.598.706.921.966 4.487 1.932 8.974 2.808 13.469 1.156 5.936 2.18 11.884 3.382 17.816.289 1.427 1.022 2.816 1.633 4.206.127.29.617.506.94.756.279-.287.728-.554.808-.864.505-1.964.914-3.939 1.4-5.905.053-.214.394-.395.602-.591.244.187.658.358.7.564.146.716.214 1.444.22 2.167.028 3.089-.112 6.181.074 9.265a38.887 38.887 0 0 0 1.082 7.013c1.665 6.695 3.56 13.364 5.214 20.061.722 2.923.556 2.936 5.095 2.968 1.328.009 2.656.088 3.983.085 3.597-.007 3.305-.115 2.708-3.707a243.04 243.04 0 0 0-2.12-11.182c-1.125-5.24-1.986-10.525-3.581-15.703-1.911-6.2-4.391-12.319-6.636-18.471-.16-.438-.744-.974-.535-1.274.646-.929 1.328-2.029 2.494-2.543.72-.317 2.452.181 3.532.567.745.266 1.115.989 1.724 1.466.584.457 1.26.859 1.896 1.285.163-.516.252-1.051.514-1.543.211-.397.631-.743.958-1.111.514.336 1.313.614 1.495 1.019a115.4 115.4 0 0 1 3.029 7.339c1.658 4.487 3.208 8.993 4.841 13.484.183.504.615.967.931 1.45.34-.417.642-.852 1.034-1.246.282-.284.683-.513 1.03-.767.414.311 1.01.574 1.214.939 2.756 4.915 5.44 9.849 8.182 14.768 1.041 1.867 2.174 3.711 3.302 5.555.106.174.486.271.739.404.03-.171.123-.349.081-.512-.736-2.841-1.44-5.687-2.247-8.519-1.244-4.365-2.503-8.728-3.863-13.077-1.132-3.621-2.483-7.21-3.614-10.831-.997-3.188-1.871-6.396-2.702-9.606-.318-1.227-.123-2.414 2.09-2.828 2.121-.397 3.419.064 4.446 1.493 4.818 6.71 8.617 13.658 11.246 20.905.446 1.229 1.009 2.441 1.605 3.641.145.292.638.506.97.755.145-.326.406-.65.417-.979.295-8.967.71-17.934.781-26.903.04-4.985-.506-9.972-.77-14.959-.039-.725-.078-1.462.07-2.176.077-.37.561-.701.861-1.05.258.299.634.577.753.899.677 1.84 1.353 3.681 1.918 5.537 2.105 6.92 4.312 13.827 6.21 20.773 2.628 9.618 4.983 19.27 5.651 29.066.357 5.234.754 10.469.934 15.707.049 1.436 1.416 1.359 2.639 1.489 1.761.188 2.259-.7 2.068-1.776-.543-3.065-.579-8.125-.604-11.212-.06-7.417-.316-14.849.411-22.234.96-9.756 2.928-19.469 4.614-29.189.388-2.237 1.341-4.435 2.188-6.623.151-.389 1.06-.643 1.619-.959.236.466.724.947.67 1.397-.69 5.693-1.698 11.373-2.141 17.074-.457 5.888-.389 11.794-.529 17.693-.006.236.207.474.318.711.309-.273.737-.516.908-.824 1.98-3.567 2.757-7.288 2.844-11.095.026-1.162.154-2.32.368-3.473.134-.721.36-1.544 2.267-1.225.282.047 1.154-.824 1.341-1.339 1.059-2.907 1.952-5.841 3.001-8.749.236-.653.87-1.24 1.321-1.858.582.636 1.584 1.245 1.678 1.913.547 3.881.908 7.774 1.278 11.666.301 3.158.297 6.339.872 9.472.34 1.852 1.375 3.676 2.389 5.435 2.241 3.887 4.651 7.731 7.039 11.579.292.472.867.863 1.311 1.291.359-.546 1.013-1.087 1.03-1.637.112-3.518.179-7.039.074-10.556-.097-3.248-.233-6.505-.695-9.736-1.11-7.757-2.406-15.501-3.663-23.248-.278-1.712-.773-3.408-1.022-5.121-.068-.469.393-.974.612-1.463.646.367 1.53.652 1.886 1.12.854 1.126 1.138 2.466 1.761 3.634.658 1.233 1.204 2.494 1.498 3.79.966 4.255 5.187 7.143 8.575 10.421 5.748 5.561 11.352 11.199 16.677 16.949 3.043 3.285 5.412 6.858 8.099 10.295.312.399.674.79 1.102 1.134.326.262.794.442 1.198.658.3-.374.827-.738.862-1.123.185-2.074.626-4.182.28-6.225-.898-5.293-2.039-10.572-3.308-15.831-1.814-7.521-3.829-15.019-5.761-22.526-.046-.179-.169-.353-.174-.531-.018-.669-.001-1.337.003-2.006.456.528 1.037 1.024 1.349 1.588 4.365 7.9 8.692 15.809 13.031 23.715.233.425.435.865.768 1.252.063.073.926-.01.995-.132.183-.326.199-.713.168-1.072-.112-1.298.638-2.22 2.235-2.982 1.064-.507 8.199-19.208 8.631-19.07.546.174-2.865 17.413-2.904 17.857-.672 7.673 4.359 14.41 7.568 21.441 1.561 3.42 3.508 6.772 4.765 10.24 1.958 5.401 4.86 10.575 7.463 15.825.716 1.445.919 3.004 1.422 4.501.207.616.346 1.373.945 1.764.766.5 1.958.909 2.979.922.461.006 1.347-1.034 1.365-1.61.156-4.903.106-9.809.213-14.713.232-10.608.521-21.215.788-31.823.029-1.154.51-1.983 1.697-3.029 1.566-1.379 1.817-3.535 2.258-5.397 1.678-7.098 4.032-14.073 7.702-20.829.185-.34.191-.793.533-1.011.506-.322 1.239-.48 1.875-.707.274.368.807.747.775 1.103-.121 1.356-.392 2.708-.666 4.056-1.499 7.364-3.104 14.72-4.439 22.097-.21 1.16.329 2.939 1.166 3.96 7.482 9.124 13.697 18.633 19.42 28.311 3.28 5.547 6.875 11.009 10.356 16.501.256.404.746.74 1.128 1.107l.371.412a66.171 66.171 0 0 0-.416-.376zm-130.991-16.923.157.137-.205-.104-.367-.397.415.364zm-999.237-31.576-.123-.126.172.094.091.804.451-.098-.591-.674zm-275.672-27.303.001 1.141c-.056 1.318-.166 2.636-.159 3.953.064 12.493.145 24.986.228 37.479.029 4.35.069 8.701.134 13.051.005.317.262.633.402.949.234-.26.666-.517.671-.779.103-4.858.205-9.717.207-14.576.005-10.236.061-20.473-.143-30.707-.063-3.136-.906-6.265-1.392-9.397l.008-1.092-.086-.746-.369.074.498.65zm622.97 40.929c-.137.142-.364.276-.393.428-.058.302-.007.614-.002.922.11-.288.239-.573.324-.865.048-.165.025-.339.035-.509l.036.024zm-420.398-14.763.332.408-.382-.381c.002-.265.049-.534-.005-.794-.09-.429-.245-.852-.372-1.278-.228.037-.656.076-.655.109.013.494.001 1.001.18 1.472.074.195.588.312.902.464zM1422.197 268.6l.371.003c-.364 3.139-.737 6.277-1.088 9.417-.186 1.666.318 2.111 2.528 1.739 1.922-.324 3.522-.273 5.392.256 2.858.807 6.399-.176 7.064-1.705 1.47-3.376 3.029-6.737 4.293-10.148.398-1.074.344-2.366-.141-3.424-1.388-3.022-3.183-5.957-4.675-8.958-4.795-9.646-10.921-18.906-17.545-28.022-.737-1.014-1.826-1.911-2.751-2.862.191 1.217.273 2.447.59 3.649 1.672 6.331 3.452 12.649 5.083 18.984.48 1.866.798 3.773.84 5.665.113 5.133.039 10.27.039 15.406zm-499.291-12.779c-.15-.356-.302-.787-.51-1.205-2.389-4.798-5.925-9.238-9.359-13.707-.967-1.258-2.182-2.428-3.284-3.638-.024 1.464-.197 2.936-.047 4.392.648 6.308 1.863 12.609 1.948 18.919.068 5.033-1.139 10.079-1.901 15.111-.3 1.979 1.037 3.132 3.64 2.78 1.715-.232 2.749-.877 3.156-2.133 1.23-3.793 2.722-7.548 3.921-11.345.949-3.003 1.616-6.046 2.436-9.174zm-708.004 2.203-.555-.005c.051-.36.189-.726.142-1.08-.747-5.643-1.427-11.292-2.329-16.924-.33-2.062-1.181-4.087-1.836-6.122-.076-.238-.416-.436-.634-.653-.213.222-.468.431-.629.67a2.751 2.751 0 0 0-.35.779c-2.467 8.435-4.953 16.867-7.366 25.309-.43 1.506-.643 3.048-.792 4.58-.118 1.212.74 1.734 2.593 2.254 2.843.798 5.748.294 8.514.831 3.047.591 3.183.543 3.227-1.522.058-2.706.015-5.412.015-8.117zm1294.197 19.397c0 .998-.113 2.004.03 2.992.16 1.103 1.219 2.197 2.805 1.794 3.188-.811 6.206-.812 9.411-.259 1.352.233 2.012-.274 1.526-1.268-1.6-3.271-3.047-6.579-4.804-9.81-3.234-5.947-6.702-11.835-9.967-17.775-2.474-4.501-4.776-9.045-7.185-13.562-.165-.308-.591-.553-.896-.827-.201.29-.586.585-.573.871.089 1.97-.128 3.997.486 5.896 1.259 3.892 2.947 7.721 4.513 11.566 2.718 6.672 4.164 13.474 4.654 20.382zm-1343.142-42.07-.24-.002c0-1.721.028-3.442-.027-5.161-.009-.291-.377-.577-.579-.865-.301.266-.758.503-.877.802-.452 1.134-.812 2.285-1.175 3.434-2.741 8.669-5.511 17.334-8.179 26.014-.567 1.846-.173 2.119 2.817 2.302 3.552.217 7.143.188 10.674.495 2.705.236 2.68.395 2.361-1.579-.624-3.857-1.25-7.715-1.89-11.571a5.09 5.09 0 0 0-.391-1.325c-.112-.24-.432-.435-.658-.651-.331.243-.89.464-.95.734-.177.801-.078 1.63-.248 2.433-.077.361-.538.685-.824 1.026-.206-.302-.539-.594-.591-.908-.104-.627-.097-1.267-.059-1.9.266-4.427.554-8.852.836-13.278zm931.36 55.118c-.069.628-.212 1.258-.174 1.883.017.279.376.777.615.787 2.901.119 5.812.236 8.714.182.74-.014 1.938-.544 2.105-.981.964-2.525 2.669-5.165 2.276-7.63-.81-5.08-2.765-10.078-4.316-15.1-.138-.448-.768-.826-1.169-1.237-.346.371-.806.714-1.022 1.118-3.639 6.792-7.854 13.498-7.029 20.978zm25.013-60.711c-2.669 6.625-5.092 13.469-8.245 20.156-1.961 4.159-3.381 8.011-.574 12.293 1.813 2.766 2.522 5.864 3.75 8.809.095.228.382.419.58.627.225-.199.576-.376.656-.599.817-2.269 2.064-4.525 2.288-6.824.721-7.392 1.151-14.799 1.509-22.204.201-4.153.036-8.314.036-12.258zM12.503 278.12c2.25-.066 4.026-8.237 6.266-8.173 6.811 20.705 2.702-5.289 2.041-6.185-.29-.394-.382-.867-.478-1.312-1.994-9.205-3.973-18.411-5.976-27.615-.05-.231-1.951-11.529-2.125-11.747-.195.206-2.997 17.981-1.277 27.916.71 4.103-.169 27.166 1.549 27.116zm319.457-14.523c.721 5.894 1.33 10.854 1.933 15.814.128 1.055.328 2.004 2.469 1.923 3.118-.118 4.675-.724 4.547-2.153a67.397 67.397 0 0 0-1.136-7.551c-.832-4.027-1.79-8.042-2.753-12.055a801.212 801.212 0 0 0-3.082-12.304c-.078-.304-.424-.576-.646-.863-.062.256-.164.512-.182.77-.411 5.777-.812 11.554-1.15 16.419zm1224.737 11.717.561-.17c-.916-1.743-1.686-3.529-2.778-5.219-2.509-3.883-5.138-7.731-7.814-11.562-.41-.587-1.33-1.01-2.014-1.508-.315.648-.794 1.283-.917 1.948-.561 3.042-.869 5.926 1.467 8.925 2.705 3.472 4.25 7.355 6.423 11.026.329.556 1.603 1.393 1.973 1.295.996-.265 2.142-.867 2.489-1.517.53-.994.438-2.138.61-3.218zm-500.077-8.334.448-.025c-.404-2.601-.794-5.202-1.226-7.801-.072-.43-.33-.846-.503-1.268-.15.399-.411.795-.434 1.198-.255 4.519-.522 9.038-.685 13.559-.124 3.427-.138 7.012-2.345 10.026-2.312 3.158-.523 5.786.392 8.621.096.297.981.663 1.496.66.502-.003 1.305-.377 1.444-.695.524-1.202 1.108-2.441 1.171-3.678.284-5.511.425-11.025.549-16.539.032-1.351-.197-2.705-.307-4.058zm190.024-4.725.222-.008c-.193-2.157-.239-4.325-.609-6.468-.773-4.477-1.698-8.943-2.629-13.406-.073-.348-.672-.645-1.026-.966-.166.335-.39.662-.488 1.006-.838 2.927-1.454 5.891-2.541 8.775-.781 2.071-.251 3.942.751 5.827a544.154 544.154 0 0 0 5.417 9.901c.155.276.642.468.974.698.109-.255.326-.514.31-.766-.097-1.532-.248-3.062-.381-4.593zm-310.797 14.208c.477-3.613-1.878-7.737-5.958-11.484-.227-.208-.451-.417-.676-.626-.178.298-.45.586-.519.895-.785 3.483-1.592 6.965-2.274 10.458-.24 1.229-.886 2.891-.013 3.618.86.716 3.412.492 5.219.691 4.087.45 4.396.277 4.221-3.552zm-428.21-9.957.154-.014c-.422-3.06-.821-6.122-1.291-9.178-.063-.413-.479-.8-.732-1.2-.383.401-.957.769-1.119 1.207-1.589 4.292-3.113 8.596-4.648 12.897-.343.961-.662 1.925-.992 2.888 1.33.071 2.66.138 3.989.218.262.016.514.107.777.127 2.906.226 3.552-.04 3.82-2.067.213-1.613.042-3.251.042-4.878zm-182.395-7.731c-.428-3.389-.699-5.83-1.076-8.264-.077-.499-.554-.969-.847-1.453-.258.438-.617.863-.753 1.318-.291.976-.546 1.963-.674 2.954-.666 5.146-1.373 10.29-1.895 15.442-.329 3.243-.367 6.501-.504 9.752-.01.245.235.495.361.743.341-.228.915-.426.986-.688.558-2.05 1.057-4.109 1.504-6.172 1.05-4.84 2.061-9.684 2.898-13.632zm1440.375 10.059c-.281-1.432-.396-2.986-.917-4.474-1.136-3.244-2.467-6.456-3.758-9.674-.117-.292-.527-.53-.802-.793-.244.301-.695.602-.698.904-.015 1.621.01 3.245.153 4.863.302 3.426.719 6.847 1.02 10.273.132 1.51 1.523 1.832 3.29 1.632 2.412-.273 1.413-1.657 1.712-2.731zm-927.458-13.62c-.157-1.786-.295-3.77-.539-5.748-.046-.372-.518-.719-.794-1.078-.201.315-.472.619-.593.947-1.033 2.799-2.001 5.61-3.063 8.404-1.3 3.421.155 6.598 1.794 9.76.16.309.594.553.9.827.324-.349.706-.681.95-1.054.154-.235.109-.532.139-.802l1.206-11.256zm-453.7 16.103.303.001c0 2.176-.106 4.356.039 6.528.088 1.321 2.035 2.207 3.965 1.94 2.107-.291 2.327-1.283 1.869-2.497-1.553-4.125-3.081-8.255-4.665-12.375-.109-.284-.601-.5-.915-.748-.199.298-.562.594-.57.893-.05 2.085-.026 4.172-.026 6.258zm1327.01-4.697.575-.086c-1.151-3.611-2.296-7.223-3.468-10.831-.074-.228-.356-.425-.542-.636-.169.232-.444.455-.49.699-.236 1.252-.203 2.545-.649 3.759-1.5 4.09-.941 7.995 1.908 11.737.209.274.753.601 1.131.596.347-.005.935-.406.979-.667.258-1.519.385-3.047.556-4.571zm-820.587 8.208c-.138-.532-.29-1.062-.412-1.595-.646-2.837-1.268-5.676-1.941-8.51-.096-.404-.424-.783-.644-1.174-.449.377-1.166.714-1.305 1.138a213.99 213.99 0 0 0-2.627 8.712c-.587 2.087 1.211 3.463 4.353 3.312 1.608-.077 2.873-.518 2.576-1.883zm263.577 14.849.556.674c.351-.246.886-.454 1.017-.746.309-.686.494-1.407.61-2.122a2556.409 2556.409 0 0 0 3.24-20.457c.06-.389-.284-.806-.44-1.21-.382.306-.897.573-1.113.925-.302.493-.459 1.043-.544 1.579-1.103 6.995-2.183 13.992-3.326 21.357zm569.335-25.42c0 1.111-.081 2.099.022 3.079.113 1.075.371 2.144.609 3.211.209.941 2.861 1.911 4.285 1.528 1.592-.429 1.126-1.224.702-2.039-1.51-2.898-2.941-5.815-4.465-8.709-.292-.555-.869-1.041-1.315-1.559-.043.637-.147 1.275-.116 1.91.044.903.19 1.803.278 2.579zm-901.824-2.2c-.462-2.017-.894-3.972-1.379-5.922-.057-.23-.405-.427-.618-.64-.19.207-.521.406-.55.623a1220.713 1220.713 0 0 0-2.045 15.987c-.03.25.435.528.669.792.328-.258.851-.486.953-.78a138.214 138.214 0 0 0 1.95-6.098c.394-1.329.691-2.672 1.02-3.962zm677.54 12.648h.052c0 1.544-.075 3.09.048 4.629.035.436.651.851 1.001 1.275.359-.438 1.035-.879 1.025-1.313-.053-2.442-.175-4.888-.457-7.322-.378-3.254-.903-6.501-1.426-9.746-.06-.375-.507-.721-.775-1.081-.065.353-.204.707-.185 1.058.225 4.168.474 8.334.717 12.5zm-259.591 9.628c.207-.171 1.269-.668 1.178-1.036-.56-2.289-1.365-4.55-2.131-6.814-.074-.22-.443-.394-.674-.59-.175.213-.446.415-.508.642-.497 1.838-.919 3.685-1.435 5.52-.52 1.852-.17 2.167 3.57 2.278zm-376.617-29.612-.417.001c0 2.165-.015 4.329.019 6.494.004.275.263.548.403.822.11-.247.252-.49.324-.743.152-.531.197-1.079.409-1.597 1.556-3.809 1.197-7.686.909-11.559-.024-.329-.322-.649-.493-.974-.228.353-.62.699-.656 1.061-.212 2.163-.341 4.33-.498 6.495zm718.115 20.225h-.035c0 .448.165.933-.03 1.339-.7 1.46.186 1.999 2.254 1.989.524-.002 1.053.075 1.572.145 1.629.221 1.953-.277 1.363-1.183a33.332 33.332 0 0 0-2.084-2.896c-.747-.915-1.626-1.78-2.447-2.668-.197 1.002-.396 2.003-.59 3.005-.018.088-.003.179-.003.269zm-178.623 1.807c-.17 1.035-.351 1.492-.279 1.929.049.298.452.57.697.853.447-.251 1.043-.448 1.296-.769.222-.283.114-.708.059-1.064-.555-3.583-1.122-7.165-1.715-10.745-.036-.218-.325-.417-.497-.625-.178.195-.519.395-.509.586.126 2.495.265 4.99.484 7.482.085.979.381 1.95.464 2.353zm412.998-13.476c-.155.546-.355.855-.306 1.144.287 1.694.578 3.389.979 5.072.21.881.504 1.78 1.042 2.585.248.371 1.172.535 1.789.792.284-.456.942-.981.791-1.357-1.004-2.501-2.172-4.972-3.321-7.446-.099-.215-.452-.376-.974-.79zm-366.584 16.809c-.522-1.056-.932-2-1.465-2.91-.212-.362-.696-.651-1.057-.973-.291.281-.657.54-.855.848-.316.49-.601 1.003-.747 1.526-.136.487-.295 1.375-.064 1.437 1.188.319 2.494.447 3.772.582.116.013.329-.398.416-.51zM447.24 274.612c.092.174.399.814.805 1.425.044.066.965-.035.968-.074.047-.67.021-1.342-.011-2.013a1.163 1.163 0 0 0-.152-.519c-.224-.387-.484-.764-.73-1.145-.293.426-.613.846-.866 1.283-.089.153-.014.349-.014 1.043zm1312.698-31.508-.115.008c.149.883.26 1.771.474 2.647.053.218.437.4.668.598.186-.188.552-.388.528-.563a45.589 45.589 0 0 0-.667-3.707c-.045-.2-.416-.368-.636-.55-.084.165-.223.327-.241.496-.037.355-.011.714-.011 1.071zm-724.266 44.755c-.221.186-.523.327-.505.445.119.773.262 1.548.512 2.305.048.145.655.332.913.283.255-.049.588-.39.553-.574a8.945 8.945 0 0 0-.643-2.011c-.085-.19-.544-.302-.83-.448zm-327.645-13.822c-.307.177-.596.263-.68.405-.535.909-1.024 1.831-1.529 2.748.349.067.985.217 1.004.188.554-.874 1.078-1.758 1.52-2.66.086-.174-.188-.428-.315-.681zm414.097 4.783-.907-2.023c-.128.755-.403 1.517-.328 2.263.044.44.645.854.995 1.28l.24-1.52zm-717.948-43.714-.801-1.338c-.083.157-.284.337-.228.468.197.468.481.919.732 1.376l.297-.506zm-3.76-8.796c-.3.103-.642.21-.637.22.194.321.423.633.646.946.186-.065.543-.165.532-.189-.148-.328-.348-.647-.541-.977zm932.011 26.685-.337.018.186.35c.089-.047.23-.086.251-.145.024-.065-.062-.148-.1-.223zm-589.402 21.191c-.117.106-.254.205-.336.323-.022.032.154.176.183.169.184-.047.352-.123.525-.189a54.54 54.54 0 0 0-.372-.303zM1815 260.868c-.122.135-.336.269-.343.407-.007.148.181.301.284.451.122-.136.335-.271.343-.41.009-.147-.179-.299-.284-.448zm-1022.809-5.734c-.083.131-.198.258-.234.395-.017.064.119.146.185.22.151-.076.446-.184.427-.221-.07-.143-.241-.264-.378-.394zm330.148 27.773-.121-.204c-.098.089-.203.176-.283.272-.007.008.146.078.224.119l.18-.187zM992.672 261.27l.158-.2a46.908 46.908 0 0 1-.401-.118c-.001.077-.032.163.007.228.027.046.154.062.236.09zm-18.533-2.776-.217-.163-.191.292c.1.018.225.068.292.044.071-.026.086-.123.116-.173z" />
		<path d="M1792.885 246.082c1.111 1.572 2.444 3.127.805 4.907l.056.022c-.479-1.62-1.627-3.189-.807-4.907l-.054-.022z" />
		<path d="M1025.735 248.443c-.161-.267-.346-.476-.395-.698-.025-.113.194-.252.303-.379.166.211.384.412.474.637.039.095-.197.239-.382.44z" />
		<path d="m1792.939 246.105-.161-1.014.627.045-.52.946.054.023z" />
		<path d="m1034.88 183.96.118-.795.405.095-.574.673.051.027z" />
		<path d="m766.35 210.096.836-1.069-.047-.026-.777 1.101-.012-.006z" />
		<path d="m767.187 209.027.186-.5-.233.473.047.027z" />
		<path d="m319.432 201.917-.447-.365.395.395.052-.03z" />
	</g>
</svg>
