<svg preserveAspectRatio="xMidYMid meet" data-bbox="40.39 42.226 135.545 122.697" xmlns="http://www.w3.org/2000/svg" viewBox="40.39 42.226 135.545 122.697" height="200" width="200" data-type="color" role="img">
	<defs>
		<style>
			#comp-lmo3nxn01 svg [data-color="1"] {fill: #227182;}
		</style>
	</defs>
	<g>
		<g clip-path="url(#296cba77-599d-475f-88bc-a7f6020e0ee9_comp-lmo3nxn01)">
			<path fill="#227182" d="m53.66 163.645 1.634-7.451 1.047.229-1.862 8.5-8.502-1.865.23-1.047 7.454 1.634Z" clip-rule="evenodd" fill-rule="evenodd" data-color="1">
			</path>
			<path fill="#227182" d="M126.772 57.27c8.123-9.357 22.441-16.384 49.036-13.191l.127-1.065c-26.847-3.223-41.558 3.858-49.973 13.554-5.862 6.754-8.624 14.74-10.345 21.196-57.992-19.939-96.917 47.181-62.01 86.437l.801-.713c-34.21-38.472 3.974-104.336 60.937-84.683-.311 1.21-.587 2.357-.844 3.422-.241 1-.464 1.929-.682 2.768-1.596 6.138-.818 10.761 1.297 13.622 2.129 2.88 5.545 3.874 8.931 2.851 3.956-1.195 7.526-5.074 7.336-9.715-.192-4.679-4.178-9.805-14.629-13.588l-.12-.043c1.701-6.406 4.393-14.231 10.138-20.851Zm-10.41 21.894.027.01c10.311 3.732 13.758 8.608 13.922 12.623.167 4.053-2.984 7.56-6.574 8.644-2.984.902-5.917.029-7.759-2.461-1.855-2.51-2.669-6.761-1.121-12.715.223-.86.451-1.802.694-2.812.249-1.031.515-2.133.811-3.289Z" clip-rule="evenodd" fill-rule="evenodd" data-color="1">
			</path>
		</g>
		<defs fill="none">
			<clipPath id="296cba77-599d-475f-88bc-a7f6020e0ee9_comp-lmo3nxn01">
				<path fill="#227182" d="M200 0v200H0V0h200z">
				</path>
			</clipPath>
		</defs>
	</g>
</svg>
