<svg xmlns="http://www.w3.org/2000/svg" id="comp-lmo14pve-bottom" preserveAspectRatio="xMidYMax slice" data-bbox="0 95.649 1920 204.351" viewBox="0 95.649 1920 204.351" height="100%" width="100%" data-type="shape">
	<defs>
		<style>
			#comp-lmo14pve-bottom { fill: #FFFFFF; }
		</style>
	</defs>
	<g>
		<path d="M1915.894 192.787c-1.224-.114-4.52 25.931-4.908 28.537-1.826 12.254-5.824 62.988-5.892 61.892-1.198-19.28-2.405-38.559-3.608-57.838l-1.767-30.906c-1.789 25.171-3.997 60.52-5.926 91.417h-1.208a85779.803 85779.803 0 0 1-3.785-60.521l-1.479-30.909c-2.124 25.158-4.316 60.521-6.229 91.43h-1.204c-1.404-22.366-3.02-48.111-3.796-60.545-.594-10.271-.957-20.583-.99-30.907-2.979 25.593-4.865 60.539-6.677 91.453h-1.232c-1.404-22.38-3.018-48.144-3.788-60.584-.517-10.255-.667-20.579-.295-30.899-3.164 17.727-4.377 43.616-5.545 61.817l-1.862 29.667h-1.204a49370.595 49370.595 0 0 1-3.775-60.654c-.404-10.235-.287-20.578.551-30.877-4.116 17.586-5.264 43.583-6.406 61.808l-1.864 29.723h-1.193c-1.471-22.255-3.223-47.647-3.996-60.828-.364-10.267-.051-20.59 1.713-30.814-6.114 19.849-6.312 41.291-7.359 61.807l-1.866 29.835h-1.2c-1.533-22.404-3.382-48.016-4.004-61.262-.197-10.296.527-20.657 2.881-30.819-7.328 19.59-7.782 41.36-8.546 61.96l-1.857 30.12h-1.22l-1.988-30.903c-.944-10.568-1.979-20.883-1.933-31.296.032-10.376 1.196-20.827 4.393-30.878-8.962 19.242-9.611 41.523-10.226 62.328l-1.811 30.749h-1.193c-.748-11.336-1.503-22.637-2.177-31.924-1.825-21.095-4.12-42.723 4.62-62.645-11.152 18.647-11.701 41.746-12.385 62.829-.459 9.275-1.066 20.485-1.685 31.739h-1.195c-.483-6.875-.922-13.11-1.195-16.971l-.864-12.258c-3.08-22.605-3.404-46.266 6.9-67.262-5.9 9.185-9.89 19.676-12.176 30.523-2.311 10.849-3.024 22.07-2.955 33.094.081 2.35-.064 5.747-.21 8.133-.322 6.565-.755 15.503-1.203 24.741h-1.11l-2.254-30.504c-2.008-11.493-2.795-23.276-1.253-34.978 1.459-11.552 5.149-22.944 11.036-33.295-14.509 19.457-19.765 44.808-18.02 68.889-.041-.817-.673 14.343-1.312 29.888h-.951l-2.368-31.263c-2.062-11.864-2.539-24.089-.338-36.118 2.099-11.894 6.675-23.444 13.088-33.986-15.668 19.662-23.08 45.532-21.083 70.728-.042-.802-.618 14.783-1.194 30.639h-.39c-1.434-12.773-3.212-25.448-3.88-38.339-1.468-23.103 1.993-47.199 16.869-65.844-27.398 27.81-25.009 67.049-25.038 104.183h-1.013c-1.423-13.394-3.006-26.704-3.315-40.23-.793-23.764 3.731-48.462 19.84-66.935-29.401 27.789-28.55 68.596-28.652 107.165h-1.319c-2.27-23.429-3.903-46.594-.822-70.129 1.011-9.134 5.313-17.239 10.492-24.866 3.47-5.15 7.297-10.121 10.851-15.263-8.197 9.611-17.498 18.285-22.985 29.994-2.729 5.84-3.844 12.277-5.086 18.574-1.206 6.227-2.054 12.518-2.725 18.824-1.475 13.952-1.818 28.016-1.923 42.054-1.537-14.634-3.179-29.17-3.133-43.955-.293-25.518 6.694-51.246 26.396-68.643-5.166 3.848-9.927 8.317-14.054 13.375-22.583 28.332-21.585 64.897-21.412 100.035h-.451c-.264-2.635-.529-5.275-.783-7.898-2.399-25.877-5.003-52.619 4.238-77.359 4.636-12.259 12.7-23.115 23.038-31.284-5.566 3.618-10.735 7.941-15.232 12.953-24.738 28.559-23.769 66.975-23.613 103.588h-.712c-3.041-29.844-5.949-59.808 5.45-88.101 5.232-12.409 13.863-23.269 24.6-31.497-41.231 25.524-42.676 74.541-42.636 119.598h-.144c-3.759-38.15-7.341-78.963 17.43-108.667 4.495-5.258 9.784-9.885 15.58-13.83-6.131 3.392-11.9 7.549-16.996 12.5-28.435 28.445-28.771 70.621-28.591 109.997h-.08c-3.571-39.078-6.558-80.31 19.526-111.064 4.632-5.326 10.027-10.035 15.911-14.092-6.223 3.507-12.092 7.744-17.316 12.751-29.784 29.356-30.728 72.039-30.761 112.405h-.491c-3.731-39.918-5.686-82.257 21.271-113.297 4.779-5.369 10.317-10.109 16.35-14.176-6.367 3.513-12.375 7.778-17.741 12.82-30.646 29.625-32.693 73.348-32.574 114.653h-.108c-3.812-40.525-5.513-82.912 22.335-114.833 4.846-5.432 10.42-10.259 16.471-14.454-6.393 3.646-12.435 7.999-17.86 13.097-30.47 29.143-33.688 71.583-33.704 112.363-3.64-39.912-5.522-81.706 22.124-112.451 4.979-5.396 10.738-10.12 16.979-14.153-6.565 3.474-12.784 7.713-18.347 12.773-31.27 29.27-33.277 72.557-33.184 113.851-3.749-40.118-6.761-82.68 20.836-113.089 5.012-5.384 10.851-10.046 17.179-13.971-6.642 3.36-12.938 7.531-18.541 12.586-32.247 30.025-32.129 75.771-31.882 118.281h-.192c-.44-4.364-.876-8.716-1.267-13.061-2.342-28.949-4.803-59.504 8.174-86.334 6.354-13.247 16.431-24.926 29.63-31.812-6.893 2.887-13.28 7.083-18.836 12.223-31.043 29.878-31.112 73.629-30.464 115.109-4.302-40.036-9.095-81.663 17.768-113.831a67.515 67.515 0 0 1 17.114-13.977A68.527 68.527 0 0 0 1603 166.838c-28.003 27.996-29.498 67.056-28.979 105.281-3.949-37.181-7.972-75.112 15.551-105.344 4.748-5.616 10.697-10.275 17.394-13.613a55.85 55.85 0 0 0-18.816 12.291c-10.887 10.801-17.265 25.414-20.995 40.118-6.408 24.854-4.888 50.905-4.553 76.559-.332-3.146-.68-6.281-1.029-9.402-1.69-14.742-3.485-29.38-3.52-44.171.327-7.171 1.156-14.71 2.204-21.886 3.097-21.467 11.377-44.785 32.025-55.079-6.939 2.828-13.289 7.286-18.396 12.947-12.882 14.321-18.15 33.65-21.726 52.142-4.421 22.67-2.291 46.14-1.929 69.207h-.758c-.92-13.774-1.808-27.806-2.213-35.987-1.585-28.269-6-62.516 12.499-86.27 4.627-5.915 10.739-10.515 17.387-13.983-5.228 2.172-10.287 5.093-14.672 8.732-25.549 22.234-24.038 60.718-24.919 91.76-.294 8.175-.606 22.061-.866 35.748h-.173c-1.194-14.97-2.376-29.571-2.473-29.488.687-10.821-.395-21.068-1.272-31.205-1.508-19.729-4.615-40.867 5.112-58.909 4.893-8.847 13.46-15.129 22.877-18.69-4.893 1.446-9.668 3.481-13.981 6.365-23.04 15.472-21.728 47.017-21.727 71.607.041 10.252.189 20.473-1.283 30l-.002.57-.02 5.708c-1.987-16.995-5.816-36.053-7.142-51.983-2.349-25.244 1.183-50.707 25.375-64.15-5.654 2.644-10.971 6.192-15.415 10.751-22.183 23.515-15.905 61.887-14.34 91.33.359 5.495.68 10.981.806 16.399a272.901 272.901 0 0 0-.965-7.005c-.169-7.909-2.957-21.64-5.234-30.777-2.399-10.055-4.95-19.947-6.452-29.951-3.448-21.551-.146-40.953 20.596-52.084-15.667 6.71-24.275 20-25.645 36.83-1.453 15.639 1.581 31.454 3.824 46.701 1.591 10.336 2.889 20.584 2.542 30.394.594 9.038.709 18.09.312 27.104-3.077-36.87-18.283-72.262-25.185-108.537-3.382-15.928 6.307-27.089 20.343-33.115-7.37 2.629-14.667 6.561-19.278 13.173-4.786 6.67-5.668 15.387-4.349 23.322 3.88 35.007 15.679 70.417 15.618 105.642h-1.051c-1.391-21.75-5.394-43.324-12.873-63.769-6.055-17.073-14.787-33.369-25.082-48.221-7.832-12.893 7.803-25.34 18.421-30.296a50.59 50.59 0 0 0-10.676 5.462c-8.107 5.305-15.865 15.001-11.347 25.072 1.008 2.337 2.394 4.541 3.585 6.738 3.894 6.882 7.178 14.028 10.214 21.308 8.987 21.998 13.541 45.433 14.609 69.07-2.012-11.731-5.334-23.242-9.857-34.309-10.319-25.262-26.102-48.047-44.213-68.173-.978-1.175-2.981-3.04-3.405-4.512-2.326-8.731 10.308-18.662 17.652-21.44-7.875 2.636-15.368 7.696-19.213 15.382-1.495 2.973-1.464 7.238.857 9.962l1.863 2.463 3.721 4.92c13.233 18.167 24.687 37.705 32.098 58.831a152.454 152.454 0 0 1 7.742 30.62c-8.934-33.172-31.976-61.793-53.556-87.811l-16.394-19.686c-6.862-6.658.092-16.14 6.078-20.797-6.925 4.541-14.456 14.157-7.612 21.986 25.893 37.099 61.106 79.52 61.943 125.865-1.996-17.615-8.758-34.563-19.098-49.618-21.068-31.408-50.96-54.864-75.517-83.07-1.044-1.185-2.331-2.531-2.933-3.997-2.592-6.886-.321-15.331 5.181-20.29-6.387 5-9.62 15.071-5.856 22.578.431.822 1.567 2.205 2.091 2.92 15.832 21.348 37.66 42.835 54.961 66.031-18.929-17.814-43.84-28.875-63.35-45.269-11.321-9.307-20.902-21.459-23.892-36.08-1.003-4.841-1.358-9.819-1.253-14.806-.427 4.965-.402 9.993.298 14.978 6.464 41.018 53.958 58.422 80.111 85.573 17.218 16.309 23.239 39.316 22.836 62.384h-1.128c-1.681-10.511-5.038-20.732-10.099-29.993-19.968-36.707-56.485-59.53-88.285-84.555a472.464 472.464 0 0 1-11.765-9.404c-11.288-9.886-19.983-22.637-25.29-36.759 4.414 14.541 12.467 28.113 23.312 38.898 18.371 17.288 38.519 32.923 56.398 50.386 21.295 20.475 38.739 43.856 42.145 71.427h-.896c-2.243-11.015-6.212-21.664-11.885-31.264-21.922-36.821-60.463-58.697-95.481-80.898-10.963-6.842-21.869-13.725-32.433-21.15-6.469-4.549-8.292-12.714-9.357-20.184.569 7.612 2.052 16.25 8.465 21.335 10.114 8.101 20.637 15.702 31.166 23.227 39.201 27.981 87.634 60.555 95.889 108.934h-.785c-6.471-23.34-21.272-44.406-38.918-60.79-3.292-3.173-8.258-7.386-11.791-10.376-18.127-15.135-40.188-23.927-60.884-34.462-18.167-9.155-35.657-20.884-46.463-38.596 14.723 28.144 45.132 42.064 71.341 57.285 13.227 7.601 25.438 16.39 36.016 27.226 12.529 12.315 23.846 27.099 31.072 43.347-6.694-14.547-16.426-27.736-28.325-38.51-32.84-30.291-74.792-47.088-115.32-63.99l-3.576-1.478c-3.827-1.218-5.252-4.98-6.561-8.526-.902-2.379-1.956-4.923-4.04-6.513 4.828 4.412 3.203 13.516 10.124 16.155l3.465 1.694c29.772 14.562 60.223 29.408 86.554 49.461 22.113 16.542 40.232 37.453 48.206 62.438-3.111-8.29-7.279-16.159-12.503-23.242-31.205-41.914-84.104-58.617-128.887-81.323-4.483-2.292-9.077-4.494-13.34-7.046-4.121-2.805-7.507-6.688-10.012-11.076 2.219 4.537 5.377 8.694 9.438 11.859 4.228 2.919 8.636 5.376 12.995 7.973 8.772 5.074 17.681 9.904 26.567 14.735 13.47 7.3 27.858 15.044 41.58 23.758-35.217-17.219-73.558-28.715-104.685-53.351 26.172 23.572 59.132 37.644 89.965 53.936 28.99 13.472 53.094 39.149 62.729 69.412h-.846c-3.848-9.225-8.92-17.922-15.14-25.658-38.503-46.995-100.77-61.065-149.114-94.577 30.611 24.148 67.07 40.291 98.786 62.58 9.101 6.22 17.658 13.048 25.268 20.555-38.326-36.315-92.54-50.471-134.931-81.408 28.9 24.062 63.877 40.024 94.635 61.233-12.885-8.222-26.534-15.339-39.724-21.984-15.003-7.562-30.779-15.2-45.004-23.24-6.594-4.891-12.632-10.669-19.558-15.137 6.641 4.961 12.197 11.073 18.504 16.455 14.194 9.39 29.019 17.785 43.583 26.438a800.245 800.245 0 0 1 9.52 5.669c-7.514-4.163-15.067-8.114-22.44-11.975-15.226-7.917-31.142-16.109-45.26-25.085-4.083-3.815-8.202-7.634-12.625-11.058 4.176 3.722 7.994 7.791 11.804 11.879 13.981 10.373 28.962 19.334 43.741 28.403 4.629 2.804 9.36 5.691 14.111 8.67-14.617-8.284-29.525-16.065-43.775-24.857-11.545-7.426-22.993-15.404-33.893-23.733 13.874 12.122 28.317 23.866 43.682 34.057 9.356 6.366 19.583 12.759 29.805 19.498-12.299-7.502-24.94-14.51-37.193-22.002-15.442-9.312-32.301-16.708-43.746-31.143 10.263 15.135 27.058 24.147 41.625 34.397a841.988 841.988 0 0 0 9.899 6.893c-5.449-3.054-10.878-6.1-16.202-9.239-15.167-8.984-29.837-18.928-42.212-31.601 10.176 12.081 22.472 22.241 35.295 31.457-14.746-9.243-29.136-19.099-41.844-30.935 13.672 15.009 30.47 27.418 46.86 39.448-18.628-11.901-37.414-23.661-53.302-38.82 18.697 20.66 42.269 36.334 64.124 53.52-23.976-17.04-50.219-31.613-70.498-52.954 8.44 10.375 18.225 19.466 28.484 28.072-12.147-8.667-24.087-17.55-34.824-27.663 16.726 18.346 36.793 33.522 55.511 49.852-20.796-16.319-43.497-30.797-61.833-49.626 13.478 16.171 29.756 29.833 45.59 43.797-18.365-13.488-37.534-26.227-52.017-43.783 13.073 18.842 31.311 33.218 48.612 48.349-18.708-15.948-39.28-30.48-55.157-48.554 14.867 20.094 34.499 36.335 51.837 54.096a181.814 181.814 0 0 1 8.574 9.009c-21.22-21.884-48.79-39.242-67.056-63.49 9.342 15.126 21.976 27.867 34.583 40.432-13.987-13.417-28.625-26.224-41.306-40.975 13.915 19.464 31.324 36.402 46.375 54.87a252.958 252.958 0 0 1 3.855 4.815 248.643 248.643 0 0 0-7.925-9.294c-15.81-17.719-33.455-33.305-49.138-51.057 13.922 18.939 30.256 36.24 44.241 55.057 12.261 16.444 23.264 34.888 26.91 55.001-10.4-45.707-48.77-77.046-78.245-110.853 20.214 27.929 44.651 53.443 58.386 85.197 3.977 9.292 6.77 18.953 7.945 28.701-7.068-47.076-44.128-80.841-73.863-114.869 19.95 27.62 43.032 53.84 55.015 85.903 3.761 10.18 6.092 20.73 6.544 31.267h-.14c-.298-3.82-.731-7.611-1.42-10.757-5.438-28.514-22.737-53.39-40.659-75.419-8.945-10.937-18.278-21.454-27.371-32.196 8.067 11.531 16.411 22.888 24.253 34.511 16.818 25.093 32.711 53.196 32.682 83.862h-.167c-.283-3.765-.639-7.34-1.126-10.483-7.239-42.998-37.543-76.84-64.304-109.337 7.923 11.579 15.945 23.102 23.38 34.929 16.008 25.615 30.332 54.312 29.544 84.891h-.143c-4.075-47.056-32.737-86.617-62.156-121.547 7.965 11.544 15.699 23.247 22.69 35.316 15.286 26.323 26.889 55.661 26.896 86.231h-.129c-.832-10.877-2.61-21.802-5.757-32.042-9.396-34.894-32.156-63.679-53.914-91.572 16.787 26.379 34.665 53.21 42.294 83.765 2.361 9.899 4.25 20.226 4.711 30.357.197 2.808.188 6.131.098 9.493h-.03c-.692-11.098-2.125-22.307-5.069-32.835-8.743-35.34-29.962-66.078-53.384-93.28 12.348 17.444 23.755 35.545 32.158 55.156 8.208 19.211 13.116 39.884 13.771 60.765.045 2.618.013 5.522-.065 8.574-1.793-18.273-5.591-36.251-12.541-53.362-10.742-27.386-26.973-52.231-46.258-74.186 17.021 23.261 30.838 49.099 38.912 76.707 3.85 12.503 5.964 25.442 6.854 38.489-1.443-11.748-4.875-23.829-13.415-42.851-12.223-27.5-28.988-52.514-47.366-76.114 16.08 24.827 30.534 51.021 40.14 78.966 8.853 25.408 9.81 37.404 8.921 53.229-2.17-20.448-7.512-40.531-15.541-59.371-12.261-28.922-30.194-54.84-51.27-77.321 31.176 39.132 52.923 87.548 54.047 137.434h-.624c-2.77-22.075-9.197-43.651-18.526-63.749-13.732-29.671-33.174-56.127-55.88-78.834 33.491 39.269 57.95 88.454 61.261 139.878a173.127 173.127 0 0 0-3.633-17.391c-8.852-33.578-26.97-63.589-48.34-90.373-10.618-13.289-22.068-25.814-33.97-37.838 10.948 12.898 21.373 26.225 30.845 40.144 18.062 26.27 33.044 56.152 39.449 87.476-.33-1.105-.673-2.205-1.031-3.299-17.738-53.249-61.131-90.45-97.774-130.533 11.25 14.139 23.043 27.862 34.335 41.913 26.417 32.249 52.306 70.745 55.586 112.607h-.221c-7.023-45.866-38.976-82.693-71.964-112.896-13.262-12.212-27.638-24.399-40.902-35.825-2.879-4.033-5.242-8.534-8.483-12.366 3.015 4.06 5.004 8.719 7.725 13.012 34.281 33.861 75.68 71.8 92.786 117.661a124.496 124.496 0 0 0-14.086-24.37c-17.238-23.966-40.231-43.062-62.914-61.275-14.995-11.984-30.727-24.137-44.743-36.625-4.03-5.033-9.427-8.913-11.801-15.077 1.937 6.223 7.212 10.64 10.848 15.792 13.627 13.805 28.291 26.554 42.598 39.547 28.302 25.386 57.734 54.148 69.993 89.032a120.654 120.654 0 0 0-17.698-31.448c-17.856-23.55-41.554-41.898-65.05-59.061-15.525-11.288-31.922-22.569-46.733-34.006-8.953-8.48-17.979-16.882-26.009-26.26 7.481 9.835 16.058 18.802 24.511 27.788 14.624 12.73 29.963 24.586 44.876 36.821 34.834 28.263 71.195 62.004 78.061 105.827-.216-1.009-.424-2.02-.667-3.022-4.14-17.362-12.812-33.5-23.718-47.531-26.661-33.553-64.122-56.228-99.626-78.896-3.729-2.456-17.063-10.707-20.372-13.174a144.316 144.316 0 0 1-31.66-33.484c8.415 13.886 19.184 26.623 31.847 36.9 24.775 18.132 51.134 35.653 74.228 55.595 10.263 8.772 19.919 18.17 28.301 28.28-28.811-31.878-69.14-52.383-104.159-76.453-19.924-13.861-40.894-28.008-54.053-48.915 5.799 10.883 14.325 20.102 23.295 28.507 27.015 25.058 58.849 44.308 87.747 66.961-28.044-20.313-58.907-36.446-87.219-56.179-16.448-11.81-32.606-25.013-43.101-42.663 5.831 11.189 14.157 20.964 23.298 29.671 36.644 34.472 83.33 56.556 119.541 91.309 11.214 10.734 20.499 22.104 27.184 34.433-.387-.683-.762-1.372-1.166-2.045C842.744 195.588 776.407 174.1 728.625 132.6c-11.182-11.938-26.107-22.208-35.31-36.501 4.221 7.41 9.977 13.842 15.895 19.949 5.932 6.115 12.096 11.986 17.566 18.388 26.604 25.284 58.586 44.191 87.477 66.503-25.653-18.036-52.972-33.967-77.968-52.628-20.363-14.913-39.068-32.248-54.208-52.662 14.06 21.148 32.057 39.647 51.81 55.716 24.371 20.13 50.779 37.509 75.602 56.88-30.175-22.48-63.645-39.312-91.618-64.757-16.176-14.088-32.928-28.005-43.821-46.798 9.871 19.313 26.156 34.395 41.551 49.258 7.528 7.574 15.625 14.594 24 21.279-26.923-19.298-52.443-40.044-71.045-68.18 24.627 41.94 64.659 69.631 102.271 99.353-38.861-28.335-79.492-54.623-105.8-95.908 18.113 32.241 45.19 56.65 73.502 79.853-28.835-21.621-56.842-43.981-75.565-75.518 8.178 15.79 18.72 29.593 30.562 42.295-11.586-11.368-22.334-23.565-31.564-37.278 13.483 22.901 31.236 42.21 50.19 60.504-18.875-16.474-36.847-33.774-50.459-55.121 19.268 35.125 50.555 60.81 78.604 88.965-27.612-26.529-56.393-51.853-78.435-83.462 16.366 27.072 37.679 50.369 59.125 73.541-20.973-21.547-42.575-42.495-58.747-68.076 12.191 22.653 28.649 42.316 45.29 61.848-16.203-17.873-32.459-35.662-44.876-56.48 4.799 9.569 10.442 18.659 16.524 27.473-5.691-7.248-11.182-14.619-16.228-22.266 6.448 11.697 13.899 22.835 21.557 33.853-7.293-9.685-14.608-19.288-21.426-29.003 20.042 34.204 45.135 66.369 56.743 104.645 3.123 11.132 5.2 22.493 5.181 34.009.01.565.012 1.197.01 1.865l-.033-.459c-4.132-51.231-35.177-93.764-61.953-135.557 7.083 13.479 14.438 26.831 21.301 40.373 15.257 30.055 28.399 62.57 28.033 96.492-.09-1.876-.179-3.632-.262-5.175-2.622-46.643-24.696-88.995-49.348-127.513 13.291 25.627 25.421 52.284 32.101 80.349 3.727 15.654 5.585 31.531 5.113 47.404a1465.98 1465.98 0 0 1-.232 5.838h-.097c-2.669-45.119-11.258-91.967-37.406-129.712 6.832 12.181 12.036 25.132 15.868 38.406 8.51 29.603 9.794 60.548 8.954 91.306h-.152c-.453-9.634-1.429-21.93-2.809-29.898-1.181-16.392-1.489-33.23-4.253-49.87-2.66-16.506-8.349-32.888-18.396-46.321 4.276 7.124 7.504 14.788 9.691 22.692 6.653 24.128 3.973 48.776 3.393 73.716.571 8.651.376 19.116-.055 29.681h-.316c-.474-9.595-1.287-21.646-2.474-29.728-.813-15.272 1.001-31.162.654-47.181-.217-15.879-3.318-32.325-11.954-45.827 3.524 7.087 5.781 14.689 6.84 22.404 3.232 23.876-3.797 46.36-4.933 70.629.312 8.668.016 19.136-.458 29.703h-.368c-.585-11.544-1.285-22.582-2.272-28.966 3.134-29.219 15.583-62.698-.139-90.693 3 7.075 4.556 14.63 4.796 22.17.621 23.439-9.208 44.274-13.885 67.358.085 8.829-.292 19.438-.799 30.132h-.48a2045.608 2045.608 0 0 0-2.296-34.867c-.381-3.909-.393-6.59 1.262-9.512 8.445-16.488 15.087-34.854 13.854-53.629a65.055 65.055 0 0 0-4.09-18.773 64.062 64.062 0 0 1 2.148 18.805c-.667 18.595-9.162 35.705-19.164 51-2.354 3.795-2.79 8.84-2.74 12.477-.276 10.983-.727 22.75-1.251 34.497h-.417c-.615-11.214-1.249-22.298-1.711-29.733l-.053-.917c-1.549-3.072-.852-7.614.626-11.223 11.18-22.538 29.808-45.485 20.596-72.193 1.724 7.451 1.458 15.175-.481 22.363-4.665 16.567-16.297 29.626-25.618 43.854-3.529 5.425-5.79 12.107-4.348 18.66a4750.15 4750.15 0 0 1-1.281 29.188h-.395a8157.037 8157.037 0 0 0-1.595-29.673c-.85-4.181.099-9.248 1.994-13.422.409-.731 1.551-2.761 1.963-3.514 12.4-20.553 33.289-38.217 27.475-64.897.974 8.664-.792 17.317-4.825 24.813-7.829 14.624-21.227 24.816-30.498 38.628-3.726 4.917-6.06 14.195-5.421 18.502-.334 7.414-.85 18.42-1.386 29.563h-.368c-.531-10.475-1.056-20.754-1.427-28.117-.175-2.727-.101-5.02.301-7.588 3.221-16.503 18.957-26.832 29.191-39.335 3.801-4.484 7.248-9.386 9.641-14.795 1.082-3.136 1.627-6.392 1.866-9.618.246-3.232.201-6.443.271-9.653-.385 3.188-.66 6.397-1.215 9.535-.546 3.136-1.386 6.201-2.688 9.029-2.578 4.538-6.515 9.219-10.507 13.037-13.104 12.737-31.537 22.686-35.627 42.215-.959 4.448-.889 11.25-1.213 15.765-.205 4.437-.555 11.68-.938 19.524h-.312l-1.439-29.612-.042-.863c-.493-1.351-.605-2.527-.182-4.359.356-1.602 1.167-3.487 1.899-5.869 2.832-5.724 6.992-10.928 11.756-15.725 14.551-14.538 36.158-27.68 37.42-50.455-1.191 7.047-4.316 13.583-8.77 18.95-9.167 11.01-21.855 17.709-32.837 26.93-5.656 4.692-11.069 10.176-15.107 16.855-.762 2.043-1.878 3.879-2.894 6.749-.883 2.436-1.246 5.404-.808 8.104l-1.413 29.296h-.237c-.7-14.782-1.384-29.103-1.423-29.242.02-11.201 8.11-22.176 16.021-28.595 17.487-12.238 36.151-26.217 43.917-46.979a67.75 67.75 0 0 1-8.86 13.388c-10.448 12.354-24.45 20.386-38.37 28.437-11.151 7.39-20.788 19.157-22.351 32.983l-.017.405-1.403 29.605h-.17l-1.363-29.606c-.271-2.1-.03-4.187 1.022-6.791.903-2.334 2.275-4.818 3.579-7.659 8.339-11.522 20.881-19.302 32.778-27.146 12.389-8.041 25.014-17.802 31.073-31.691-3.671 6.486-8.715 12.016-14.485 16.523-11.789 9.18-25.67 14.556-38.312 22.672-6.48 4.125-12.733 9.066-17.951 15.153-1.46 2.661-3.235 5.152-4.899 8.423-1.667 2.772-2.932 8.581-2.65 10.515l-1.362 29.606h-.087l-.985-21.941c-.042-1.02-.266-5.831-.304-6.758-.329-7.407 3.177-14.111 8.602-19.913 19.823-20.597 50.94-28.556 67.803-52.505-9.412 11.15-22.288 18.088-35.185 24.424-.771.398-1.562.798-2.362 1.2 11.861-6.542 23.292-13.659 32.311-24.009-7.104 6.695-15.301 11.977-23.952 16.273-12.944 6.722-29.117 11.98-42.917 19.79 19.755-12.394 43.285-18.934 60.955-34.642-9.866 7.223-21.003 12.125-32.359 16.451 9.238-3.872 18.261-8.326 25.605-15.137-5.81 4.628-12.542 7.787-19.408 10.378-6.888 2.587-13.975 4.641-21.065 6.834-2.729.245-5.901.794-9.223 1.569 14.323-5.345 28.979-10.161 42.096-17.526-24.705 11.289-51.876 13.686-76.3 26.223-25.564 12.738-41.006 34.622-38.082 62.382-4.832-21.522 2.809-39.695 20.917-53.61 24.548-19.354 57.683-20.499 85.176-33.968-14.448 5.649-29.669 8.122-44.759 11.336 11.997-3.528 24.132-6.698 35.959-10.657-20.446 5.161-41.452 7.878-61.697 14.101-29.129 8.964-57.101 24.233-60.463 57.823a68.862 68.862 0 0 0-.387 7.131 145.124 145.124 0 0 1-.191-4.765c-.29-12.203 1.269-24.145 8.606-33.84 12.92-15.801 35.032-23.75 54.513-28.251 16.739-4.071 34.203-6.065 50.501-11.911-16.766 4.621-34.119 5.267-51.243 8.099-20.649 3.134-42.261 9.473-58.074 23.935-11.256 10.594-15.408 27.112-15.952 41.767-.377 6.527-.231 13.134-.056 19.719h-.381c-.799-13.109-.908-26.117 1.799-39.012 4.436-22.55 26.039-38.715 47.974-43.487 10.547-3.46 21.644-5.368 32.863-6.707 11.124-1.368 22.387-2.356 33.418-4.56-22.472 2.741-45.177.786-67.397 6.485-11.057 1.439-24.618 6.67-34.503 14.24-8.398 6.258-15.57 14.724-19.797 24.457-4.218 10.699-6.104 21.904-6.938 33.251-1.191-19.81.428-38.698 16.729-52.005 28.356-23.096 66.581-25.629 101.817-27.49-27.202-.452-55.368-.787-81.509 8.495-.782.289-1.546.584-2.31.879 22.574-11.101 48.154-14.753 73.315-11.308-22.38-4.541-46.591-4.035-68.439 3.863-42.22 13.309-65.954 47.523-69.045 87.162-.026-5.745.414-11.489 1.389-17.174 5.878-32.968 25.115-58.392 56.503-71.013 21.603-8.829 45.764-10.85 68.786-5.684-22.625-6.791-47.823-6.418-70.471 1.132-37.878 12.116-60.781 43.272-67.354 79.019a112.203 112.203 0 0 1 8.423-31.149c18.375-44.409 73.121-64.531 118.295-52.707-46.361-15.577-104.807 3.103-127.104 48.625-3.844 7.465-6.82 15.17-9.023 23.027.361-6.445 1.054-12.836 2.236-19.158 1.786-27.49 19.397-44.303 44.976-51.951 24.766-7.403 51.467-7.258 77.158-5.192-12.913-1.953-25.961-3.246-39.095-3.451-32.414-.755-72.608 6.475-87.375 39.41-2.791 5.572-5.248 15.601-5.657 19.564-2.832 10.875-4.114 22.009-4.762 33.199-.567-14.287-.368-28.516 2.953-42.492 1.05-5.9 2.716-11.677 5.375-17.007 7.962-16.466 24.168-26.536 41.641-31.57 23.937-6.834 49.692-6.55 74.317-3.233-12.323-2.533-24.88-4.115-37.532-4.536-31.357-1.198-68.93 5.697-85.771 35.391-3.371 5.846-5.75 12.228-7.294 18.743-2.029 6.139-3.985 16.332-4.736 23.916-1.507 13.07-1.35 26.652-1.468 40.029h-.126l-.049-.829c-.721-11.081-1.097-21.951-.809-32.729-3.475-21.663 2.403-43.968 18.306-59.529 27.353-26.354 69.247-33.174 105.852-26.841-14.895-3.739-30.488-4.866-45.93-3.603-36.895 2.705-75.255 21.692-86.486 58.448 5.081-25.714 21.427-46.165 46.433-57.422 22.267-9.768 47.73-10.999 71.178-4.355-19.871-6.957-42.08-8.298-62.632-2.976-37.693 9.501-62.869 38.782-66.889 77.454-2.391 5.945-5.448 18.783-7.234 30.297.983-10.145 2.866-20.302 5.307-30.357l.021-.58.176-4.928c-.071-2.84.637-6.987.964-9.813l.157-1.227.276-1.198c1.904-9.644 5.714-19.089 11.201-27.278 21.906-32.476 65.231-44.076 102.457-36.553-16.812-4.436-34.908-5.081-52.061-1.531-14.811 2.983-29.05 9.26-41.055 18.467-4.855 4.036-9.606 8.289-13.493 13.295-.556.685-2.038 2.526-2.571 3.186-.562.797-3.187 4.784-3.781 5.693-7.525 12.212-11.523 26.499-12.469 40.823-3.152 10-5.612 20.325-7.213 30.796 1.141-10.123 3.174-20.257 5.305-30.343-1.607-42.462 25.938-78.545 67.897-87.149 13.393-2.898 27.442-2.959 41.105-.592-13.489-3.199-27.666-4.045-41.567-1.923-47.493 6.872-76.614 46.612-77.49 88.309a230.954 230.954 0 0 0-6.153 24.362c1.102-7.44 2.562-14.883 4.241-22.314l.195-.866-.035-.574c-3.179-40.064 18.95-81.728 59.418-92.7 13.01-3.707 26.972-4.025 40.484-1.728-13.338-3.121-27.466-3.721-41.1-.738-45.9 9.663-69.755 55.589-68.803 94.059-4.023 13.215-7.095 26.936-8.766 40.825.961-13.199 3.523-26.384 7.39-39.199-3.238-37.792 9.886-83.485 48.583-97.966 12.288-4.704 25.891-5.655 39.143-4.27-13.129-2.205-26.933-2.166-39.959 1.896-41.171 12.576-58.291 59.179-57.862 98.93-6.231 17.028-10.074 35.048-11.104 53.237-.058-3.118-.033-6.24.111-9.362.649-14.38 3.494-28.776 8.015-42.674.866-40.672 9.426-95.938 56.031-106.776 6.091-1.437 12.396-2.028 18.711-2.036-6.299-.4-12.67-.225-18.954.833-48.499 8.069-61.781 64.15-65.495 106.035-3.692 9.469-6.639 19.296-8.68 29.362a158.57 158.57 0 0 1 6.623-26.112c8.492-36.648-.238-94.509 41.436-111.703 5.499-2.231 11.382-3.537 17.335-4.256-5.985.321-11.987 1.227-17.75 3.126-18.428 5.71-29.693 21.951-35.321 39.651-7.618 22.837-8.77 47.494-14.891 70.362-6.509 14.59-10.963 32.808-12.458 51.297.031-2.167.097-4.334.238-6.5.891-14.073 4.137-28.094 9.193-41.526 5.498-22.225 8.616-44.848 10.379-67.419.201-2.739.644-9.885 1.094-12.457a57.235 57.235 0 0 1 6.933-19.228c5.481-9.561 14.086-17.519 24.543-21.781-17.761 5.72-31.011 22.217-35.23 40.26-4.073 26.273-8.414 52.831-16.755 77.949-4.702 9.657-8.35 20.906-10.73 32.763a134.63 134.63 0 0 1 6.323-23.617c10.472-25.631 11.885-54.117 12.631-81.184l.427-13.561c.163-4.473.162-8.867 1.426-13.196 2.322-8.665 8.126-16.025 14.68-22.042-3.532 2.824-6.872 5.935-9.745 9.495-2.857 3.557-5.265 7.569-6.788 11.965-1.612 4.309-2 9.034-2.478 13.571-2.871 26.621-4.614 54.094-13.923 79.119-1.503 4.168-3.376 8.187-5.238 12.212-5.664 12.558-9.503 25.912-11.423 39.549 1.025-11.689 3.67-23.25 7.965-34.245 1.096-2.927 2.473-6.154 3.807-9.019 17.002-39.106 9.507-82.089 13.075-123.122-2.824 17.558-3.627 35.421-5.166 53.06-1.986 23.041-5.343 45.832-16.019 66.205-6.762 11.976-11.66 24.946-14.581 38.352.409-5.667 1.318-11.306 2.826-16.85 6.356-17.749 18.423-48.453 21.894-68.613 3.719-23.608 3.988-49.879-9.443-70.535 11.726 21.287 9.608 46.672 4.325 69.449-5.076 19.996-18.188 47.109-26.631 66.21-3.924 11.078-5.849 22.943-5.832 34.786-2.107-21.882 4.945-40.75 15.201-60.536 13.909-22.541 23.811-55.492 13.859-82.766-3.264-9.033-8.761-17.121-15.67-23.539 13.09 13.682 18.104 33.203 15.531 51.623-2.192 17.121-9.14 33.453-18.734 47.693 9.223-16.373 15.043-35.162 13.75-54.058-.994-15.305-7.966-30.019-19.742-39.885 5.292 5.28 9.621 11.52 12.386 18.447 4.449 11.21 4.963 23.085 2.861 34.661.972-8.204.357-16.427-2.478-24.154-3.25-9.017-9.663-16.607-17.484-21.956 15.515 12.033 20.425 31.145 15.214 49.656-4.556 17.07-15.191 32.25-28.312 43.816 7.037-8.951 13.565-18.302 18.604-28.558 9.998-20.043 10.164-40.652-7.12-56.638 15.416 16.642 14.146 35.894 3.039 54.471-10.172 17.197-24.701 31.086-38.646 45.388-4.725 5.854-8.766 12.02-11.587 19.144l-.256.661-.042 1.104-.977 25.348-.983-25.089c.141-1.934.718-4.087 1.595-6.242 1.931-4.661 4.979-9.285 8.33-13.148 12.765-15.09 28.872-27.719 39.999-44.474 10.935-16.099 11.859-32.953-1.099-48.221 11.214 15.535 9.555 31.291-2.167 45.897-12.755 16.209-30.379 27.554-44.702 42.54-5.966 6.546-11.172 13.769-12.627 22.913l-.007.058-.019.473-1.032 26.358c-.558-13.572-1.069-25.875-1.101-25.988.105-2.529.111-4.82.32-6.833.199-1.995.605-3.636 1.284-4.848 11.4-14.731 27.978-25.519 41.4-38.765 15.109-14.437 24.617-31.616 17.466-52.707 5.273 20.825-4.873 36.512-20.607 49.235-15.082 12.653-32.63 21.796-46.018 36.974-3.409 4.762-3.812 11.25-4.362 16.579l-1.073 26.896a6948.202 6948.202 0 0 0-1.214-27.434c-2.286-20.626 22.692-32.191 37.133-42.091 18.235-11.649 37.895-27.118 33.345-51.396 1.841 17.338-8.488 29.95-22.335 38.822a129.97 129.97 0 0 1-4.786 3.006c11.113-8.226 20.629-19.508 22.062-33.656-2.922 15.688-15.61 26.673-29.125 33.809-6.743 3.722-13.726 6.907-20.643 10.258 17.114-9.046 33.948-18.469 42.112-36.79-11.507 21.141-35.467 28.463-56.143 37.675-8.915 4.054-18.327 8.654-25.849 15.397-4.703 4.531-8.307 10.541-9.945 16.812-3.278 11.728-1.878 23.889-2.569 35.699-.026.41-.053.865-.079 1.331-.164-3.672-.376-7.292-.719-10.285-.935-10.104-2.904-20.537.143-30.252.678-2.591 3.26-6.662 4.169-7.859 5.33-5.522 11.734-10.11 18.65-14.033 20.929-11.774 46.515-18.63 61.84-38.439-11.202 12.104-26.474 18.469-41.688 23.939-9.91 3.594-20.062 7.188-29.424 12.248 18.204-12.125 39.631-20.095 58.02-31.763-11.068 5.645-22.662 10.017-34.17 14.726-29.401 11.827-64.701 28.013-64.672 65.012-.042 4.686.46 9.302 1.301 13.82-4.839-15.303-4.19-31.651 6.109-44.745 18.677-23.107 50.125-32.863 76.042-45.972-11.339 4.374-22.871 8.155-34.265 12.524-29.754 11.152-62.078 28.305-61.8 64.775-.008 4.751.511 9.438 1.36 14.029-12.221-36.522 11.959-62.663 44.002-77.903 10.636-5.115 21.905-9.062 33.448-12.025-11.762 1.93-23.418 4.871-34.695 9.108-29.52 10.804-57.303 32.867-56.831 67.173.013 4.631.515 9.226 1.367 13.732-7.022-20.357-2.847-42.527 11.656-58.726 14.94-17.142 37.043-27.458 59.439-31.292-11.572.896-23.1 3.499-34.027 7.903-28.767 11.272-52.039 36.495-51.144 68.935.073 4.576.595 9.131 1.469 13.604-6.409-19.392-3.29-41.345 8.626-58.238 12.338-18.018 32.814-29.833 54.427-33.38-11.113.815-22.194 3.659-32.408 8.629-31.628 14.927-50.009 49.355-43.145 83.798-6.74-18.694-5.32-40.026 4.808-57.426 10.334-18.171 28.75-31.175 48.977-36.688-32.568 5.176-61.765 30.832-67.022 64.245-1.832 10.57-1.327 21.562 1.099 32.091h-.158l-.045-.856c-2.562-9.479-3.935-19.341-3.836-29.226-.028-31.327 7.642-46.255 33.916-65.066C.411 208.49-.096 272.49 1.438 282.66H0V300h1920v-14.106c-.926-5.834-2.153-15.68-3.085-26.213-3.408-38.5.254-66.775-1.021-66.894zM26.541 285.889l-.013-.244.057.244h-.044zm63.706-21.798c-.011 7.094.491 13.927.029 20.856l-.005-.125-.229-.661c-5.842-15.915-5.481-32.488 5.155-46.006-4.064 7.863-5.114 17.284-4.95 25.936zm25.4 17.184c-.728-17.068-5.659-36.27 9.635-48.31 2.844-2.372 5.886-4.546 9.057-6.593-3.284 2.257-6.761 5.139-9.563 8.581-10.435 13.066-9.258 30.632-9.129 46.322zm13.724-24.985c-.25 6.921-.625 16.972-1.024 27.343-.921-14.663-4.841-30.482 3.456-43.485 1.529-2.063 3.239-3.935 5.072-5.677-5.12 6.479-8.104 14.988-7.504 21.819zm48.897.62c1.686-5.257 5.86-12.354 7.908-15.389 2.447-2.924 4.925-5.847 7.396-8.791-8.213 12.285-13.514 26.321-14.662 41.115l-.642-16.935zm13.274 24.543c-2.041-19.481 4.748-38.407 16.693-54.146a77.91 77.91 0 0 0 1.347-1.307c-7.43 11.134-13.399 23.279-16.124 36.57-1.28 5.394-1.861 13.206-1.916 18.883zm18.825-37.295c2.775-7.098 6.58-13.584 10.617-20.013-9.277 16.235-16.168 33.631-16.817 52.524a80.234 80.234 0 0 1 6.2-32.511zm146.069 41.731h-2.939a140.75 140.75 0 0 1-.177-10.068c.136-11.126 1.771-22.291 4.108-33.352-.114 3.741-.014 7.483.286 11.196-1.165 8.26-1.239 20.064-1.278 32.224zm76.855-22.337c-.387 7.41-.208 14.892-.075 22.337h-4.548c-.354-7.054.008-14.125 1.233-21.098a88.337 88.337 0 0 1 5.662-19.271c-1.264 5.423-2.016 11.402-2.272 18.032zm49.089 12.201c-3.022-20.705 4.055-36.85 20.037-48.993-10.874 9.772-18.587 22.496-19.898 38.041-.356 3.657-.38 7.321-.139 10.952zm26.001 5.593c-4.649-17.367-.123-34.45 13.022-47.321 2.715-2.698 5.592-5.128 8.591-7.361-9.222 8.02-16.491 18.217-19.858 30.271-2.27 7.907-2.707 16.277-1.755 24.411zm67.473-71.096c-7.72 3.031-15.328 6.361-22.496 10.695-16.4 10.258-30.7 26.049-32.644 46.035-.488 4.783-.346 9.595.277 14.309-8.789-35.41 21.793-63.749 54.863-71.039zm-39.894 45.605-.017.406-1.256 28.836-.008-.182c-4.919-14.168-3.156-28.12 4.495-39.953-1.635 3.387-2.778 7.085-3.214 10.893zm12.415 7.892c-.138 3.161-.542 12.188-.986 22.087-.639-14.71-1.263-28.944-1.301-29.197.185-9.777 6.895-18.144 14.479-24.036a99.6 99.6 0 0 1 2.228-1.71c-7.695 6.744-13.311 15.086-14.116 26.052-.029.933-.275 5.746-.304 6.804zm201.962 22.142c-.451-4.349-.983-8.705-1.82-12.945-.636-2.306-1.865-7.53-2.541-9.771-.667-1.963-2.518-7.33-3.207-9.345a153.407 153.407 0 0 0-5.515-12.608c4.902 8.594 9.151 17.51 12.408 26.847a208.091 208.091 0 0 1 1.16 17.822h-.485zm26.101 0h-1.219c-1.138-7.862-2.829-15.637-5.334-23.17l.158.688c-.792-3.946-2.054-7.87-3.772-11.47-2.542-5.35-5.657-9.877-9.051-14.476a255.347 255.347 0 0 0-5.814-7.528c4.746 5.539 9.378 11.162 13.83 16.92 7.709 10.052 10.761 22.848 11.419 35.469a416.29 416.29 0 0 1-.217 3.567zm15.857-33.051c-.327-.509-.673-1.001-1.004-1.507a37.166 37.166 0 0 1 4.238 6.422c-.995-1.67-2.27-3.462-3.234-4.915zm33.827 33.051c-2.638-16.695-8.434-30.321-17.919-43.353l.753.76c7.963 9.4 16.52 21.427 17.066 33.232.567 3.11.906 6.23 1.079 9.36h-.979v.001zm24.699-7.86a99.903 99.903 0 0 0-2.119-6.823 92.466 92.466 0 0 1 1.778 4.625c.141.784.266 1.568.379 2.354-.013-.052-.024-.104-.038-.156zm-20.748-52.759c2.844 2.514 5.664 5.058 8.426 7.677 1.968 1.968 7.469 7.472 9.351 9.345 5.382 6.701 8.962 13.669 11.341 20.893-7.316-14.283-17.503-26.958-29.118-37.915zm310.302 24.777c-5.019-7.567-10.663-14.528-16.669-21.139 13.708 14.336 25.924 31.989 30.424 49.354-3.265-10.102-8.036-19.598-13.755-28.215zm15.978-8.37c3.459 3.812 6.738 7.776 9.752 11.964 4.028 5.643 7.399 11.706 9.887 18.09-4.872-11.285-11.679-21.106-19.639-30.054zm198.704 44.212c-3.259-9.63-7.831-18.763-13.456-27.198 5.923 8.257 10.564 17.275 13.477 27.198h-.021z" />
	</g>
</svg>
