<svg preserveAspectRatio="xMidYMid meet" data-bbox="25 24 150 152" viewBox="25 24 150 152" height="200" width="200" xmlns="http://www.w3.org/2000/svg" data-type="color" role="img" aria-label="ONLYFANS MANAGER JOBS">
	<g>
		<path d="M171.409 78.447s-22.258.513-37.758-4.113c-15.501-4.627-25.437-23.926-25.437-23.926s-6.939 2.842-10.011 10.178c-3.072 7.336-2.277 10.509-7.245 13.483s-9.936-1.19-9.738-5.453c.199-4.263 1.292-12.69 6.061-20.224 0 0-10.393 1.624-14.557.793-2.236-.446-4.392-1.743-5.465-3.445-1.474-2.338-1.01-5.627 1.341-6.865 3.577-1.884 10.442-3.866 10.442-3.866s-4.182-2.181-3.188-6.742c.994-4.56 6.558-4.263 8.545-4.263s26.513 0 34.62 1.586c8.107 1.586 27.813 16.582 27.813 16.582l28.088.767c-.001.001.927 22.14-3.511 35.508z" fill="#F8AD96" data-color="1">
		</path>
		<path d="M87.984 48.027c4.482-8.541 12.69-14.393 22.233-15.887.756-.118.435-1.265-.317-1.147a31.435 31.435 0 0 0-22.945 16.433c-.357.678.672 1.28 1.029.601z" fill="#000000" data-color="2">
		</path>
		<path d="M79.216 34.86a1752.816 1752.816 0 0 0 38.693-8.207c.748-.168.432-1.315-.317-1.147a1752.816 1752.816 0 0 1-38.693 8.207c-.752.15-.434 1.297.317 1.147z" fill="#000000" data-color="2">
		</path>
		<path d="M67.301 42.318c2.865-.604 5.776-1.203 8.412-2.522 1.698-.85 4.258-2.242 4.143-4.437-.04-.762-1.233-.766-1.192 0 .122 2.321-4.517 3.92-6.165 4.453-1.803.584-3.662.967-5.515 1.358-.75.159-.432 1.306.317 1.148z" fill="#000000" data-color="2">
		</path>
		<path d="M76.509 28.097c3.893.605 11.184 1.017 13.421-3.153.362-.675-.667-1.276-1.03-.6-1.915 3.57-8.74 3.125-12.074 2.606-.75-.117-1.074 1.029-.317 1.147z" fill="#000000" data-color="2">
		</path>
		<path d="M109.239 51.233a35.72 35.72 0 0 1 8.189-.474c.767.042.764-1.147 0-1.19a37.122 37.122 0 0 0-8.506.516c-.755.134-.435 1.28.317 1.148z" fill="#000000" data-color="2">
		</path>
		<path d="m59.711 176 10.599-18.77s48.556-25.38 51.934-27.164c3.378-1.785 3.378-5.552 2.385-8.03 0 0 3.08-3.437 1.822-7.402-1.259-3.966-6.161-4.164-6.161-4.164s.589-3.759-2.948-6.048c-2.451-1.586-5.995-.958-5.995-.958l-34.281 5.486s.298-3.47-2.882-4.759c-3.18-1.289-24.046 1.785-30.207 6.048-6.161 4.263-10.135 12.591-8.347 24.091-.495.494-10.63 20.223-10.63 20.223S30.333 173.852 59.711 176z" fill="#F8AD96" data-color="1">
		</path>
		<path d="M67.302 127.254c3.333-.614 7.713-1.416 10.828.439.661.393 1.261-.635.602-1.027-3.43-2.043-8.052-1.24-11.747-.559-.754.139-.435 1.285.317 1.147z" fill="#000000" data-color="2">
		</path>
		<path d="m56.52 114.778 20.199-5.026c.744-.185.429-1.333-.317-1.147l-20.199 5.026c-.744.185-.429 1.333.317 1.147z" fill="#000000" data-color="2">
		</path>
		<path d="M100.482 126.686c3.612-1.57 7.325-2.87 11.148-3.83 3.764-.945 8.778-2.531 12.438-.72.685.339 1.29-.687.602-1.027-3.518-1.741-7.584-.694-11.24.104-4.666 1.017-9.174 2.544-13.549 4.446-.703.305-.097 1.33.601 1.027z" fill="#000000" data-color="2">
		</path>
		<path d="m91.946 117.909 27.966-6.959c.744-.185.429-1.333-.317-1.147l-27.966 6.959c-.744.185-.429 1.333.317 1.147z" fill="#000000" data-color="2">
		</path>
		<path d="M85.771 114.37c6.772 3.914 12.378 9.285 16.563 15.883.409.645 1.441.049 1.03-.6a49.103 49.103 0 0 0-16.99-16.31c-.666-.385-1.267.643-.603 1.027z" fill="#000000" data-color="2">
		</path>
		<path d="M58.617 136.416c5.973-4.861 10.945-10.92 12.039-18.75.105-.749-1.044-1.072-1.15-.316-1.069 7.646-5.905 13.483-11.732 18.225-.595.483.253 1.321.843.841z" fill="#000000" data-color="2">
		</path>
		<path d="M61.341 153.093c2.152 2.405 5.032 3.808 8.243 4.092.764.068.76-1.122 0-1.19-2.902-.257-5.465-1.581-7.4-3.744-.512-.572-1.353.272-.843.842z" fill="#000000" data-color="2">
		</path>
		<path d="M81.344 58.197c-11.338 1.519-24.006 5.026-30.448 15.319-7.75 12.382-4.946 29.047 8.289 36.344 6.802 3.75 14.802 4.986 22.478 5.055.767.007.768-1.183 0-1.19-7.691-.069-15.868-1.305-22.584-5.294-8.393-4.985-12.698-14.545-11.059-24.106 2.857-16.661 18.238-22.917 33.323-24.938.751-.101.761-1.292.001-1.19z" fill="#000000" data-color="2">
		</path>
		<path d="M81.02 110.024v5.552c0 .766 1.192.767 1.192 0v-5.552c.001-.765-1.192-.767-1.192 0z" fill="#000000" data-color="2">
		</path>
		<path d="M81.02 57.811v5.552c0 .765 1.192.767 1.192 0v-5.552c.001-.766-1.192-.767-1.192 0z" fill="#000000" data-color="2">
		</path>
		<path d="m81.617 114.965-7.718 4.12c-1.087.58-.674 2.225.559 2.225h14.318c1.233 0 1.646-1.645.559-2.225l-7.718-4.12z" fill="#000000" data-color="2">
		</path>
		<path fill="#227182" d="M107.551 86.462c0 14.29-11.611 25.875-25.934 25.875s-25.934-11.585-25.934-25.875 11.611-25.875 25.934-25.875 25.934 11.585 25.934 25.875z" data-color="3">
		</path>
		<path d="M81.617 60.588a25.854 25.854 0 0 0-14.744 4.586c2.945 2.564 6.761 4.634 11.482 2.718 1.526-.619 2.886-1.505 4.4-2.141 1.967-.833 4.066-1.344 6.093-2.028.96-.321 1.914-.684 2.814-1.118a25.896 25.896 0 0 0-10.045-2.017z" fill="white" data-color="4">
		</path>
		<path d="M75.269 82.925s2.377 6.156-2.646 9.218c-5.023 3.062-8.551 1.58-10.077-1.597-1.526-3.178-2.089-9.489 3.06-14.081 4.915-4.384 11.165-6.299 12.637-2.345 1.471 3.953-1.906 5.103-2.974 8.805z" fill="white" data-color="4">
		</path>
		<path d="M72.161 97.412c-1.263 2.64-1.112 6.633 3.266 8.866 4.379 2.233 8.394 3.06 10.734.037s-4.552-11.178-6.285-12.914c-1.732-1.736-6.044.517-7.715 4.011z" fill="white" data-color="4">
		</path>
		<path d="M107.551 86.464c0 1.398-.113 2.772-.328 4.104-1.312-.214-2.576-.749-3.38-1.88-2.319-3.272-4.304-4.2-9.211-4.664-4.901-.458-7.75-6.276-4.173-11.165 2.492-3.414 6.826-4.574 9.217-4.967 4.858 4.7 7.875 11.285 7.875 18.572z" fill="white" data-color="4">
		</path>
		<path d="M121.992 61.049s-1.457 7.865-8.015 11.038-10.864 4.11-13.116 7.144c-2.252 3.034-2.186 5.083-1.06 7.231 1.126 2.148 4.571 2.941 9.87 2.346s29.279-5.221 37.427-12.888c8.147-7.667-25.106-14.871-25.106-14.871z" fill="#F8AD96" data-color="1">
		</path>
		<path d="M101.717 88.177c3.684-1.155 10.32-3.51 13.639-.761.586.486 1.434-.352.843-.841-3.884-3.216-10.564-.873-14.799.455-.73.228-.418 1.377.317 1.147z" fill="#000000" data-color="2">
		</path>
		<path d="M122.478 58.242a11.93 11.93 0 0 1-2.766 6.713c-.488.584.351 1.43.843.841 1.825-2.182 2.873-4.722 3.115-7.555.066-.762-1.127-.758-1.192.001z" fill="#000000" data-color="2">
		</path>
		<path d="M146.768 76.979c3.267-1.139 6.614-3.317 8.298-6.408.367-.673-.663-1.274-1.03-.6-1.531 2.809-4.609 4.823-7.585 5.861-.72.251-.41 1.401.317 1.147z" fill="#000000" data-color="2">
		</path>
	</g>
</svg>
