<svg xmlns="http://www.w3.org/2000/svg" id="comp-lhf22tlw1-top" preserveAspectRatio="xMinYMax meet" data-bbox="0.003 116.114 1920 184.044" viewBox="0.003 116.114 1920 184.044" height="100%" width="100%" data-type="shape">
	<defs>
		<style>
			#comp-lhf22tlw1-top { fill: #FFFFFF; }
		</style>
	</defs>
	<g>
		<path d="m314.666 203.346-.042-.042c.048.054.095.111.143.166.011.003.02.002.032.005-.001.001-.081-.078-.133-.129z" />
		<path d="m342.615 210.342.05.283.135-.118-.185-.165z" />
		<path d="m148.553 140.7.172-.047c-.004-.041-.014-.077-.015-.121l-.157.168z" />
		<path d="m200.001 189.117-.144.14.242-.035c-.024-.044-.046-.092-.072-.132l-.026.027z" />
		<path d="m542.048 217.79.182.004a10.173 10.173 0 0 1-.013-.167l-.169.163z" />
		<path d="m461.561 213.32.136-.105.01-.037-.146.142z" />
		<path d="M688.449 194.239a2.285 2.285 0 0 0-.035-.036l.027.151.137.023-.129-.138z" />
		<path d="m481.962 221.365-.066.064-.064.062.124-.049.047-.117-.041.04z" />
		<path d="m129.307 142.823.235-.09c-.021-.026-.042-.053-.063-.077l-.172.167z" />
		<path d="M314.799 203.476h-.001.001z" />
		<path d="m722.002 186.144-.121-.093c.025.051.055.091.082.139l.111.01-.072-.056z" />
		<path d="M51.605 236.944c.091-.018.185-.021.277-.031-.035-.045-.069-.093-.105-.135l-.172.166z" />
		<path d="m41.135 199.592-.033-.17a4.79 4.79 0 0 0-.124-.01l.157.18z" />
		<path d="m27.69 219.754.227-.102c-.019-.026-.042-.048-.061-.075l-.166.177z" />
		<path d="M6.729 240.813s0 .001 0 0l.12.125-.12-.125z" />
		<path d="m39.876 244.15.142.189.016-.001-.158-.188z" />
		<path d="M331.875 233.31c.074-.015.146-.015.219-.027-.02-.05-.046-.094-.066-.145l-.153.172z" />
		<path d="m1323.314 180.981.165.171.149-.172-.314.001z" />
		<path d="m1850.963 211.376.087.08-.087-.08z" />
		<path d="m1851.133 211.532-.084-.077.087.079-.003-.002z" />
		<path d="M1553.589 133.95c-.028.006-.056.006-.083.012-.033.049-.069.092-.1.144l.183-.156z" />
		<path d="m1839.452 214.964.086.079-.066-.144-.117-.025.097.09z" />
		<path d="m1205.406 248.664-.129.109.091-.043c.03-.037.06-.077.09-.11l-.052.044z" />
		<path d="m762.698 192.283.245.006-.074-.171-.171.165z" />
		<path d="m770.291 202.693-.029-.026.029.026z" />
		<path d="m768.898 201.242-.036-.045.036.045z" />
		<path d="m1914.674 295.391-.039 1.639c-1.891.646-1.635-1.677-3.018-1.885l-2.766.562c-1.66-.786-1.091-2.133-1.029-4.231l3.073-2.599 1.559.673c2.315.049 5.061-2.07 7.545-2.202v-14.849c-1.238-.636-2.965 1.728-4.074 1.052.743-1.846 2.723-1.497 4.074-1.522v-24.553c-4.836-.372-9.868-2.62-14.419-4.609l-1.338-1.773c-1.864-.389-3.558-1.182-5.093-.946-1.675.259-3.237.697-4.89.091l-1.851-2.154.022-.013c-.794-1.357-1.926-1.451-3.348-.824l-1.256 2.911c-3.155.514-6.323.005-9.481-.091-.202-.006-.392-.427-.671-.754l3.305-1.611 3.155.675c.505-.93 1.437-1.595 1.008-2.733l-5.296-1.392c-1.567.306-2.993.628-4.433.855-1.64.259-3.293.434-5.555.724l-4.301-2.031c-2.51.227-2.51.227-4.381-1.562l10.601-1.905-.372-2.74c1.303-.531 2.666-1.052 4-1.64 1.522-.67 3.019-1.399 4.651-2.161 1.891-.061 3.823 1.285 6.031.357.671-2.572 3.91-.779 5.032-2.534l-1.322-7.539-2.196-1.138c-2.292 1.306-4.39 2.604-6.592 3.691-.632.312-1.755-.297-2.326.052-1.641 1.001-2.731-1.003-3.972-.619l-1.934 2.231c-1.972-2.906-4.896-2.824-7.229-3.757l-3.352 2.153-2.161-.806-1.329 1.569c.804 1.116 1.021 1.783 1.064 3.241l-4.282-2.584-3.115 3.507-1.127-3.203c-.9.514-1.077 2.1-2.645 1.43-1.187-1.674-.871-3.494-.338-5.262l1.148-.757.003.005c.464-.42.935-.833 1.383-1.27.382-.373.727-.784 1.088-1.179l.003-.001c-1.355-1.22-2.923-.2-4.388-.314-2.81-.22-5.522-.099-8.426.998l1.3 2.846c2.252.461 2.268.505 2.37 2.805l-1.956 2.089-7.071 1.509-1.983-2.242-8.779-2.323c-.998-3.596-5.747-2.57-7.831-5.593l3.534-1.147c.432-.625.95-1.545 1.636-2.315.666-.747 1.503-1.341 2.364-2.087l-1.847-3.616-7.167-1.283-1.542-1.226-1.956.232-3.246-3.195-4.465-.496-9.779-7.589-3.443-.561c-1.203-.843-1.967-1.539-1.48-3.063l4.11-.831c-1.694-2.993-5.08-3.707-7.16-6l-2.892-.397a18961.99 18961.99 0 0 0-4.239-3.579c-3.246.162-6.37-.85-9.05-2.455-2.417-1.448-4.955-2.263-7.189-3.212l-2.717.579c-9.465-4.491-16.589-6.917-26.416-9.072-2.098-.46-4.045-1.277-5.61-2.847-.212-.213-.684-.166-.733-.177l-1.271 1.632-7.057-.166c-3.795-1.735-6.956-4.404-11.144-4.481-1.773 3.777-2.658 6.962-1.941 7.822l4.495.615c1.272 2.445 2.945 4.867 5.661 6.084l2.602-1.01.838 1.324-1.519 2.021c3.102.986 6.063 2.28 9.15 2.758 1.552.24 3.234-.063 4.822.564.318.125.812-.181 1.219-.304.408-.122.809-.264 1.214-.395l1.715 1.72 2.601-.106c-.048 2.035-.041 3.919-.194 5.79-.022.27-.813.478-1.457.827l.319-2.811-1.477-.457c-1.314.339-.987 2.278-2.79 1.766l.155-1.699-3.61-1.599c1.728 2.983.149 4.857-.677 7.092l-2.175-.051-1.371-1.604-1.458 1.275-1.126-2.663c-1.113-.026-2.167.121-3.133-.106-3.146-.738-6.265-1.236-9.414-.073-1.601-.893-3.273-.076-4.911-.2-11.172-.843-22.113-3.533-33.322-4.142-2.276-.123-4.528-.988-6.751-1.645-.716-.211-1.482-.75-.977-2.119 1.351-.015 2.839.086 4.295-.082 1.441-.166 2.85-.604 4.105-.885 1.116.309 1.958 1.47 3.021.324l-.153-1.477c-5.192-.25-10.228-1.924-15.583-2.012-4.646-.076-9.27-1.174-13.922-1.342-13.217-.479-26.443-.708-39.665-1.051-1.917-.05-4.187.426-5.656-.433-1.862-1.088-3.64-.247-5.424-.76l-.975-1.994c3.915-.021 7.464-.865 11.172-.882 3.776-.017 7.548-.852 11.359-1.334l3.178-1.772c.961.418 1.784.673 2.502 1.104 3.975 2.388 8.145 3.628 12.787 2.353.206-.056.465-.236.605-.167 3.04 1.494 6.286.615 9.43.886 1.01.087 1.977.66 2.782.947 3.753-.903 7.271-1.307 10.81.152.95.392 2.074.414 3.126.5 4.207.343 8.537-.482 12.585 1.42.535.251 1.265.087 1.904.118.853.04 1.706.066 2.558.125 5.044.352 10.091.68 15.13 1.09 1.257.102 1.895-.16 1.71-1.646-1.982-.189-4.086.088-5.732-.654-2.685-1.21-5.408-1.001-8.142-1.187-2.519-.171-5.043-.264-7.426-.385l-.516-1.819c.841-.102 1.804-.536 2.371-.232 2.388 1.28 4.884 1.333 7.444 1.039.371-.043.703-.424 1.348-.837l-.709-3.127c-3.485-1.397-6.855.698-10.014-1.165l-2.725 3.25c-.82-.482-1.825-.855-2.527-1.54-.875-.852-1.501-1.961-2.297-3.043-3.492.221-6.672-1.343-10.124-.681l-3.04-2.129c-1.772-.147-3.534-.053-5.153-.489-2.051-.553-3.911-1.071-6.173-.687-1.984.337-4.164-.741-6.261-.756-3.671-.027-7.127-.772-10.561-2.001-4.618-1.653-9.413-2.982-14.323-2.258-3.531.52-6.959.343-10.446.115-1.184-.078-2.574.508-3.537.066-1.866-.858-3.752-.724-5.639-.788-4.263-.146-8.533-.123-12.796-.266-3.831-.128-7.66-.346-11.485-.597-3.896-.255-7.773-.877-11.693-.15-.795.148-1.793.046-2.498-.323-2.406-1.258-4.984-.957-7.518-1.068-3.196-.14-6.394-.213-9.589-.366-.377-.018-.737-.362-1.345-.679-.327-1.555-2.34-2.941-.829-5.026.189-.146.335-.323.521-.393 3.027-1.133 6.194-1.234 9.376-1.484 1.84-.144 3.573-1.456 5.425-1.69 1.97-.249 4.005-.086 5.988-.474.845-1.281 2.1-1.762 3.577-1.775l2.106 1.571 3.708-2.23c2.549.06 5.601.552 8.489.066 2.287-.385 4.611-.6 6.867-1.08 2.234-.475 4.467-.045 6.742-.608 2.129-.526 4.558.162 6.836.314l6.732-1.123 2.667-1.917c1.409.377 2.885 1.207 4.211 1.013 1.535-.225 2.736-.072 4.206.381 2.202.679 4.584.823 6.88-.136 2.048-.856 4.1-.851 6.16.168 2.401 1.188 4.901.87 7.337.174l1.971 1.255c2.062-.033 3.892-.047 5.72-.094 2.123-.055 4.244-.179 6.367-.192 1.06-.007 2.196-.039 3.165.309 1.276.458 2.443.186 3.699.176 7.033-.06 14.068.117 21.102.23.416.007.873.082 1.236.27 2.601 1.344 5.398.992 8.151.963.372-.004.741-.345 1.234-.592.069-.531.293-1.164.188-1.736-.107-.587-.536-1.116-.877-1.774l-5.18-1.994c-9.644-.887-18.626-1.217-27.465-3.077-3.734 1.036-4.622 1.111-8.743.543-4.498-.619-8.993-.673-13.487-.007-1.194.177-2.213.972-3.624.221-1.195-.636-2.632.551-4.212-.147-1.113-.492-2.802.32-4.43.581-2.601-1.548-5.668-1.754-8.78-2.122-3.959-.468-7.843-1.564-11.454-2.324-1.149-.665-1.291-2.138-2.673-1.95l-3.111 1.988c-2.962-1.27-5.966 1.073-8.754-.538l-1.772-2.045c-6.513-.153-13.117-.318-19.722-.454-.845-.017-1.8-.121-2.521.212-2.46 1.137-5.025.754-7.562.754-2.554 0-5.108-.107-7.54-.164-3.471 2.852-7.739 2.114-11.507 3.271-3.934 1.208-8.18 1.396-13.143 2.161-2.373 1.683-6.558 1.626-9.725 4.249l-.447 2.249-4.071.143-3.076 1.804-2.439-1.702-2.948 1.562c-.03 1.859-.02 1.967.905 3.081l-.034.014c-.091.192-.141.513-.28.558-3.174 1.037-6.301 2.566-9.555 2.926-4.114.455-7.84 1.667-11.412 3.493-1.97.124-3.965-.073-5.769.422-6.319 1.735-12.618 3.569-18.83 5.649-3.224 1.079-6.381 2.105-9.786 2.58-4.358.607-8.645 1.752-12.315 4.022l-.957 4.119-1.466-2.947-1.118 2.459c-1.632.647-3.2 1.241-4.744 1.893-.924.39-1.984.715-1.872 2.055 2.221 1.222 3.722 3.583 5.937 3.815 2.804-.405 5.09-.913 7.393-1.018 2.421-.109 4.859.169 7.437.284 1.063.649 2.292 1.467 3.584 2.167 1.161.629 2.393 1.129 3.844 1.801-4.29.735-8.4.939-12.132 2.231-3.251 1.125-6.558 1.672-9.854 2.351-2.265.467-4.686.156-6.962.588-5.397 1.025-10.749 2.289-16.546 2.073l-2.402 4.213-1.344-1.35-1.175.25-3.172-2.125-1.189 1.11-.003-.004c-1.193.401-2.36.927-3.583 1.182-4.32.9-8.665 1.685-12.991 2.556-4.347.875-8.723 1.648-13.015 2.745-4.899 1.252-9.611 3.271-14.8 3.243-.799-.004-1.601.441-2.37.669l-2.647-2.054c-2.015 1.313-2.938-1.67-5.086-1.201-1.898.414-4.068-.583-6.134-.726-1.868-.129-3.757.055-5.469.096l-2.465 4.372c1.392.575 1.509.659 2.567 1.904-3.641 1.728-6.557 2.434-8.906 2.15-.422-.051-.925.009-1.249-.2-2.633-1.703-5.791-.885-8.275-2.022l-2.464 1.538-1.036-1.804-5.893-1.74-1.907 1.988-1.549-1.511-1.658.577c-1.51-.411-2.357-1.204-2.357-3.057 2.593-.991 5.395-2.416 8.172-2.411 3.637.007 6.947-1.404 10.424-1.523 3.733-.128 6.909-1.904 10.408-2.634.62-.129 1.234-.318 1.824-.547 1.86-.724 3.719-.556 5.73-.143l-1.817 2.096 3.927-.017 2.64-4.69c2.849.214 5.472-.754 8.207-.302 3.694-1.798 7.703-2.099 11.639-2.197l2.942-3.667 4.717 1.548 3.696-1.134 3.692 1.105 2.758-1.895c.948-.651 2.718.048 2.979-1.989-.483-.197-1.142-.729-1.505-.573-2.677 1.151-5.442.793-8.194.634-.316-.018-.609-.428-.913-.657l.177-1.272c-.94-.756-1.856-.793-2.688.04l.396 2.478c-2.596-.622-4.719-.666-7.012.256-4.508 1.812-9.17 3.242-13.369 4.692-8.528 1.079-16.567 3.066-24.758 3.396-8.27.334-16.196 2.76-24.441 3.3l-3.211-2.102c-2.607 3.374-6.106 4.699-10.039 5.113-1.893.199-3.785.418-5.68.6-2.293.22-4.589.409-7.065.627l-2.636-3.409c-3.341-1.113-5.753-.444-8.116.314-1.664.534-3.5 1.186-4.902.18-1.353-.97-2.905.372-3.655-1.18l-1.264-1.206c-3.802.868-7.286 2.352-10.781.093-.461-.298-1.252-.13-1.887-.104-2.952.123-5.903.271-9.107.423-2.655-1.939-5.741-3.719-9.23-4.787a3231.97 3231.97 0 0 1-3.39 1.992c-2.201-.513-4.208-1.541-6.614-1.597-2.013-.047-4-1.162-5.998-1.805-2.574 1.083-4.254-1.49-6.537-1.602-.425-.021-.849-.137-1.271-.128-3.372.07-6.155-1.34-8.143-2.989-3.23-.477-5.884-.77-8.494-1.282-2.684-.526-5.326-1.264-8.063-1.928-2.54-3.371-6.742-3.205-10.223-4.596-1.423-.568-3.268-.078-4.448-.072l-1.608 1.657-4.002-3.133-2.024.658-1.395-1.382-1.952 2.847.047.001-.146.143.146-.143-.722.87-.623-.764c-1.161.161-2.248.456-3.514.365-1.066-.077-2.478 1.184-3.615.587-3.499-1.837-7.621-.605-11.109-2.481-.772-.415-1.967-.045-3.076-.036.564 1.919 1.874 1.932 3.152 2.159 1.021.182 1.995.637 2.985.985 1.197.421 2.4.829 3.579 1.297.998.396 1.964.871 3.588 1.6-6.346.59-11.749-.194-17.115-1.693-2.228-.622-4.58-.852-6.893-1.087-.758-.077-1.572.393-2.507.654l.532 2.593c-1.363 1.282-2.744-.041-3.681.008l-1.427 1.542c-2.36.231-3.862.272-5.313.566-.702.142-1.615.581-1.026 1.725 4.328 1.438 8.259-1.359 12.153-.838l2.124-2.128 4.777 1.636 1.056 3.595c.746 1.957 3.735.311 4.161 2.547-.117.201-.214.522-.32.525-4.258.124-8.525-.936-12.497.181l-4.08-2.011-2.384 1.49c-4.422-4.866-10.335-4.974-16.187-5.03l-4.866-2.342c-3.47-.039-6.933-1.009-10.348-2.262-3.811-1.399-7.746-2.239-11.816-2.462-1.243-.068-2.473-.399-3.705-.629-4.574-.855-9.022-2.596-13.954-1.933l-2.071 1.867-3.854 1.035-1.99-.807-3.509 2.092.2 2.177c4.217.369 8.349.734 12.482 1.092 1.312.113 2.552.341 3.19 1.737-.252.275-.46.722-.758.792-1.679.398-1.206 2.081-1.921 3.037-.003.004-.245-.171-.375-.262l-.761-2.32-2.191 2.172-2.194-.842-1.271 1.294c5.734 1.977 11.281 3.98 16.89 5.792 3.42 1.105 6.914 2.004 10.415 2.827 2.057.484 4.35.246 6.26 1.018 4.376 1.767 8.987 2.592 13.518 3.595 7.222 1.6 14.313 3.739 21.754 4.521 6.079.639 12.039 2.407 18.057 3.649.851.176 1.726.2 1.755-1.318l-11.073-5.864-2.708.814-24.275-7.54-.332-1.464c3.68-1.197 6.546.994 8.499 1.886 3.232.586 5.304 1.009 7.391 1.326 2.091.317 4.209.798 6.294.708 2.146-.092 4.021.969 6.184.849 1.841-.102 3.873.293 5.556 1.053 2.042.922 4.123.849 6.191 1.229 1.885.346 4.194-.185 5.548 1.86l5.767.645.988.991c1.564-.923 3.199-.664 4.91-.305 5.382 1.131 10.745 2.374 16.299 2.462 3.196.051 6.417.181 9.572.647 3.47.513 6.877 1.454 10.431 2.234l.646.878 1.78-1.495c1.643-.149 3.009.17 3.759 1.81l-1.661 5.213-2.478-.531-1.768 1.938-3.19-.075c-1.595-2.422-3.845-3.42-6.517-3.634a38.387 38.387 0 0 0-1.916-.117c-4.05-.124-8.103-.4-12.148-.305-3.057.072-5.845-1.147-8.786-1.37-4.89-.371-9.803-.445-14.708-.592-1.06-.032-2.259-.127-3.165.296-2.669 1.246-5.427.858-8.182.835-1.492-.012-3.179-.426-4.431.127-1.836.811-3.479-.777-4.924-.09-1.838.874-3.304-.436-5.763-.128l-6.747 3.493c-1.803-.043-3.721-.106-5.64-.103-.179 0-.357.425-.663.814l5.027.668c-3.286.906-6.335 2.504-9.782 2.051-1.019-.134-2.167-.085-3.126.251-4.204 1.475-8.32.846-12.692-.324-2.513 2.215-6.642-.612-9.661 2.873 2.898.496 5.29.994 7.708 1.289 1.488.182 2.682.65 3.445 1.942-2.765.132-3.54 3.121-5.681 4.156-.098.047-.064.365-.099.604l1.147 2.287c2.902.263 5.802.577 8.71.776 3.137.214 6.321-.166 10.751.766l-6.677 1.378c-2.431-1.101-4.968-1.114-7.477-.426-3.67 1.006-7.546 1.68-10.878 3.386-3.642 1.864-7.562 2.51-11.281 3.904-1.164.436-2.19 1.24-3.493 2l-7.967-.981c-.848.133-2.299.4-3.762.579-4.006.49-7.82 1.419-11.029 4.104-.791.662-1.863.999-2.827 1.439-.373.17-.804.214-1.189.311l-1.792-.441c-1.263 2.082-3.517 1.822-5.278 2.55l-1.741-2.104-1.275 1.168-.001-.006c-2.715-.998-5.701-.896-8.364-2.226-1.567-.783-3.325-.487-5.01.321l-1.322-1.516-4.156.137-2.068-1.823-1.531.33-1.466-2.072c-1.299.132-2.509.254-3.719.378-.732-.736-1.45-1.093-2.422-1.203-.679 1.146-1.002 2.32-.449 3.292 2.073.95 3.948 1.7 5.716 2.652 1.664.895 3.213 2.003 4.806 3.013l.237 1.668 7.49 2.802 1.065-2.723 1.554 3.186 2.554-.47c.915.581 1.749 1.294 2.715 1.671.969.379 2.119.29 3.096.657.766.288 1.338 1.063 2.089 1.431.941.462 2.042.612 2.955 1.112.958.525 1.796 1.141 2.682.442l9.845 5.315-3.249 1.509c-8.059-1.344-15.165-3.981-22.171-6.759l-3.775.973-1.955-2.682c-5.253-4.199-11.283-3.071-16.748-3.871l-4.223-3.625c-2.842.555-5.409-1.878-8.477-.979-.396-.487-.695-1.233-1.2-1.419-2.957-1.087-5.897-2.384-8.966-2.969-5.429-1.034-10.753-2.257-15.794-4.589-1.721-.796-3.545-1.367-5.328-2.028-.389-.144-.799-.23-1.2-.342l-2.84.721-.878-1.003c-1.604-.509-3.213-1.003-4.811-1.531-4.348-1.437-8.876-2.144-13.176-3.92-4.046-1.671-8.317-3.16-12.715-3.084l-4.985-2.448c-1.807-.15-3.308-.178-4.774-.425-1.379-.232-3.018-.33-4.004-1.142-1.405-1.156-3.047-.798-4.503-1.394-1.286-.526-2.795-.507-4.043-.703l-2.042 1.694c-3.566-6.316-10.848-6.677-15.812-10.797l-.401-2.295-2.174-.601c-.826-.837.348-2.509-1.189-2.721l-2.235 1.347-1.463-3.09-6.5-.862-.407 1.493c-1.869-1.918-3.893-3.47-6.659-4.069-2.663-.577-5.268-1.501-7.822-2.473-1.963-.747-3.811-1.8-5.704-2.729-.559-.274-1.097-.59-1.645-.886 1.614-1.02 3.519-.25 3.444-2.769-1.441-.034-2.909-.17-4.354-.047-.434.037-.825.572-1.228.97-.001-.001-.001-.004-.003-.005l-5.584 1.467c-7.709-3.747-16.217-4.744-24.448-6.508L784.105 180l-5.037-.926-1.592.71c-.616.879-.702.892-1.265.019-1.927 1.075-3.988 1.147-6.118.859-2.96-.399-5.926-.75-9.087-1.147l-.478-5.012-2.74-.227c-2.351.272-2.756 2.177-4.436 1.492l.643-2.491-1.444-1.413-2.629 1.378.373 1.541-1.283 1.321-5.779.913c-1.252-.663-3.248-.188-4.131-1.951-3.204-.542-6.263.416-9.104.98l-5.085-1.317-10.085 1.678.211 2.691 3.074-.861 7.982 3.609 1.993-3.729c1.017.561 1.675 2.099 3.312 1.888.372.411.72.927 1.163 1.031 1.012.236 2.108.088 3.145.251.957.15 1.883.499 2.914.786l.466-1.886c2.432-.17 4.615 1.386 7.076 1.067.013-.002.071.352.109.541-.821 1.868-2.769.5-4.096 1.481l.745 1.521 8.427-.543 5.314 2.462 5.465.421 1.502 1.757c3.089-.665 6.006 1.915 9.136.485l1.746-1.669 1.962 3.044c.91.302 1.905.627 2.896.963.929.315 1.855.639 2.781.96l-1.006 2.991 4.058 1.674 1.808-1.837c2.735.927 5.507 1.843 8.253 2.832.294.106.434.639.653.986-.476 1.771-2.22 1.665-3.445 2.318l-2.082-.336c-1.047.623-.122 2.219-1.595 2.342l-.749-2.423-1.747.979-.744-2.54-1.738 1.471-6.776-2.441-4.6 1.66-.048 2.037-1.902.308-.627.71-.726-.896.029.001-1.121-1.174a.166.166 0 0 0-.013.014c-.973-.232-2.19-.148-2.187-1.721 1.206-1.14 2.478-2.111 4.34-1.679.575.133 1.219.278 1.768.148 1.1-.26 2.156-.707 4.415-1.484-2.446-.264-3.698-.314-4.913-.554-1.214-.241-2.391-.673-3.48-.991l-1.762.509c-1.761-.487-1.193-1.902-1.455-3.253l-2.788-.066c.306.719.658 1.426.852 2.175.079.307-.27.725-.445 1.143l-2.814-.066-1.072 2.708-1.674-2.133-2.403.491-1.773-1.275c-6.334-.039-12.048-2.531-18.078-2.633l-3.714-2.218-1.109-4.851c-2.061.945-3.568-1.716-5.474-.344l-.549 2.003c-1.337.158-2.245-.123-2.799-1.11l-4.283-.373a8141.506 8141.506 0 0 0-4.182-3.54l-2.814.357.999-3.918c-3.361-.949-6.416.165-10.505-.325-1.849-.05-4.348-2.231-7.663-1.595l-.133 1.902-2.855 3.356 5.409 2.547.805 2.671 3.809-2.552 3.85 1.369 1.955 2.065c2.08-.586 3.83-1.613 5.819-.607l.118 3.398-5.5 3.486c-2.806-.948-5.848 1.211-8.277-.616l-4.215 2.776-1.379-1.713c-1.138 1.564-2.301 2.718-4.234 1.166l-.302-1.675-4.771-.796-5.67 2.173-2.305 1.842-.117-2.777-3.149-.419-5.48 2.877-.684 2.189-5.067.368c-2.148-2.21-2.128-2.238-5.49-3.305l-1.088 4.198c-4.454.501-8.785.99-13.116 1.474-.925.103-1.59.47-1.65 1.494.557 1.364 2.751 1.241 2.755 3.059-3.992 2.077-8.242 1.575-12.284 1.395l-4.169-2.085c-4.047-1.107-6.504.407-9.112 1.129l-1.278 1.459-1.105-1.561c-2.695.274-4.764.572-6.843.675-3.154.155-6.328-.415-9.447.782-1.104.424-2.544.181-3.783-.036-.747-.131-1.4-.796-1.803-1.042-.378-1.078.572-2.036-1.074-2.611-2.44.691-5.274 1.298-7.368 3.513-2.599.156-5.202-.245-7.563 1.034-4.278.004-8.39.98-12.474 2.124-2.148-.753-4.37.49-6.292-.224l-2.014 1.563-.003.005-.904-.891c-2.455.808-4.671 1.48-6.833 2.296-.453.171-.708.872-1.164 1.474.762.349 1.335.848 1.853.797 1.027-.101 2.014-.568 3.041-.746.286-.049.656.385 1.124.685l-1.169 1.607-9.971-.235.127 1.617 6.562.482-2.253 2.812-10.151-.239-2.34-3.174c-.939-.022-1.742.007-2.535-.072-1.039-.103-2.066-.343-3.105-.416-.371-.026-.765.265-1.238.446l-1.445 3.427c-6.056 3.227-12.227 4.512-18.943 2.335-3.055-.991-6.272-.804-9.419-.22-4.983.924-9.935 2.057-15.059 1.836-.394-.017-.799.213-1.763.491l-.945 1.609c-1.803.235-2.586.096-2.903-.905-.059-.187.001-.412.006-.655 1.903-2.486 1.903-2.486 1.57-3.933l-7.111 1.837-.859-1.505 3.618-3.036-.969-3.716c5.547-.582 10.792-1.268 16.121 1.728l-7.347 2.906-1.005 2.474c4.495-.323 8.551-.971 12.169-2.177l2.87.941 4.924-4.273c-1.214-.487-2.408-1.425-3.057-1.137-1.74.773-1.629-1.957-3.036-1.312-1.378.632-1.092-1.477-2.417-1.365-1.389.118-2.829-.593-4.255-.629-1.644-.04-3.296.263-4.737.397l-3.181-1.455-1.179 1.221c-2.726-.185-5.235-1.018-7.964-1.051-2.593-.031-5.174-1.107-7.197-1.59l-2.231 1.714-.684 2.401c-4.407 3.555-8.805 7.004-14.401 8.321l-1.432-1.706-2.948 3.27c-1.845-.179-3.686-.51-5.523-.494-2.107.018-4.211.345-6.105.519l-7.257 2.895c-.354 1.323-2.626 1.261-2.511 3.039.416.313.796.823 1.073.772 1.64-.303 3.249-.768 4.886-1.092.271-.054.628.32 1.099.581l-.311 3.153-5.653 2.599c-1.4-.559-2.573-1.146-4.004-.251l.079 1.261 1.81.173c-.188 2.182-2.04 1.418-2.934 2.152l-.199 1.943-7.251 2.507-6.521-3.905-3.567 1.076c-1.984-2.098-4.519-.903-6.441-1.179-2.121.791-3.595 2.114-5.546 2.016l-.642-1.081c2.609-2.095 2.594-2.163 1.6-4.891l-5.429-.374c-3.159-1.065-5.446-3.073-6.562-5.409l-7.294-2.564-.59-2.109c-.487-.076-.706-.174-.887-.127-.801.208-1.592.458-2.16.627a82555.56 82555.56 0 0 0-8.158-6.275l-2.318-3.692c-2.153 1.098-3.655-.575-5.453-.846-1.455-2.636-4.3-3.129-6.697-4.165l-.309-1.74-2.435 2.119-4.538-3.874-.972-2.904-7.504 1.119-1.867 1.918.528 2.574c-.387.121-.814.418-1.071.31-1.935-.815-3.837-1.709-6.059-2.72l.28-2.653c-.2-.951-1.669-.296-2.368-.922-.712-.639-1.308-1.408-1.942-2.135-1.747-.531-2.359 1.284-3.934 1.906-2.879-1.191-6.198-2.126-9.052-3.838a92.619 92.619 0 0 0-16.481-7.786c-4.745-1.701-9.556-3.451-13.317-6.97-3.744-3.502-8.168-4.995-13.132-5.3-.443-.67-.8-1.588-1.402-1.795-4.236-1.456-7.885-4.147-12.01-5.716-3.049-1.16-5.411-3.011-7.687-5.076l-1.797.411c-1.152-.667-2.195-1.752-3.284-1.802-2.413-.11-4.452-1.019-6.506-2.058-2.08-1.053-4.589-1.692-6.125-3.274-1.752-1.805-4.585-.773-5.854-2.903l-2.303-.054-1.868-2.612-2.104.575c-2.066-1.232-4.105-2.811-6.406-3.744-4.689-1.901-9.414-3.944-14.324-4.999-4.233-.91-8.07-2.404-12.112-4.652-4.225.401-8.436-1.071-12.694-2.323-1.004-.295-2.039-.493-3.069-.688-2.265-.431-4.535-.831-7.025-1.285l-3.846 1.056c.17 1.829 3.099 1.293 2.928 4.288-3.688-2.022-7.742-1.084-11.571-2.649-2.913.998-5.985.649-9.06-.134l-1.513.578c.367.442.685 1.09 1.132 1.198 6.139 1.477 12.329 2.701 18.458 3.35l7.812 4.398c-2.812 1.558-5.174-2.135-7.982.135 1.775.703 3.325 1.331 4.886 1.93 1.309.503 2.04 1.855 3.849 1.823 1.528-.027 3.032 1.511 4.629 1.713 1.937.245 2.865 1.709 4.251 2.577l1.337-.313 2.087 2.632 2.28.439a1591.46 1591.46 0 0 1-.559 2.738l1.916 1.531 3.73 4.72c4.097.896 7.319 2.947 10.054 5.646 1.761 1.738 4.986 1.617 5.704 4.6.014.057.331.041.507.057.399-.141.799-.28 1.616-.565l4.91 3.687c.988.21 2.214.554 3.464.715 1.367.176 2.757.183 3.991.256.737 1.185 2.258 2.074.264 3.346l-2.207-.828-5.448.784c.18.331.323.741.597.868 5.399 2.501 10.737 5.163 16.258 7.363 5.164 2.058 10.038 4.585 14.752 7.484 1.431.88 2.906 1.688 4.437 2.573l.878 2.269c2.817.499 3.371.974 3.172 2.78l-1.83 2.463 4.47 3.151-6.824-.161-2.728-2.03-5.28-1.074-.911-2.586c-2.824.057-5.533.414-8.156.084-2.868-.361-5.656-1.357-8.475-2.075l-1.508 1.455-2.2-.357-1.779 1.486-2.107-2.913-1.498 2.946-5.283-1.498-1.073 2.551-3.038.161-5.574-2.45c-1.454-1.216-.473-2.745-1.88-3.079-1.057-.036-1.369 1.714-2.71 1.023l.073-3.099-2.66 2.299c-6.203-2.027-12.414-4.072-18.637-6.08-1.318-.425-2.689-.84-4.017.144.495 1.001.994 1.511 2.052 1.256 1.424-.343 1.298 1.452 2.29 1.783 5.089 1.7 9.044 5.435 13.802 7.735.11.053.122.31.16.513l-1.869.826c-6.283-2.908-12.646-6.189-19.269-8.811-5.092-2.016-10.002-4.375-15.007-6.536-3.794-1.638-7.732-3.44-12.091-3.345l-.002.039-2.68-2.149-1.757 1.435c-2.334-.458-4.535-.538-6.432-1.338-3.731-1.572-7.724-2.511-11.339-4.176-6.602-3.042-13.757-4.326-20.402-7.138-.93-.393-2.22-.626-3.1-.292-1.541.585-2.841.171-4.28-.126-1.239-.257-2.546-.252-3.822-.239-.81.008-1.724.073-1.913 1.126-.096 1.402 2.113 2.105 1.183 4.008-3.212-1.171-6.196-2.248-9.172-3.346-2.495-.921-2.491-.933-5.594-.14l3.711 2.566-2.729 1.052c-2.032 2.764 1.224 5.053-.02 7.917l-2.79 1.382c-.34-1.547-.578-2.943-.975-4.293-.168-.571-.669-1.044-1.028-1.575l-3.025 1.397-1.455 3.275c-2.954-.016-5.915.037-8.869-.066-3.133-.109-6.043-2.351-9.475-.956-.331.381-.866.799-1.13 1.348-.418.871-.654 1.829-1.073 3.061l11.986-1.569.37 1.893c1.227.109 2.457.186 3.673.367.244.036.424.505.674.826l-2.612 2.297c1.615 2.537 1.586 2.55 1.424 4.805-1.756.143-3.548-1.419-5.497.138l1.06 2.488 6.742 2.604-.259 1.28 1.366 1.583c-2.354 1.12-2.946-1.214-3.778-1.63l-4.758-.112-4.612 2.963-1.225 2.731-3.872-.761-1.535.689c1.489 2.032 3.875 2.974 5.829 4.768l1.265 5.508c1.389-.353 2.453-.567 3.789-.018 3.123 1.286 6.405 2.168 9.93 1.74 2.336.957 4.7 1.87 7.001 2.919.434.198.618.941.905 1.413-1.482 1.432-3.175.781-4.711.96.345.437.642.975 1.093 1.193 2.275 1.1 4.619 2.057 6.904 3.137.704.333 1.437.808 1.124 2.106-4.102.268-8.385.415-11.362 3.231l-9.067-1.455-.578-.772c-4.338.469-8.137-1.672-11.864-2.722a5139.96 5139.96 0 0 1-3.155 1.832l-2.858-3.498c-4.262-.101-8.502-.215-12.743-.29-1.055-.019-2.145.028-2.57 1.308-.013.009-.034.011-.049.017l1.996 3.331c1.212.523 2.396.943 3.488 1.533.994.537 2.644.024 3.041 2.477-2.115.612-9.203-1.107-13.063-.917v52.684h1920v-11.439c-1.776.015-4.05 6.021-5.329 6.672zm-32.384-75.321c.354.09.683.281 1.021.434l-.086.304-1.363-.38c.145-.127.322-.385.428-.358zm-154.056-52.074c-.741.62-.741.62-5.848-1.682.429-.625.516-.893.637-.909 1.189-.159 2.384-.276 3.26-.37 1.469.765 2.494 1.412 1.951 2.961zm-100.418-42.15.137.369-.38-.066.243-.303zm-3.85-.138.13.358-.355-.057.225-.301zm-5.234-.102 1.428.034-.01.444-1.428-.034.01-.444zm-478.877 37.962-.135-.445.378.052-.243.393zm-72.059 47.521.648.301c-.672.462-.627.04-.648-.301zm-62.149 25.435.808.395c-.889.673-.784.055-.808-.395zm-274.225-56.723.173-1.538c1.246-.685 1.383.397 2.425 1.244l-2.598.294zm25.038-2c-.011-1.966 1.021-2.176 2.436-2.052l.555 1.805-2.991.247zm-59.217 5.845c-.563-.479-.536-.954.064-1.391.119.339.278.673.329 1.022.016.107-.373.386-.393.369zm10.236-3.599.205-.29.102.345-.307-.055zM46.687 212.964l1.45-2.857 1.652.729c-1.138 2.835-1.139 2.838-3.102 2.128zm5.217 5.463-.401-.034.121-1.432.405.034-.125 1.432zm5.727 27.135-.283-.206.339-.105-.056.311zm66.973-48.02-1.919-.354.033-.58 1.947-.112-.061 1.046zm242.691 31.603-.317.69c-.531-.718-.05-.66.317-.69zm-28.347-10.954c1.26.047 2.615.004 3.751.453 4.507 1.781 8.77 4.111 12.841 6.709 2.516 1.605 4.093 4.07 4.037 7.257-1.361.071-2.309-.529-2.699-1.914l-2.844.23-1.036-2.73c-4.205-.772-10.202-4.049-15.728-8.594.032-1.093.792-1.444 1.678-1.411zm-77.612-30.746c.732-.262 1.655-.654 2.286-.416 2.531.953 4.262 2.942 5.888 5.011l-5.41.919-3.092-4.377c.112-.424.119-1.062.328-1.137zm-2.456-3.775c-.981.531-1.43.094-1.678-.722.644-.003 1.391-.262 1.678.722zm-1.87-1.931-.034.922-.757-.5c.264-.142.528-.282.791-.422zm-13.002 35.831.299.219-.356.12.057-.339zm-2.4-3.911.115.337-.332-.06.217-.277zm-14.497 24.045c-.675.486-.631.049-.658-.296l.658.296zm-1.109-.588-2.955-.07c1.524-1.121 1.611-1.159 2.955.07zm-13.365-20.494c2.707 1.229 5.496 2.125 8.326 3.003 1.464.454 3.363.893 3.915 3.224-6.342.276-11.124-3.606-17.391-5.7 2.282-1.32 3.834-1.124 5.15-.527zm.671 19.114-.431.647a92.127 92.127 0 0 1-.413-.667l.844.02zm-1.225-.32-.662-.296c.672-.478.634-.05.662.296zm-34.917-17.783c-1.251-1.288-3.232-1.633-4.022-3.386 2.507-.256 4.529.622 6.066 2.634l-2.044.752zm11.387 4.433c-3.138-1.367-6.55-2.318-8.906-5.053 4.46.215 8.208 2.338 12.959 5.05-2.129.03-3.239.357-4.053.003zm12.871 12.505c.978-.503 1.47-.11 1.739.715-.649-.033-1.42.246-1.739-.715zm5.112 2.757c-1.246-.332-2.619-.344-3.097-1.858 1.123-.045 2.276-.247 3.221.653l-.124 1.205zm-8.473-7.99-4.017-1.438 6.032-.518.03-.6c-1.314-.185-2.626-.385-3.942-.551-1.194-.151-2.392-.267-3.685-.41.813-2.122 2.37-2.323 3.824-1.969 2.041.496 4.02 1.298 5.971 2.103 1.905.787 3.741 1.741 6.015 2.814l-10.228.569zm12.093 16.993c1.677-.472 2.652.547 3.612 1.651-2.602.158-2.602.158-3.612-1.651zm3.576-10.847.343-.635c.428.706.002.634-.343.635zm2.517 13.751.21-.259.109.321-.319-.062zm2.863-3.622-1.442-.168.041-.376 1.445.146-.044.398zm.215-7.63-1.634-1.571c1.704-.684 2.131-.216 1.634 1.571zm8.004 16.092.702.297c-.701.541-.664.07-.702-.297zm.807-2.446c-1.063.553-.869 1.437-1.016 2.18-.598-.002-1.248.11-1.744-.115-.945-.428-1.78-1.096-2.812-1.76l2.9-1.201c-1.288-1.436-3.356-1.795-4.71-3.635 6.314.934 10.364 2.418 13.676 4.975-2.333 1.574-4.337-1.542-6.294-.444zm10.192 3.719-.757-1.823c1.647.449 2.929.789 4.203 1.158.166.048.321.219.424.372.078.115.123.252.167.389-1.326-.033-2.653-.064-4.037-.096zm-6.598-27.543 1.142-2.064c3.668 1.587 8.042 1.122 11.946 5.615-5.367-.921-8.937-2.787-13.088-3.551zm23.271 24.107c-2.251.155-3.967-.996-6.521-2.658 3.71-2.114 5.81-.311 7.98.816.037 1.323-.484 1.775-1.459 1.842zm15.312-20.424c-.165.116-.387.217-.583.214-3.185-.061-6.369-.14-10.016-.226-1.395-1.201-4.158-1.141-4.891-3.876l-.183.142.006-.201-1.946-.299.011-.567 1.966-.228.005-.196.112.099c-1.031-2.024-3.566-.942-4.963-2.453-5.063 2.174-9.367.115-14.071-2.574 3.935-1.249 6.99 1.873 10.667.716l1.426-1.49 4.968.877c2.306 1.628 4.937 3.518 8.478 4.198 3.477.668 6.458 3.015 9.125 5.514-.026.088-.021.286-.111.35zm3.607 12.565c2.577-.995 3.837.639 5.714 1.635-2.256.473-4.056.692-5.714-1.635zm2.913-10.014.059-.314.308.214-.367.1zm19.282-7.326c-2.013-1.105-4.426-1.556-5.886-3.542-.102-.139.238-.603.385-.945l5.414 1.977.833 2.071c-.436.264-.664.484-.746.439zm12.569 24.776-.28-.206.337-.107-.057.313zm.2-16.627.057-.385.355.244-.412.141zm6.852-6.259c-.473-.674-.038-.623.303-.647l-.303.647zm31.031 15.416 2.271.377c-1.447.615-2.065.493-2.271-.377zm10.708 3.564c-.225-.618-.452-1.401-.795-2.13-.347-.736-.809-1.418-1.314-2.284l-1.588 1.388c-1.902.055-3.205-1.561-5.09-2.124l-.075-1.783c-.33-.09-.747-.342-1.096-.269-.607.127-1.172.455-1.726.686-.441-.111-.907-.116-1.237-.33-3.007-1.953-5.931-4.041-9.004-5.882-1.55-.928-3.234-1.827-5.189-1.529 1.057 2.601 3.104 4.26 5.495 5.522 2.025 1.068 4.132 1.981 6.729 3.212-1.369.203-2.529.758-3.143.393-1.616-.959-3.542-.268-5.161-1.572-3.236-2.607-6.845-4.706-11.003-5.409-.976-1.793-2.123-3.134-3.82-4.173-1.283-.785-1.464-2.855-3.108-3.514.126-.368.221-.752.405-1.089.388-.709.139-1.131-.562-1.309-.399-.101-.834-.058-1.253-.08-.005-.007-.006-.019-.01-.027l-2.819 2.133-2.793-1.832-1.748.559c-3.574-1.134-6.942-2.668-10.113-4.913-2.712-1.92-6.038-2.968-9.078-4.434-1.328-.64-2.69-1.256-3.893-2.09-.577-.4-.821-1.281-1.241-1.987l3.365-1.398c-.112-.375-.146-.804-.353-1.116-1.238-1.864-3.183-3.05-5.157-3.519-4.491-1.068-7.414-3.847-9.698-7.56l-2.6.565.443-2.695-2.066-2.378 2.429-2.449a.106.106 0 0 0 .009.011l2.589 1.259 3.213-.551c5.618 2.195 11.317 3.954 16.568 6.6 5.46 2.752 11.41 4.605 16.316 8.432 5.593 1.948 10.711 4.844 16.007 8.097l2.088 2.835 2.549-.466 11.738 6.112c1.115.581 2.138 1.241 2.354 2.607l-2.036.415-.57 4.105c2.773 2.336 5.535 4.228 8.544 5.791 3.387 1.76 6.705 3.656 10.114 5.372 1.582.797 2.855 1.794 3.639 3.416-1.157 2.209-3.034 1.877-5.255 1.382zm8.332-11.181c-1.797-1.297-4.523-1.433-6.013-3.712.537-.291 1.15-.759 1.498-.609 1.872.804 3.619.258 5.544-.655l1.603 1.586c-.048 2.224-.987 2.932-2.632 3.39zm4.528-1.467.242-.339.138.399-.38-.06zm3.832 1.444c.685-.481.633-.04.656.307l-.656-.307zm.98.709.651.319c-.697.469-.637.03-.651-.319zm4.225 8.048c2.094-1.069 3.772.036 5.485.93-2.221 1.859-3.659 1.624-5.485-.93zm5.819.811.344-.728c.577.774.047.697-.344.728zm4.802 1.406c-.757-.308-1.216-.76-.639-1.725.96.335.643 1.085.639 1.725zm1.417 1.436-1.217-1.357-.045-.018c.71-.875 1.369-1.806 2.188-2.564.536-.496 1.356-.686 2.349-1.155l.637 2.9-3.912 2.194zm6-5.436c-.484-.687-.041-.636.308-.661l-.308.661zm16.603 3.022c1.269-1.154 2.742-.879 4.202-.713-1.069 2.066-2.765.699-4.202.713zm27.628-18.082-.46.685c-.146-.234-.29-.468-.434-.702l.894.017zm-12.385 15.967-10.798 1.229.146-1.505 8.436-5.763 5.17 1.915c.189 2.283-1.615 2.897-2.954 4.124zm13.862 5.252.053-.31.323.21-.376.1zm-2.58-16.009c-2.167.977-4.858 1.282-8.446.519l-3.188-1.842 1.224-1.826c3.372 2.717 6.899 1.066 11.257.292a6128.2 6128.2 0 0 0 2.199 3.39c-.912 1.092-1.685-.207-3.046-.533zm1.509-5.397c1.095-1.697 2.638-1.054 4.609-.558-1.724.999-3.212.54-4.609.558zm3.843 6.543c.14-.994.05-1.628.321-1.892.232-.226.877-.027 1.783-.006l-2.104 1.898zm4.077-.449c-.126-.337-.287-.669-.348-1.017-.016-.093.378-.371.418-.341.635.471.52.933-.07 1.358zm3.762.595c.723-1.466 1.845-1.713 2.821-1.86.942-.142 1.944.115 3.186.218l.96 1.805c-2.185-.05-4.383-.102-6.967-.163zm7.281.433.739.333c-.767.587-.705.063-.739-.333zm-1.028-5.486-6.024-.142-1.475-3.385c4.016-.513 7.743-.036 11.594-.04-.778 2.008-.778 2.008-4.095 3.567zm4.035 6.233-.116-.338.334.062-.218.276zm2.814-10.315c-.127-.362-.443-.8-.336-1.073.221-.569.707-.521.829.084.057.285-.315.656-.493.989zm-.893-5.065-5.691-.134-1.158-1.586 8.673-1.496.826 1.049c-.154 1.696-1.904 1.452-2.65 2.167zm7.093 7.767.218-.313.115.369-.333-.056zm75.816-5.836.056-.313.292.208-.348.105zm14.315 5.694-.051-.528 2.134-.304.031.882-2.114-.05zm15.23-2.341-9.079-1.466c1.156-1.091 2.299-1.839 3.669-1.956 1.691-.144 3.406-.092 5.106-.024 1.415.057 2.825.259 4.343.407-.741 2.335-2.787 2.219-4.039 3.039zm12.139-1.98c-1.613.321-3.269.429-5.018.632l-.957-1.499 3.994-1.019 3.159.789c-.382.418-.73 1.008-1.178 1.097zm9.328-.045c1.267-1.054 2.097-.679 3.158-.363-1.149 1.079-1.969.538-3.158.363zm27.347-3.664-1.446 1.149 2.913 2.777c-1.686 3.339-4.511.211-6.422 1.682l-3.778-1.919c-2.212.094-4.24.123-6.177 1.146-1.043.55-2.474.563-3.707.481-.714-.048-1.382-.768-2.3-1.325 1.3-1.543 2.921-.854 4.16-1.342 1.167-.46 2.386-.788 3.975-1.302-5.309-2.219-10.442-2.939-15.803-1.912-4.18.801-7.195.755-11.003-.187 3.67-.791 7.339-1.758 11.07-2.325 2.494-.379 5.078-.295 7.616-.224 1.86.052 3.626.576 5.6.173 1.529-.312 3.281.47 4.35.661l11.233-.783c2.008.887 2.645 1.868 2.771 3.09-1.065 1.385-2.007.644-3.052.16zm6.517 4.263-.439-.01.034-1.435.439.01-.034 1.435zm2.916-.812-.727-.482c.253-.147.505-.291.758-.436l-.031.918zm1.053-1.822c-.133.247-.488.375-.806.523l.16-1.564c1.093-.07.87.623.646 1.041zm.51 14.296.223-.32.114.378-.337-.058zm4.91-3.2.551-2.239c1.374-.153 2.001.574 2.629 1.838l-3.18.401zm7.035-26.96c-1.73-.583-1.427-1.722-.882-2.935.571.891 1.887 1.563.882 2.935zm5.227-5.608c.159-.454.194-1.098.513-1.306.297-.194.897.075 1.625.176l-1.396 1.431-.742-.301zm9.235 5.502c-2.803.802-5.529.666-8.099-.797.078-.181.135-.416.264-.467 2.766-1.074 5.495-.668 8.306-.041-.22.644-.267 1.247-.471 1.305zm3.533 10.454.216-.274.116.335-.332-.061zm-.952-13.621 1.503 3.097c-1.992.424-2.011.398-1.503-3.097zm4.938 17.698-.341-.224.395-.119-.054.343zm-.038-3.849-.119-.366.347.062-.228.304zm4.451-.854c-.248.823-.292.81-1.806.787.077-1.195.842-1.638 1.842-1.831.015.357.061.722-.036 1.044zm36.261-.671c.386-.306.902-.466 1.388-.615.095-.029.282.245.426.379-.194.324-.328.723-.603.949-.245.201-.648.21-.981.303-.088-.351-.348-.922-.23-1.016zm-3.062-19.779.317.212-.371.107.054-.319zm-25.959 8.394c.326 1.042-.433 1.25-1.113 1.541-.664-1.27-.203-1.695 1.113-1.541zm19.698 20.356c-.863-.265-.851-.304-.797-1.812 1.196.101 1.618.906 1.858 1.88-.361.003-.731.034-1.061-.068zm-3.938-7.017c-1.348-.184-2.383.382-3.21 1.463l1.047 2.35 2.843 1.196c-.487 2.187-2.581 1.837-3.97 2.968l-.867-2.715c-1.798-.543-2.993 1.05-4.549 1.372-1.386-.296-2.661-.579-4.179-.037-1.319.471-2.941.152-4.424.09-1.431-.06-3.012.35-4.311-1.328l.924-1.815c1.779-.434 3.594.247 4.959-1.581l-4.112-1.05-.65-1.979 1.557-2.149 2.48.676 2.353-1.746 3.36 4.043-.389-3.18c.255-1.325 1.562-1.245 2.493-1.85l19.862 2.453c-.942 1.913-2.307 1.039-3.377 1.105-1.071.066-2.023.162-2.593 1.162-1.664.945-3.445.798-5.247.552zm6.466 8.269c-.417-.025-.797-.685-1.19-1.106 2.157-.926 4.493-.988 6.746-.969 1.315.011 2.64.966 3.916 1.588.243.119.35.517.49.849-3.323-.101-6.646-.165-9.962-.362zm10.269.639.679.317c-.712.514-.653.044-.679-.317zm.655-8.291-.108-.35.323.061-.215.289zm7.818-1.302c-.346.25-.946.15-2.554.307l2.641-2.307c-.027 1.159.132 1.841-.087 2zm8.402 3.145-4.699-1.505c1.921-2.352 4.401-1.081 6.674-1.927-.331 2.167-.331 2.167-1.975 3.432zm8.388-2.727-.409-.01.031-1.325.409.01-.031 1.325zm16.17 10.844-.11-.332.318.057-.208.275zm-7.426-8.739 3.672-2.022 6.841 3.022c-3.595 1.426-6.153-1.481-10.513-1zm41.779-12.854 3.38.08c-.799 1.313-1.583 1.029-3.38-.08zm7.265-5.829c.281-.252.885-.145 1.811-.241l-1.897 1.962c.021-.88-.141-1.518.086-1.721zm1.213 7.817c.368-.92 1.091-.629 1.731-.599-.329.751-.786 1.21-1.731.599zm4.007-6.235-1.308-.031.009-.381 1.308.031-.009.381zm3.61 1.207.209-.281.112.336-.321-.055zm35.045-7.069-.058.352-.312-.227.37-.125zm-2.478-.031c-.739.525-.669.036-.693-.335l.693.335zm-8.299 17.752c.149.348.491.761.402 1.031-.192.58-.679.57-.829-.008-.073-.286.272-.679.427-1.023zm-8.35-22.019-.057.362-.327-.232.384-.13zm-7.455-7.854c-.67.457-.621.032-.643-.307l.643.307zm-1.483 3.763.098.335-.302-.058.204-.277zm.985 6.826-1.714-3.395c2.01-.008 3.789.073 4.578 2.137l-2.864 1.258zm37.583 26.591-.815 2.252c-.513.15-.936.424-1.281.346-.806-.181-1.631-.874-2.348-.755-4.177.694-8.138.259-11.668-1.903l-2.695.792-3.592-1.575-2.782.249-2.274-3.101a8565.5 8565.5 0 0 0-3.238-.076l-.534-3.534c-.805-2.045-3.019-1.633-3.319-3.313 2.926-.247 5.535.769 8.068 2.083l-1.365 1.243c.217 2.256 2.796.73 3.743 2.389.583 1.021 2.556 1.249 3.99 1.869l1.486-3.2c2.513-.252 5.165-.433 7.982.591l-.65 1.857c-2.263-.322-4.275-2.494-6.628-.597-.303 1.953 1.091 2.587 2.544 2.951 1.223.306 2.545.194 3.788.441.967.192 1.656 1.383 2.92.807 1.707-1.296-.89-2.571.031-4.149 3.179 1.275 6.92.007 9.895 1.726.948 1.921-.952 1.759-1.258 2.607zm41.384-.317-1.468-.102.037-.451 1.465.14-.034.413zm22.931 13.251c3.635-1.052 3.818-1.015 7.111 2.052l-7.111-2.052zm.61-4.679c-3.679-.79-7.306-1.928-10.843-3.224-1.463-.536-3.337-.935-4.005-2.971l2.025-.467 3.052 2.108 2.568-.604 9.904 3.1c1.071.964 1.652 1.554 2.303 2.052.525.402 1.625-.057 1.7 1.086-2.501 1.212-4.523-.612-6.704-1.08zm36.054 9.273c-.838.913-1.86.455-2.661-.355-.128-1.249.513-1.936 1.589-2.309.151.155.368.28.432.46.265.75.912 1.909.64 2.204zm139.525-35.296-.053.301-.302-.203.355-.098zm-3.195 69.381c.673-.447.624-.026.643.314l-.643-.314zm-8.044-1.071-3.498-1.811c2.487-1.862 4.769-2.394 7.411-1.159 1.304.609 2.804.799 5.1 1.416l-9.013 1.554zm19.924 6.823c-3.853-1.121-8.094-1.594-10.815-5.108l6.891.752 3.096-1.792c1.58 1.01.727 2.025.497 3.219l4.085 1.001c-.769 1.865-2.407 2.32-3.754 1.928zm4.071-74.569-.293-.21.349-.107-.056.317zm15.193 51.54.221-.304.116.362-.337-.058zm107.422-74.819c.334.083.643.265.962.409l-.076.274-1.308-.359c.143-.115.315-.351.422-.324zm-22.345 47.484c1.736.151 3.351.299 4.967.431 1.434.117 2.924-.108 4.432.6-.445.366-.71.773-.972.77-2.881-.028-5.761-.117-8.641-.192l.214-1.609zm-.464 1.797c-.262.964-.945 1.517-2.008 2.062-.374-2.246.926-2.033 2.008-2.062zm-.409 4.414-.344.108.059-.319.285.211zm-2.707-.27c.069.403.183.761.167 1.114-.006.145-.29.278-.379.356l-5.554-1.416c2.409-.791 4.085-.772 5.766-.054zm-12.025-36.407c-.825 1.209-1.576 1.123-3.281-.077l3.281.077zm-1.663 19.935-2.743-.065c1.029-1.022 1.798-1.002 2.743.065zm-3.496-19.792.306.214-.359.116.053-.33zm.023 3.841-.05.378-.35-.235.4-.143zm-5.008-1.645c1.452.081 2.144.728 2.426 1.861-1.349.545-2.691 1.016-4.094-.407l1.668-1.454zm-1.594 5.129 1.384.383c-.152.117-.333.356-.452.328-.351-.083-.678-.27-1.014-.417l.082-.294zm-11.193 31.868c1.023.41 1.927.306 2.935.268.423-.016.875.751 1.614 1.443l-2.453 1.688c-.659-1.412-2.546-.927-3.406-2.049-.172-1.052.418-1.707 1.31-1.35zm-8.728-3.999 1.389.096-.017.348-1.388-.033.016-.411zm-11.852-23.527c.342.086.658.271.985.418l-.077.276-1.339-.368c.146-.115.322-.353.431-.326zm2.227 13.321c.141 1.443-.474 2.142-1.771 2.676l-1.255-2.535c1.159-1.368 2.096-.508 3.026-.141zm-7.48-17.033-.053.295-.312-.203.365-.092zm5.707 27.15 1.113-1.163c1.433.119 1.994 1.216 2.564 2.302-2.938.995-4.959 1.118-7.652.393-1.009-.272-1.973-.736-2.991-.946-1.005-.207-2.054-.205-3.083-.295 3.264-.954 6.591-1.279 10.049-.291zm-.006 5.073-.221.303-.119-.361.34.058zm-12.685-5.429-.214.282-.111-.343.325.061zm-7.435-11.697-.205.269-.103-.328.308.059zm10.534 38.992-1.911-.671c-1.861.428-3.612 1.035-4.729 2.953l-4.204-3.308v.018l-4.212-.818 3.976-4.22c4.436-.307 8.604-.094 12.484 2.013l-1.404 4.033zm1.545-24.533 4.288 1.19c-3.499 1.053-3.501 1.025-4.288-1.19zm6.151 24.65-.276-.219.339-.117-.063.336zm2.242-1.772-7.607-.978c8.021-.851 10.789-.23 14.536 2.885-2.982 1.265-4.677-1.405-6.929-1.907zm60.571-2.239c.79-.117 1.583-.214 2.368-.358.602-.111 1.192-.284 1.787-.429.793-.193 1.582-.503 2.382-.538.52-.023 1.058.354 1.649.574-1.679 1.898-1.679 1.898-8.186.751zm10.16-.642.056-.29.287.2-.343.09zm-12.317-7.272-2.173 1.024c-.245.298-.47.692-.766.757-3.295.723-6.606 1.376-10.662 2.201l-.948.984c-.037-.011-.497-.003-.713-.229-1.958-2.056-4.816-1.309-7.095-2.333-2.009 1.18-3.621-.591-5.456-.773-1.854-.184-3.812-1.368-5.466-.99-1.849.423-3.636-.885-5.497.357-.748.499-2.333-.257-3.813-.484l-7.966-4.415c-3.899.031-7.509-1.003-11.524-2.439 2.698-.909 5.035-.307 7.315-.361 3.581-.084 7.113.306 10.721-.705 2.331-.653 5.007-.073 7.535-.025.368.431.7.987 1.153 1.115 1.005.283 2.093.268 3.416.404l4.011 4.636c2.041-.114 1.012-2.685 3.036-3.347 3.286.195 6.272 3.993 10.426 2.39.541-1.013-.212-1.447-.973-1.723-.34-.124-.881.306-1.222.183-2.726-.985-5.427-2.043-8.243-3.119l.515-2.356-1.222-1.382c1.665-.841 2.83-.336 3.609 1.423l2.956-2.97 5.333 1.947-.853 3.87c2.69 1.025 5.203.811 8.027.593l1.366-3.207 2.37 5.221c.067-.007.283.038.382-.05.313-.276.583-.601 1.222-1.285l1.031 1.929 1.311-3.1 2.127-.353 1.771 2.084c2.658.97 5.058 2.618 8.15 2.87-2.923 2.9-6.829 3.335-13.191 1.658zm11.539-18.494.216-.282.111.342-.327-.06zm1.939.563 2.369-2.418 4.711 1.998 1.931-1.346-.086 3.65-2.395 1.698-4.288-.438-2.242-3.144zm6.431 25.311c.735-.503.663-.031.678.335l-.678-.335zm2.799 3.696c-1.822-.326-1.908-1.651-1.872-3.048l1.601.191c.786.925.995 1.838.271 2.857zm1.634-28.005.227-.297.128.356-.355-.059zm4.665-30.333c-6.024 2.441-11.934 1.12-18.114-.605 1.781-1.511 3.609-1.87 5.448-2.339 1.608-.41 3.102-1.266 4.714-1.955 2.618.388 5.44-.683 8.04 1.133l-.088 3.766zm5.671 38.37-.265-.212.328-.104-.063.316zm37.097-50.78 1.403 1.612c-1.708.333-2.251.018-1.403-1.612zm-7.832 8.686c2.05-.623 4.116-.373 6.367.186-.501.413-.746.782-1.049.837-2.049.37-4.108.682-6.168.98-.154.022-.345-.211-.839-.536.605-.546 1.065-1.277 1.689-1.467zm5.04 4.197-.203.286-.094-.343.297.057zm-31.841-7.134-.246.322-.149-.381.395.059zm8.709 72.485-9.229-1.717 2.92-3.572 1.468 1.428.004-.008 4.892.602 1.131 1.813c-.433.533-.825 1.012-1.186 1.454zm-3.428-29.787c.077-1.15.914-1.512 2.028-1.848l.955.993c-.96.366-1.684 1.54-2.983.855zm8.768.5c-1.646 1.26-3.485.257-5.339.385l-.151-1.76 2.6-2.272c1.98-.268 3.083.713 3.57 2.539-.255.432-.383.88-.68 1.108zm1.695-41.576c-1.42-.146-2.86-.443-4.288-.397-1.243.04-2.474.468-2.574.489l-6.502-.571-.749-.857c.437-.791.596-1.413.825-1.44 1.869-.224 3.793-.656 5.618-.409 2.843.385 5.62 1.254 8.49 1.934l-.82 1.251zm1.303 12.746c-.097-2.342 1.563-1.34 2.538-1.857l.939 1.939-3.477-.082zm4.534-12.312-1.433-.034.009-.376 1.433.034-.009.376zm19.448 35.102c-1.249.162-2.525.277-3.778.199-.981-.061-1.841 1.251-3.13-.031l1.845-1.515.079-3.363 5.701 3.822c-.235.329-.444.853-.717.888zm1.031-1.012.315-.684c.528.725.051.661-.315.684zm6.057-18.195c-7.208.832-8.518.724-14.247-.79-1.209-.32-2.502-.41-3.759-.436-2.762-.057-5.329-.706-7.872-2.291 2.59-3.018 6.112-.851 8.977-1.763l1.631-3.374 1.367 3.401 1.198-.261c-.522-1.554.303-2.35 1.776-2.936l1.587 1.134-2.334 5.743c1.554 1.152 2.653-.753 4.063-.661 1.268.083 2.544.043 3.812.124 1.424.092 3.013-.438 4.12.991-.105.372-.212.745-.319 1.119zm-5.201-3.872.056-.318.305.212-.361.106zm.969-3.203.745.393c-.789.504-.727.009-.745-.393zm2.94 3.321.01-.418 1.418.033-.01.418-1.418-.033zm3.785 3.969c-.755-1.248-.756-2.169.154-3.178l1.536.376-1.69 2.802zm7.798-5.243-4.731-2.758-2.306.757-2.934-1.958-1.448 1.193-2.265-.685-.955 1.159-2.642 1.295c-1.673-1.528 1.338-3.264-.606-4.6-1.019-.838-1.844.323-3.52.351l-3.091-1.473 1.351-2.495c2.4-1.821 4.634.707 6.834-.221 5.201 2.49 11.109 2.185 16.44 4.16l1.152 1.479c.658.15 1.687-.525 1.829 1.096l-3.108 2.7zm2.865-13.422c.441-.553.614-.954.788-.954.589 0 1.179.141 1.769.229l.001.526-2.558.199zm25.818-5.16c.128.349.29.693.354 1.054.015.085-.407.357-.443.326-.567-.482-.634-.965.089-1.38zm-2.987.356c-.016-.082.377-.357.424-.323.635.457.542.913-.061 1.332-.131-.334-.294-.662-.363-1.009zm6.989 5.952c-.954.899-2.104 1.246-2.971.549-1.081-.869-2.603.52-3.386-.895-.166-.3-.143-.704-.266-1.385l6.862.162-.239 1.569zm.436-1.673c.277-.91.943-1.177 1.736-.721.326.187.356.888.707 1.88l-2.443-1.159zm11.897-1.688c-.521-2.269 1.066-.874 1.856-1.031l2.092-1.471 1.939.821c-2.885 2.314-2.926 2.331-5.887 1.681zm9.268 10.979c.369-1.857 2.199-1.202 3.209-2.03-.301 2.144-1.671 2.199-3.209 2.03zm-3.114-12.645c.044-.2.063-.451.177-.506 3.419-1.639 7.01-1.821 11.964-1.46-4.694 2.121-8.019 4.84-12.141 1.966zm17.003 1.144c1.964-1.844 4.489-1.999 6.91-2.667l1.14 1.595c-2.771.506-5.171 2.311-8.05 1.072zm273.31-.15-.213.285-.116-.342.329.057zm-20.832 3.155 1.455.103-.02.387-1.455-.034.02-.456zm-48.518-26.937c1.835-.089 3.68.032 6.974.109l-5.754 2.049-2.451-1.122c.408-.398.805-1.015 1.231-1.036zm-1.537 1.122c-.304.817-.839 1.111-1.754.594.383-.902 1.113-.607 1.754-.594zm.824 4.369c-1.025.796-1.914.473-3.097.128 1.246-.897 2.145-.775 3.097-.128zm-2.004 4.331.348-.701c.543.769.034.683-.348.701zm-3.346-3.048c-1.583.812-2.036-.271-2.456-1.427 1.446-.595 2.176.016 2.456 1.427zm-11.171-3.603c1.325-1.411 2.941-1.266 5.541-.511l-5.52 1.632c-.019-.526-.169-.963-.021-1.121zm-62.165-38.083c.641 1.164.172 1.618-.573 1.923 0-.646.016-1.304.573-1.923zm35.931 54.952-1.389-.033.016-.339 1.388.112c-.004.087-.009.174-.015.26zm30.297-.694-9.08 1.367c-1.55-1.031-3.29.202-4.856-.397-.765-.292-1.457-.775-2.676-1.442 2.241-.673 4.07-.152 5.824-.363 1.86-.224 3.756-.287 5.573-.699 1.918-.434 3.752-.438 5.642.017l-.427 1.517zm3.108-1.021-.369-.222.42-.113-.051.335zm3.805.156-1.369-.329c.149-.1.319-.304.441-.278.339.07.659.236.987.363l-.059.244zm-31.401-5.286-3.932 2.19c-1.395-.033-3.298-.099-5.202-.118-3.811-.039-7.557-.111-11.4.673-3.436.702-7.165.729-10.707-.63-1.321-.507-3.057-.746-4.362-.337-4.636 1.453-9.292.601-14.005.651l-5.08-2.038c-.302-1.276-.588-2.341 1.142-2.897l1.737 1.653 1.21-1.282c3.32-.514 6.831-1.072 10.347-1.599 7.926-1.189 15.958-1.458 23.863-2.945 3.706-.698 7.592-.716 11.379-.57 1.35.052 2.42-.149 3.611-.551 1.399-.472 2.841-.99 4.293-1.098 4.832-.36 9.677-.545 14.565-.799l-.055 2.338 4.621 1.355 1.402 1.926c3.025 1.336 6.069-.42 8.397 1.676.114.103.064.387.109.731-10.617 1.399-21.276 1.986-31.933 1.671zm34.061-1.038c-.583-1.273-.262-1.844.702-2.083l1.182 2.246a748.23 748.23 0 0 0-1.884-.163zm21.385 15.802-.113-.347.33.06-.217.287zm-3.849-17.659c-2.721-.257-5.338.919-8.135.201-1.195-.307-2.651 1.701-3.893-.016l-1.993 1.974-1.602-.138 2.277-3.256c3.585-.243 7.103-.633 10.625-.675 3.296-.039 6.619-.2 9.834-.618 4.864-.633 9.688-1.075 14.577-.814.624.033 1.243.165 1.907.256l1.278 1.423c-.318.291-.553.699-.816.718-2.733.195-5.421.328-8.145 1.031-2.395.618-5.069.189-7.62.16-2.767-.03-5.546.014-8.294-.246zm10.347 17.732-.286-.205.342-.103-.056.308zm2.132-.379.844-1.513 2.592 1.243c-.86 1.852-2.037 1.434-3.436.27zm3.756-.375c.722-1.244 1.747-1.268 3.002-.545-.849 1.195-1.989.524-3.002.545zm2.907 3.519 3.004-3.062c1.926-.429 3.201.324 3.94 2.516l-3.246 3.128-3.698-2.582zm75.086 12.4c-.386-.089-.745-.29-1.154-.466.265-.223.544-.629.757-.597.306.045.564.41.842.639-.15.15-.335.45-.445.424zm-.017-5.839-2.765 3.254.033.008-.292 2.221c-3.492.427-7.049.351-10.605.315-5.678-.059-11.268-1.415-16.967-1.148-4.541-1.388-9.308-.503-13.89-1.241l-.122-1.848c-1.502-.776-1.485 1.086-2.541 1.387-1.389-.525-3.131-.759-3.901-2.88l7.77-1.072c1.613.689 4.109.974 6.985.037 2.519-.821 5.452-.369 8.346-.485-.777-1.556-2.083-.876-3.07-.951-2.524-.192-5.13.186-7.203-1.389-4.697 1.166-9.287 1.663-13.879 2.153-5.351-1.46-11.139.59-16.474-1.906.309-1.646 1.686-.842 2.402-1.307.888-.576 1.752-1.191 2.84-1.935 1.905.045 4.019-.021 6.107.177 2.041.193 4.057.656 5.951.978 1.053-.574 2.111-.759 1.992-2.265-.076-.959.409-1.963.709-3.226 1.495.256 2.861.564 4.245.706 1.259.13 2.537.081 3.489.103l3.528 2.445 2.391-.969 2.356.533 1.049-2.258 4.108 2.654c2.015-2.025 4.451.856 6.812-.669 2.369 1.522 5.03 2.228 8.07 2.138 2.208-.065 4.445.891 6.705 1.399l2.475-1.437c4.282 2.279 9.625.703 13.988 3.141l5.448-1.309 2.727 2.28.201 2.715-4.656 2.465-2.26-2.395c-2.747-.237-5.615-.548-8.491-.703-1.252-.064-2.521.19-3.611.284zm5.452 5.664-1.446-.034.01-.414 1.446.034-.01.414zm2.71.098c-.542-.716-.066-.672.304-.707l-.304.707zm.733-2.013c.242-.855.631-1.519 2.013-.626l-2.128 1.519c.019-.303.035-.607.115-.893zm6.239 34.061-1.75-1.984-2.145.449-.399-.783c2.551-2.464 4.769.393 7.159.454-.432 1.326-1.853 1.243-2.865 1.864zm3.166-2.028c.618-1.466 1.66-1.421 2.993-.611-.842 1.226-1.96.722-2.993.611zm3.763-35.576-1.654-1.596c1.569-1.437 2.561-1.126 3.961.27l-2.307 1.326zm4.929.081c-.24.25-.692.297-1.054.437-.689-1.036-.594-1.954.741-3.06l1.286 1.187c-.306.469-.572 1.018-.973 1.436zm6.416.141-3.658-.479-.09-1.505c1.552-.757 3.079-1.227 4.614.415l-.866 1.569zm5.419-.596-.303-.524.203-.559c.169.214.385.409.48.652.032.082-.244.284-.38.431zm4.268 41.542-.088-.536c.418-.057.835-.139 1.254-.15.081-.002.169.272.254.418l-1.42.268zm7.206.785 2.171-.222c-.326.751-.904.928-2.171.222zm2.522-.464.392-.79c.649.88.049.771-.392.79zm17.423 2.874-11.243 1.252-3.78-2.036.288-2.784 1.635 1.528 1.34-2.792 2.718-.159-2.061 2.524c.604.381 1.091.946 1.569.939 1.249-.018 2.49-.345 3.742-.44 1.399-.106 2.807-.092 4.516-.139l1.186-1.048 1.254 1.376-1.164 1.779zm8.672-5.119-.129-.347.357.063-.228.284zm2.469 7.874a90.52 90.52 0 0 0-.079-.512c.41-.055.82-.134 1.231-.143.081-.002.168.269.252.414l-1.404.241zm4.832-45.962c-2.749.244-5.423.23-8.07-1.011-1.271-.596-2.843-.548-4.276-.803-1.013-.18-2.156-.14-3.01-.614-3.37-1.869-7.114-2.666-10.817-4.047l-2.208.659c-.321-.032-.575.015-.738-.085-2.773-1.711-5.879-2.217-9.01-2.891a57.805 57.805 0 0 0-6.252-1.015c-3.306-.344-6.382-1.358-10.062-4.068 4.924.288 8.737-.36 12.429 1.139.577.234 1.239.312 1.869.351 2.747.17 5.388.693 8.09 1.339 4.912 1.174 10.028 1.496 15.326 2.21l1.974 1.915c3.935 1.183 8.266-.654 11.597 2.127l3.319-.788c1.005.768.068 1.526-.007 2.324l1.301 1.97-1.455 1.288zm3.311 20.349.054-.321.322.215-.376.106zm3.095-21.712.055-.306.273.202-.328.104zm4.242 51.261-.347-.007.031-1.297.347.007-.031 1.297zm20.726-17.734.116.32-.328-.06.212-.26zm-5.113-16.372c.272.031.513 0 .549.072.478.96.122 1.416-.785 1.514l.236-1.586zm-1.3 24.546-.042-.531 2.15-.249.014.83-2.122-.05zm5.17-13.316.286.199-.339.1.053-.299zm.282 11.924 2.239 2.434c-1.885.566-1.821-.289-2.239-2.434zm2.779-26.798-.369-.268.43-.164-.061.432zm1.442-18.068.216-.295.112.354-.328-.059zm15.606 55.558-.396-.24.448-.128-.052.368zm-1.574-31.923-3.951.217c-.717-.227-1.182-.259-1.499-.493-2.37-1.748-5.414-1.895-7.885-3.378-.079-.047-.002-.355.007-.734 4.858.66 9.393 2.973 15.029 1.943l-1.701 2.445zm51.753 26.211c-1.261 1.373-2.494 1.924-4.106 1.374l-1.355 1.548-1.592-2.911c2.484-.636 4.664-.213 7.053-.011zm-6.649-30.148-.643-.319c.687-.453.629-.024.643.319zm1.413 8.836-2.973 2.43c-1.391-.5-2.073-1.155-2.057-2.506 1.316-1.298 2.782-.937 5.03.076zm-7.426-.386c.146.013.419.022.419.038.011.48-.004.96-.015 1.44l-.52-.016.116-1.462zm-1.098-2.777.348.225-.403.11.055-.335zm-2.803.932.711.96c-1.51 2.352-1.51 2.352-3.434 1.638.021-1.806 1.06-2.527 2.723-2.598zm-4.772.271c.124.351.285.696.345 1.057.015.09-.298.234-.46.353-.129-.352-.292-.698-.356-1.062-.015-.085.305-.23.471-.348zm-4.003-12.568 2.154 2.542c-.46 1.607-1.437 1.545-2.367 1.551l.213-4.093zm1.767 8.519c-.002.098-.247.191-.38.287l-.209-1.424.496-.061c.038.399.103.799.093 1.198zm-2.266-4.254-.503.705-.45-.738.953.033zm-2.041 9.32 1.409.096-.016.308-1.409-.033.016-.371zm-3.678-4.057.083.369-.276-.048.193-.321zm-4.071 10.186.112.334-.32-.057.208-.277zm-5.858-9.369c-1.427.984-2.022-.338-2.843-1.017 1.199-.398 2.366-.705 2.843 1.017zm-4.643 9.398 1.518-1.834 5.08.12 1.471 1.654c-.974 1.066-1.671.249-2.766-.035l-2.606 1.638-2.697-1.543zm6.028 21.858c1.38-.898 2.646-.835 3.906.16-1.35.701-2.628.866-3.906-.16zm3.891-7.337c-1.399.246-2.863.122-4.707.165l-.511-1.674 8.107-.629c-.739 1.693-1.918 1.968-2.889 2.138zm11.524 5.146c-2.281.278-4.93.975-7.838 0 4.005-2.074 7.939-2.086 11.875-1.673.557.631 1.039 1.054 1.352 1.579.191.32.12.796.278 2.173-2.277-.834-3.816-1.399-5.667-2.079zm7.811-2.267c.812-.92 1.702-.948 2.664-.246-1.273 1.94-1.273 1.94-2.664.246zm1.273-9.986c-.75.108-1.543-.076-2.453-.136.971-2.365 3.054-2.369 4.575-3.101 1.498.223 2.225 1.069 2.523 2.337-1.546.314-3.086.675-4.645.9zm4.877-.767c.356.001.721-.026 1.04.083.842.286 1.568.707.787 1.783-1.106-.174-1.623-.875-1.827-1.866zm1.465 6.031.202-1.867 2.388 1.234c-.646 1.403-1.562.358-2.59.633zm4.529 24.865c-1.21.016-2.166 1.498-3.505.559 1.915-2.191 2.36-2.27 8.583-1.109-2.43.278-3.753.533-5.078.55zm8.483-20.821-1.38-.033.009-.385 1.38.033-.009.385zm1.454-5.115-1.443-.106.028-.401 1.444.097-.029.41zm8.495-.395c-.066-.254.258-.61.406-.92.131.321.436.7.353.952-.173.525-.618.508-.759-.032zm15.804-1.889c.138.338.46.739.371 1.003-.183.546-.652.524-.799-.042-.069-.265.272-.637.428-.961zm-7.057-4.386-.032 1.365c-.721.781-1.335 1.086-2.258-.026l2.29-1.339zm-3.047 5.804c3.167-2.184 3.167-2.184 8.524-1.297-3.457.645-5.697 2.394-8.524 1.297zm8.851 51.43c.828-1.075 1.628-.798 2.555-.388-.815 1.121-1.621.762-2.555.388zm4.938-52.503.058-.301.28.203-.338.098zm2.742 50.118c-.456.012-.913-.004-1.37-.015l.028-.511 1.388.131c-.016.137-.028.394-.046.395z" />
		<path d="m1135.708 161.252.103.126.018-.003-.121-.123z" />
		<path d="m771.406 202.712.041-.007.137-.155-.178.162z" />
		<path d="M740.029 174.954c.026.06.056.11.083.166.028.005.056.005.084.01l-.167-.176z" />
		<path d="m770.097 202.52.16.143-.16-.143z" />
		<path d="m777.109 179.74-.078-.086.125.194.036-.018-.083-.09z" />
		<path d="m925.647 225.385.139.159.02.006-.159-.165z" />
		<path d="m778.353 179.858.065-.029.1-.142-.165.171z" />
		<path d="m854.625 199.425.021.118.158.044-.179-.162z" />
	</g>
</svg>
