<svg xmlns="http://www.w3.org/2000/svg" id="comp-lmo3nxlr-bottom" preserveAspectRatio="xMidYMax slice" data-bbox="0 92.287 1920 207.713" viewBox="0 92.287 1920 207.713" height="100%" width="100%" data-type="shape">
	<defs>
		<style>
			#comp-lmo3nxlr-bottom { fill: #FFFFFF; }
		</style>
	</defs>
	<g>
		<path d="M1882.047 175c.701-.268 1.405-.529 2.131-.794.964-.347 2.151-.682 1.031-1.007-3.805.003-7.547.191-11.228.364-.379.022-.783-.401-.441-.619.382-.238 1.523-.552 2.482-.699 5.027-.854 5.547-1 4.66-1.983-.409-.453-1.617-.798-2.506-1.185l-1.454.695c-.972.434-2.219.843-4.133.938l-6.233.19c-1.886.058-1.945-.321-.159-.844 1.911-.585 3.92-1.063 5.924-1.55.487-.119 1.087-.2 1.583-.317 1.086-.256.56-.918-.453-1.053-1.493-.201-3.28-.2-5.174-.128l-5.781.457c-3.084.28-3.281-.071-1.065-1.423.476-.294.618-.552 1.001-.909-2.133-.098-4.422-.094-6.496-.221-.282-.016.391-.609 1.038-.787 1.528-.414 3.759-1.039 4.91-1.053 4.544-.1 8.918-.747 13.605-1.553 2.168-.358 3.678-.836 3.364-1.083-.365-.285-1.155-.3-2.581-.234l-6.711.256c-1.833.057-2.18-.398-.791-.9 1.226-.443 2.522-.881 3.827-1.318 3.269-1.046 4.233-1.069 6.824-.465.663.152 1.074.418 1.974.5.888.077 2.465.059 3.332-.082.755-.123 1.061-.477 1.335-.728.13-.119-.129-.274-.475-.352-3.512-.778-4.356-2.379-11.922-1.858-.759.043-2.08-.223-1.868-.416 1.231-1.062-1.473-1.365-3.034-1.893-.12-.041.299-.246.645-.334a11.997 11.997 0 0 1 1.707-.298c2.435-.246 4.262-.092 5.819.071 1.562.185 2.873.441 4.366.71l-.374.13c.206-.048.409-.086.613-.129l-.155-.018c1.333-.457 1.583-.926 2.046-1.416.671-.695 2.778-1.247 6.345-1.438 2.995-.186 3.135-.604 1.141-1.149-1.565-.404-3.458-.643-6.071-.23-1.371.652-2.802 1.417-5.917 1.611-9.207.64-17.675 2.583-26.433 4.255l-.017-.004c.818-.302 2.427-.72 2.375-.837-.535-1.178 2.829-2.275 7.652-3.09-1.667-.727-3.502-1.423-1.41-2.792-3.165-.567-1.132-1.965-.864-3.075-.592.012-1.125-.026-1.718.046-4.845.675-8.044.877-8.925-.145-.444-.521-1.107-1.009-2.65-1.164-.772-.077-1.765-.072-3.059.057-1.288.139-2.864.431-4.82.881-.756.175-2.021.093-2.26-.081-.553-.404-.503-.986-.942-1.425-.27-.272-3.215.171-4.737.73-.969.345-2.18.937-2.211 1.145-.176 1.177.004 2.261-.045 3.406-.004.081-.937.483-1.395.601-1.044.263-2.782.695-2.959.63-.762-.309-.782-.894-1.625-1.171-.604-.198-2.022-.096-3.223-.054-.312.013-1.189.248-1.742.452-.511.182-1.399.601-1.352.628.571.337 1.747.471 1.834.959.116.655-1.695 1.881-.509 2.262.584.19-.367.983.042 1.257.391.264 1.304.412 2.568.259 2.496-.255 4.412-1.354 6.266-2.202.948-.427 1.518-.907 2.543-1.277.483-.175 1.314-.388 2.025-.554.707-.172 1.304-.26 1.304-.26-.14.932 2.294.957 4.212 1.169.925.102-.744 1.066-2.548 1.452l-7.537 1.626c-1.067.772-2.287 1.602-3.247 2.384-.455.371-.429.653-.621.974l-.152.06a4.03 4.03 0 0 0-.415.005c-2.93 1.018-3.873.938-4.158.394-.275-.53-1.552-.502-4.436.726-2.773 1.147-5.134 1.818-7.11 2.019a.332.332 0 0 0 .027-.013c.327-.378.522-.727 1.023-1.145.514-.43 2.105-1.306 1.873-1.329-.777-.075-1.957-.029-3.373.299-2.006.45-4.198.985-6.971 2.343-1.657 1.469-3.447 3.028-5.186 4.647 1.779-.163 1.201.569-.543 1.766-2.178 1.5-.775 1.726-1.421 2.683-5.575 2.801-3.997 3.674-6.118 5.567a3.439 3.439 0 0 0-.65.796c-.072.021-.141.041-.228.07-.018.006-.174.155-.324.298-.111.03-.226.067-.348.116-3.429 1.384-6.618 3.112-8.49 4.924-1.68 1.628-3.354 2.803-6.658 4.268-.849.301-2.133 1-3.257 1.697a41.334 41.334 0 0 0-3.247 2.252l-5.356 4.1c-.828.637-.958 1.414-.172 1.354 1.421-.109 2.904-.264 4.406-.43 1.373-.152 1.338-.009-.565 1.853-.25.245-.698.54-1.06.815-.753.131-1.521.281-2.316.465-.805.169-1.645.36-2.523.607-1.696.458-3.524 1.158-5.654 2.059 1.274.775 1.097 1.992-3.801 4.668-2.417 1.299-2.102 1.952-3.304 2.954-.013.005-.026.006-.039.01-.983.555-2.276 1.112-3.319 1.666-1.042.556-1.864 1.057-1.856 1.608l.345-.119c.011.023.021.046.04.068l-3.428 1.772c-2.279 1.243-4.618 2.334-6.942 3.496.763-.126 1.997-.442 2.128-.311.525.518.646 1.199.989 1.791.313.536.881.483 4.242-.637 3.894-1.359 3.906-1.363 4.251-.498.247.618.628 1.189.597 1.91-.009.205-1.148.92-1.964 1.301-.757.351-2.3.86-2.585.798-1.361-.267-2.99-.342-4.971-.178-.991.081-2.066.228-3.247.429a57.496 57.496 0 0 0-3.883.721c-2.439.54-4.229.664-5.656.394-2.09-.375-4.697-.484-6.922-.735-2.68.468-5.492 1.265-7.117 1.042-.466-.075-.649-.402-.28-.658.42-.303 1.578-.787 2.428-1.006.862-.225 1.799-.265 2.604-.319 2.474-.135 4.689-.881 6.679-2.022.684-.395 1.045-.833 1.84-1.172 3.817-1.71 5.729-3.238 6.384-4.62.15-.307.784-.762 1.187-1.163l.337-.208c-.117.073-.343.213-.357.229.128-.056.23-.099.322-.138l.104-.133-.001.001a61.006 61.006 0 0 1-3.778 1.715c-1.356.561-3.773 1.3-4.014 1.593-1.26 1.481-4.238 2.038-7.068 2.983-3.391.992-6.571 2.357-9.918 3.39-1.005.794-2.905 1.594-4.773 2.336-1.871.728-3.688 1.47-4.489 2.295-.924.978-2.92 2.007-4.757 3.171 1.552.578 3.324 1.286 5.244 1.94-1.881.581-3.748 1.044-5.604 1.568-.207.585-.295 1.154-.654 1.759-.461.789-2.338 1.397-4.587 1.433-1.412.034-2.637-.052-4.044-.017-1.218.052-3.131.617-3.632 1.089-.694.64-.213 1.01.899 1.397 1.844.642 1.15.968-2.117 1.888-1.165.326-2.296.653-3.504.934a42.73 42.73 0 0 1-3.966.661l-10.532 1.374c1.925 1.012 1.385 2.131-2.238 3.167-.703-.157-1.689-.272-2.05-.482-1.249-.744-3.344-.661-6.564-.391-2.664.24-2.755.147-4.086-.724-.883-.587-.903-.569-2.65-.232-.874.165-1.655.36-2.475.542-3.197-1.37-7.899-2.362-14.374-3.009l-.617-.081c.014-.034-.081-.046-.28-.036l-.455-.06c1.231-.482 2.136-1.013 3.038-1.543.989-.605 1.998-1.21 3.491-1.753.774-.288 2.899-.453 5.044-.526 2.144-.093 4.314-.042 5.188.232 1.366.428.464 1.02-.77 1.511l-4.449 1.764c2.77.064 4.897.105 6.569.096 1.672-.014 2.887-.128 3.84-.282 1.902-.322 2.748-.933 4.047-2.087.449-.393 1.129-.82 1.181-1.212.028-.209-.876-.501-1.649-.545-1.999-.093-4.143-.1-6.251-.063-3.722.003-5.664-.601-7.351-1.282.117-.128.089-.285.377-.387 3.64-1.296 4.911-2.709 4.572-4.224-.131-.587-1.259-.969-3.109-1.261-.855-.135-1.51-.348-2.252-.524l.146.102c-.372.248-.825.496-1.103.739-.879.782-3.273.884-5.978.847-.483-.007-1.079-.04-1.414-.122-.725-.194-.517-.394.591-.53 1.719-.213 3.95-.258 4.141-.901-3.207-1.071-3.465-1.148-1.006-1.855 2.855-.82 3.485-1.711 2.744-2.749l.426.008c-.018.038-.037.074-.046.13.181-.039.349-.08.516-.121l.073.002c-.009-.007-.015-.007-.024-.013 3.331-.825 4.089-2.076 6.532-3.048.391-.157-.251-.489-.449-.737-.23-.288.239-.45 1.403-.543 1.451-.147 2.866-.337 4.464-.524l2.465-3.12c-6.812.557-11.653-.255-16.103-1.345l-2.708.333c-.882.114-1.76.198-2.62.246a26.92 26.92 0 0 1-2.519-.031c-1.625-.098-3.123-.357-4.379-.818-2.284-.883-5.147-1.485-8.32-2.087-1.465-.299-2.008-.828-1.384-1.145.538-.284 1.957-.396 3.177-.522.797-.072 1.948.062 2.94.111.498.024 1.011.085 1.491.086.444.001 1.236-.053 1.216-.086-.144-.236-.194-.55-.753-.696-2.911-.77-5.773-1.837-7.516-3.037-.406-.273-.826-.572-1.519-.794-.669-.213-1.813-.482-2.551-.482l-8.448-.014c-2.23-.052-3.896-.535-5.189-1.091-1.235-.526-1.764-1.223-3.972-1.567l-5.211-.814c-1.734-.286-3.423-.519-4.945-.596-1.905-.078-3.76-.258-5.642-.456-1.882-.203-3.791-.435-5.788-.811-1.932-.347-3.219-.081-3.676.409-4.582-.554-9.278-1.368-13.564-1.556a20.906 20.906 0 0 1-2.34-.238l-.623-.102-.558-.114a32.518 32.518 0 0 1-1.136-.268 43.803 43.803 0 0 1-2.304-.657 45.674 45.674 0 0 1-2.241-.827c-2.025-.778-3.199-1.686-4.006-2.55l-.975-.429a206.044 206.044 0 0 1-13.255-6.533c-2.422-1.165-4.829-2.408-7.261-3.658-2.023-1.073-4.034-2.17-6.124-3.232-7.147-3.55-14.363-7.545-21.489-11.736l-1.966-.281c-1.012-.145-2.233-.682-3.462-1.62-1.23-.915-2.095-1.833-3.375-2.727-3.519-2.461-7.071-5.118-11.292-6.447a8.31 8.31 0 0 1-1.45-.632c-5.333-3.08-9.73-4.491-14.169-5.944a33.813 33.813 0 0 1-2.948-1.121 39.89 39.89 0 0 1-3.011-1.4 44.454 44.454 0 0 1-5.791-3.582c-.386-.281-.971-.591-1.465-.889l-5.682-3.158c-.384-.216-.858-.574-.89-.692-.121-.448.638-.202 1.884.628a251.851 251.851 0 0 1 4.738 3.25c-.791-1.249-1.519-2.445-2.58-3.782-.288-.361-1.815-1.378-2.459-1.626-1.458-.562-3.129-1.312-4.617-1.883-1.484-.574-2.854-.923-3.582-.761-.679.154-1.361.239-3.182-.531-2.208-.926-4.439-2.087-6.632-2.937-2.941-1.089-5.462-1.743-6.208-1.196-.126.093-.309.162-.37.283-.136.274-.924.202-2.255-.4-.834-.377-2.094-1.157-2.093-1.331.03-.946-2.054-2.056-5.355-3.316-1.099-.419-2.226-.769-3.341-1.145l.322.045c-1.534-.967-2.961-1.988-4.525-2.906a117.674 117.674 0 0 0-4.91-2.816c-1.387-.748-3.007-1.441-4.747-2.058-1.742-.613-3.665-1.056-5.562-1.448-1.369-.273-2.328.149-1.175.707 1.333.645 2.7 1.369 4.307 1.93 3.338 1.225 4.533 2.196 5.744 3.264 1.941 1.764-2.194 1.27-6.383-.121-2.912-.881-5.744-1.943-8.649-2.893-.325-.106-1.038-.123-1.209-.052-.173.072-.1.279.209.467 2.579 1.586 5.832 3.074 10.585 4.178 3.463.881 6.667 1.734 10.405 3.134 3.9 1.554 8.017 2.967 12.009 4.508.8.31 1.76 1.046 2.033 1.386.431.554.456.978.605 1.441-.303-.579-1.798-1.363-3.316-2.038-.998-.439-2.609-1.085-3.144-1.146-.962-.11-.208.427.716 1.001.657.408 1.177.975.857 1.054-.872.216-2.158.243-3.382.293-2.984.141-5.511-.775-8.744-2.97-1.879-1.261-4.173-2.327-7.157-3.368-.844-.294-2.182-.505-2.666-.463-.808.077-1.114.399-1.771.677-5.589-1.768-11.16-3.405-16.119-4.929-6.638-2.299-14.046-4.05-19.453-6.33-.411-.154-1.097-.377-1.044-.458.187-.285 1.236-.258 2.796.142 2.34.569 4.66 1.413 7.085 1.48.899.024 1.87-.002 2.144-.174.418-.262-.589-.633-2.203-.931-4.347-.782-6.586-1.921-8.849-2.936-1.748-.107-3.948-.4-4.24.099-1.665-1.225-3.474-2.501-8.728-3.714-2.03-.413-3.237-1.147-4.708-1.739-1.877-.755-3.425-1.53-5.532-2.266-2.21-.823-5.117-1.231-8.721-1.206-3.015.038-4.634-.414-6.343-.989-1.261-.468-4.234-.418-4.962-.173-2.778 1.012-5.489 2.014-3.694 3.361.615.465-3.032.953-5.285.7l-1.954-.202-1.905-.111c-1.272-.066-2.55-.116-3.83-.152-2.563-.072-5.14-.087-7.73-.057-2.578-.012-5.221.208-7.856.404a374.17 374.17 0 0 0-7.934.708c-1.185.114-2.469.114-4.117.28-1.224-.093-2.605-.243-4.193-.303-4.089-.156-6.56-.593-4.918-1.854.087-.066-.797-.176-.951-.148-1.033.191-2.741.465-2.839.617-.456.698-.877 1.466-.515 2.07.431.697 3.148 1.141 2.187 2.072a50.542 50.542 0 0 0-4.199 1.154c-2.881.951-3.815 1.734-2.15 2.246l-.613.006.457.033c.182.014.364.031.433.038l.046.013-.027-.011.015.001c.013.009-.213-.081-.213-.081 1.872.033 2.131.527.624.923-4.805 1.278-8.783 2.575-13.536 4.218l-5.152-.156c-1.704-.043-3.395-.12-5.05-.066.406-.786.781-1.559 1.386-2.336.606-.765 1.438-1.559 2.758-2.439 2.433-1.612 1.109-2.657-4.496-2.39-.857.072-3.216.609-3.446.76-1.574 1.03-4.476 1.873-7.267 2.751-1.721-.739-5.429-.372-11.43 1.272-15.334 4.349-30.176 10.651-44.069 16.865-2.076.867-4.386 2.457-6.079 3.632-1.679 1.191-2.667 2.271-4.03 3.423-1.553 1.383-3.291 2.317-5.36 2.912-1.24.356-2.554.481-3.709 1.106-9.343 5.197-18.603 10.049-26.285 16.293l-3.091 4.695c-2.729 1.656-4.252 1.994-5.169 1.695-.656-.22-.744-.935-1.898-.681-1.93.452-4.213 2.218-6.337 3.462l-3.26 1.908-3.207 1.781-3.212 1.764c-1.066.563-2.119 1.074-3.181 1.603-1.708.828-3.411 1.598-4.839 2.582a25.982 25.982 0 0 1-4.165 2.305c-.712.315-1.431.613-2.154.872a58.24 58.24 0 0 1-2.179.651c-2.557.683-4.847 1.707-7.241 2.985-1.371.769-3.198 1.717-4.678 2.172-1.615.449-3.225.889-4.811 1.41-1.596.49-3.143 1.118-4.76 1.551l-4.789 1.439c-.801.227-1.582.494-2.399.673l-2.444.52c-1.665.335-3.315.695-4.956 1.078-1.638.388-3.347.631-5.007.977l-5.004 1.007-5.129.779-5.163.802-5.286.587-5.285.591-5.401.3c-2.293.103-4.564.248-6.863.333-2.326.02-4.649.053-6.966.111l-3.475.106-1.736.07-1.735.007c-2.312.016-4.624.069-6.935.171-1.879.066-3.962.097-5.84-.117l-7.131-.676c-1.182-.118-2.399-.153-3.57-.29a66.727 66.727 0 0 0-3.568-.279 48.386 48.386 0 0 1-3.853-.363c-1.259-.179-2.536-.327-3.74-.624-2.438-.533-4.863-1.076-7.405-1.388-.451-.056-.905-.165-1.36-.245-3.701-.871-7.111-1.105-10.357-1.218-1.016-.061-1.164.117-.481.582.657.447.497.782-.334.586-2.505-.589-5.437-1.017-7.104-2.203-.851-.645-1.256-1.3-1.901-1.992l-6.064-1.414c-1.945-.549-3.852-1.088-5.76-1.581-.815-.214-1.613-.351-2.403-.486l-1.906-.399-.088-.073a31.23 31.23 0 0 0-3.148-1.918c-1.102-.581-2.253-1.119-3.43-1.712a60.302 60.302 0 0 0-3.667-1.605l-1.915-.738-1.958-.797c-1.629-.651-2.642-.627-2.536.196.042.319.263.712.3 1.028.088.744-1.221.602-3.19-.311l-1.411-.667-1.412-.747-2.825-1.496a72.343 72.343 0 0 0-2.849-1.409 45.06 45.06 0 0 0-2.929-1.344c-1.22-1.491-3.043-2.384-5.024-3.345-1.979-.96-4.06-1.863-5.671-3.153-.963-.771-2.849-2.038-3.846-2.431-3.805-1.498-7.067-3.827-10.538-6.267a55.109 55.109 0 0 0-5.594-3.455 46.977 46.977 0 0 0-2.797-1.382 42.346 42.346 0 0 0-2.843-1.159c-1.774-.647-3.889-1.778-5.805-3.112-5.299-3.585-8.956-5.06-11.575-4.863-.46.034-1.288-.171-1.995-.303-.947-.177-3.227-1.447-3.993-2.239-.788-.815-1.42-1.54-2.267-2.356-1.308-1.246-3.493-2.573-5.545-3.173-3.428-.978-7.062-2.312-11.26-4.322-2.631-1.153-5.266-2.327-7.91-3.451l-1.985-.832-2.034-.748a119.714 119.714 0 0 0-4.085-1.384c-.99-.315-2.226-.994-3.35-1.503-1.413-.669-2.632-1.57-2.298-1.872.283-.249.962-.363 1.775-.323a8.15 8.15 0 0 1 2.549.625c.988.431 1.914.957 2.676 1.417.834.504 1.274.975 2.186 1.47a26.37 26.37 0 0 0 2.578 1.226c.826.345 1.583.648 2.273.846 1.37.405 2.407.463 2.761.073.301-.332.205-.884-1.849-1.815l-5.044-2.287c-1.518-.716-2.856-1.406-4-2.073-1.145-.668-2.099-1.314-2.851-1.94-.758-.615-1.329-1.185-1.673-1.762-.278-.461-1.708-1.324-3.091-2.017-2.062-1.023-4.232-2.052-6.601-2.936a73.864 73.864 0 0 0-7.724-2.249c-1.548-.348-3.125-.748-4.714-1.068a91.233 91.233 0 0 1-4.715-1.053l-4.587-1.168c-1.529-.392-3.058-.789-4.592-1.089l-9.203-1.933-2.303-.479-2.298-.388-4.597-.76-4.601-.749c-1.535-.252-3.072-.507-4.593-.666-2.545-.306-5.234-.754-7.619-.877l-3.643-.209-1.817-.121-1.797-.062a350.978 350.978 0 0 1-7.181-.343l-7.172-.459a517.708 517.708 0 0 1-7.107-.331c-3.14.125-6.27-.08-9.408-.194-3.137-.048-6.284-.077-9.429.221-1.375.131-2.757.229-4.146.305l-2.089.098-2.125.144-8.642.483c-4.661.183-9.564.663-14.284 1.237-2.365.316-4.671.574-6.923 1.091-2.249.497-4.413 1.065-6.443 1.724-1.706.553-3.628.655-5.479.842-3.117.382-6.205.634-9.444 1.59-1.883.579-3.738.976-5.587 1.395a54.046 54.046 0 0 1-5.583.964 76.456 76.456 0 0 0-5.467.845c-7.21 1.616-14.322 3.453-18.105 6.646-.273.222-2.365.979-3.21 1.165-1.661.367-3.402.662-4.463.747-2.579.151-5.773 1.142-9.83 2.807-2.077.907-4.106 1.88-6.145 2.839-2.02.977-4.11 1.903-6.058 2.929-3.94 2.014-8.025 3.913-12.007 5.717-1.041.457-2.335 1.171-3.306 1.779-5.695 3.611-12.398 6.607-17.132 10.018-5.719 4.124-10.805 6.396-15.965 9.278-1.429.799-2.835 1.727-4.135 2.602l-5.243 3.614c-1.694 1.158-3.401 2.297-5.162 3.36a41.545 41.545 0 0 0-4.266 2.964c-1.223.959-2.36 1.914-3.715 2.891-1.616.32-3.108.468-5.572 1.874-2.138 1.259-4.453 2.226-6.291 3.423a46.64 46.64 0 0 1-2.737 1.638c-.919.477-1.847.933-2.78 1.378-1.866.864-3.746 1.8-5.621 2.549-1.272.542-1.874 1.138-1.249 1.438.486.233 1.325.335.522 1.048-1.313 1.166-1.707 1.979-1.209 2.558.155.179-.062.675-.551.988-1.284.85-2.263.81-2.979.712-1.277-.192-3.214.435-5.168 1.086-.97.346-1.967.621-2.881.803-.914.187-1.745.283-2.406.188-.278-.04-1.607.481-2.433.775-.408.144-.781.359-1.174.541a9.207 9.207 0 0 1-1.202.493c-.359.117-1.042.296-1.085.266-.26-.181-.734-.374-.465-.641.512-.523 1.538-1.05 2.224-1.632 1.035-.869 1.047-1.303-.046-1.12-1.085.211-2.456.318-3.547.691-2.122.657-4.18 1.457-6.317 2.088-2.143.614-4.29 1.234-6.46 1.817l-1.211.341-1.129.286a20.31 20.31 0 0 0-1.944.626c-1.165.448-2.078.966-2.808 1.61-.557.463-2.807 1.1-4.447 1.519-.528.288-1.093.576-1.581.868-1.23.736-2.661 1.355-4.384 1.82-.865.224-1.787.445-2.822.56a36.449 36.449 0 0 1-3.387.154c-3.758-.019-7.084.975-8.232 1.787-1.235.936-3.609 1.34-5.715 1.953-.464.135-.096.491-.101.748l-.138.005c.457.193 1.326.361 1.432.596.427.958 2.194 1.332 5.928 1.053 1.027-.124 1.589.066 1.222.409-.492.458-.834.943.579 1.042 3.903.275 4.233 1.669 8.243 1.948 1.918.135.912.829.949 1.344.015.205.646.348 1.347.476.692.104 1.458.205 1.763.394.662.412.14 1.05-1.516 1.689-4.44 1.476-4.644 1.525-4.193 2.141.815 1.123 1.806 2.222 2.793 3.322.312.346.577.783 2.377.662.919-.099 1.913-.483 2.911-.653 2.746-.469 3.908-.31 3.38.422-.104.144-.549.315-.663.46-.728.932-.458 1.145 2.489.622 2.66-.459 3.917-.339 4.871-.152.961.209 1.638.553 3.123.503 1.969-.067 2.39.43 1.892 1.108-.227.309-.595.64-.667.923-.233.915 1.187 1.14 4.41.469l3.89-.807c1.219-.226 2.375-.37 3.494-.4-.214-.191-.413-.386-.647-.57-.122-.096-.515-.218-.433-.25 1.155-.445 1.276-.367.825.14-.233.262.211.426.353.635l-4.782 2.708c2.634-.349 4.714-.435 4.918.346.146.554-1.507 1.382-3.698 1.808-1.009.22-2.361.182-2.948.383-2.697.915-5.517 1.824-8.088 2.771-2.547.913-4.883 1.707-6.598 2.695-1.441-.392-2.939-.801-4.443-1.209.04-.249-.267-.508.167-.766.453-.27 1.678-.531 2.473-.809.762-.268 1.407-.553 2.1-.831-5.312-.245-2.308-2.24-4.236-3.194-1.188-.599-1.914-1.343-3.817-1.714a179.55 179.55 0 0 0-6.713-1.35l-3.479-.627c-1.164-.205-2.325-.397-3.5-.673-2.178-.476-6.257-.06-8.334.77-1.898.759-1.217 1.175 2.826 1.671l2.753 1.669 4.617.292 4.944.104c-.605.243-.859.423-1.2.47-3.522.554-7.659.572-10.551 1.16-1.664.33-3.392.561-5.111.776-1.716.247-3.448.301-5.093.527-1.008.125-1.651.456-2.363.749-.061-.001-.091.011-.091.035-.128.052-.252.105-.389.152-1.582-.151-3.129-.139-4.662-.044-.865.054-1.726.13-2.587.211-.861.06-1.723.101-2.587.141-4.134-.483-6.574.635-10.344.493-.337-.013-.778-.118-.919-.202-.195-.117-.355-.281-.173-.379.699-.384 2.151-.569 3.749-.484 2.599.137 5.145.374 7.725.569-.421-.391-1.419-.824-1.107-1.159.314-.337 1.784-.62 2.995-.846 2.535-.536 5.664-.82 8.796-1.064 2.596-.228 5.054-.468 6.664-1.309-.811-.354-1.669-.827-2.688-1.274-.821-.357-2.356-.421-3.87-.085-1.755.391-3.678.756-5.468.349-1.681-.383-.783-1.007.225-1.499.992-.483 2.341-.923 3.53-1.381 1.079.263 2.923.393 3.389.129 1.938-1.101 3.395-2.274 1.24-3.418-.281-.149-2.044-.284-2.255-.224-2.117.598-4.026 1.248-6.097 1.865-.869.259-1.886.243-2.739.017l-.247.041-.247.032c-.086-.014-.175-.026-.261-.039.201 0 .419-.007.655-.025.647-.129.69-.304-.023-.446-.906-.214-1.81-.171-1.874.115-.017.073.025.137.116.189-.949-.136-1.892-.272-2.672-.455-2.374-.556-2.902-1.123-1.627-1.812.614-.332 1.872-.576 2.841-.857-2.206-.353-4.48-.562-6.995-.355l-3.498.289-3.493.122c-.279.008-.921-.16-1.14-.271-.237-.12-.418-.324-.208-.395 1.229-.419 2.812-.744 4.314-1.087 1.506-.355 2.956-.817 3.882-1.339l-.016.003c-.202.008-.384.009-.554.007l-.003.09.314-.055-.314.055c-1.454.009-2.91.046-4.339-.066-.309-.019-.915-.242-.862-.316.154-.213.406-.552.919-.564l4.313.033-.003.09c.164.003.339.008.533.022-2.597-.98 1.651-1.734.622-2.711-1.802-.436-3.511-1.058-5.646-1.37-4.268-.549-3.882-1.534-5.294-2.338-1.447-.027-2.974.036-4.312-.114-1.853-.253-3.609-.975-5.247-1.071-2.424-.17-4.633-.325-7.066-.718-5.389-1.046-10.186-2.023-12.685-4.083-.716-.552-2.102-.986-3.42-1.169-3.579-.448-4.57-1.656-6.45-2.599-.759-.39-1.808-.61-2.263-.431-.522.205-.995.423-1.718.47-.723.049-1.704-.061-3.176-.643-2.879-1.102-5.244-1.159-7.656-1.498-1.186-.201-1.709-.374-1.878-.917 1.388-.048 2.837-.084 4.409-.205 1.879-.109 3.874-.141 5.664-.278.663-.05.373-.457-.546-.843-.699-.295-1.943-.744-2.318-.735-3.617.164-7.053.086-10.433.073-.788-.194-1.562-.382-2.307-.616a60.086 60.086 0 0 1-2.166-.784 65.067 65.067 0 0 1-4.057-1.721c-1.307-.572-2.539-1.314-3.757-2.014a175.006 175.006 0 0 1-3.598-2.172c.057-.386.231-.756.154-1.217-.126-.715-1.443-1.499-3.205-1.825l-2.109-.434c-.837-.43-1.58-.881-2.283-1.34-.703-.486-1.365-.996-2.039-1.495-1.348-1.003-2.742-2.002-4.626-2.926-1.391-.729-2.198-1.917-4.317-2.483-.839-.224-1.905-.728-2.931-1.156-1.039-.459-2.041-.853-2.728-.797-1.563.123-3.353.086-5.181.014-1.221-.029-2.933-.912-4.764-2.284-1.603-1.206-3.171-2.073-4.798-2.661l.011-.002c-.022-.007-.043-.012-.065-.02-.098-.035-.193-.08-.292-.113l.041.039a7.276 7.276 0 0 1-.835-.278c-2.6-1.08-5.165-2.208-5.78-1.378-.483.654-1.992.63-1.618 1.877.416 1.331-4.038-.492-3.235 1.204.065.136-.551-.068-.799-.073-.618-.016-2.867-1.257-3.746-2.1-.836-.798-1.556-1.563-2.337-2.345.142-.028.257-.092.381-.145-.226-.055-.428-.082-.639-.119l.042.045-.033-.033.242.255c-2.196-1.219-4.146-1.973-4.668-1.625-1.165.768-4.04-.314-8.139-2.223-.269-.55-.303-.89-.693-1.371-2.646-3.258-3.224-5.349.93-4.853.7.088-1.006-1.673-2.117-2.165a425.515 425.515 0 0 0-6.046-2.699c-2.93-1.293-3.71-1.349-3.702-.179-.004.626.216 1.328-1.953.655l-5.425-1.706c-1.829-1.109-3.771-2.019-5.667-2.893a138.951 138.951 0 0 0-5.71-2.446l-5.838-2.175-5.9-2.268c-4.017-1.524-8.022-3.125-12.126-4.291-1.508-.457-3.282-.746-4.254-.759-1.245-.017.08.83.97 1.475 1.676 1.213 3.657 2.456 5.805 3.714a273.922 273.922 0 0 0 6.67 4.077c3.006 1.793 3.116 1.829 1.069 1.83-2.846.004-2.661-.024-.114 1.82 2.888 2.202 6.008 4.534 8.513 6.672 2.048 1.872 4.135 3.771 6 5.593a34.49 34.49 0 0 1 4.552 5.296c.755 1.122.816 1.893.111 2.316-.388.232-2.343-.218-3.271-.881a27.519 27.519 0 0 0-2.303-1.482c-.782-.421-1.567-.8-2.365-1.157-1.596-.713-3.246-1.338-5.045-2.044-3.266-1.257-6.661-2.471-9.923-3.936-3.323-1.352-6.59-2.823-9.663-4.551-1.619-.824-4.387-1.34-5.469-1.174-1.677.255-2.166.9-.934 2.173.998 1.032.61 1.601-1.287 1.602-1.19 0-2.532-.086-3.736-.098-1.21.001-2.303.131-2.953.441-1.476.725 2.315 2.427 2.638 3.57.124.431-.977.485-2.732.072-.955-.233-1.971-.653-2.961-.99-1.692-.09-2.986.046-4.397.113-.743.043-1.512.033-2.412.015a24.163 24.163 0 0 1-3.129-.257c-.248-.035-.53.165-.354.27.574.339 1.277.801 2.059 1.006 1.294.311 2.579.697 3.869 1.056 1.289.363 2.574.728 3.821 1.135.975.319 1.936.675 2.864 1.045.929.372 1.798.83 2.636 1.238.651.324 1.079.84.98 1.049-.1.213-.837.352-1.521.184-1.905-.51-4.004-1.082-5.998-1.517-3.556-.783-6.361-.477-5.792.58.263.492.826 1.06.844 1.484.044.927 4.57 2.565 3.459 3.14-.986.514-2.674.728-2.925 1.563-.233.762-1.714 1.154-2.404 1.79-.706.646-1.11 1.459.424 2.614 1.236.93 1.693 1.633 1.675 2.22-19.034-4.36-47.017-6.961-73.142-6.961V300h1920V173.049c-13.399 0-26.596.697-37.953 1.951zm-147.456 40.115c-.396.126-.89.18-1.032.119-.423-.182.965-1.048 2.449-1.545.348-.037.873-.158 1.012-.096.428.193-.931 1.049-2.429 1.522zm-1392.106-5.954c-1.351.108-2.752.153-4.163.201 1.388-.16 2.73-.404 4.106-.584 1.241-.169 2.537-.236 3.883-.245-1.176.369-2.484.51-3.826.628zm4.48-.745c1.544-.98 1.708-1.001 5.053-.968-1.461.467-3.245.725-5.053.968zm17.938 9.845c-1.345.197-1.726.086-.938-.256.246-.107.919-.213 1.325-.237.314-.02.519.087.773.139-.385.12-.763.295-1.16.354zm.328-5.1c-.341.03-.613-.065-.915-.105.891-.352 1.555-.413 2.001-.183-.364.1-.76.259-1.086.288zm-.681-2.227c-.788.111-1.594.011-2.389.005.787-.228 1.567-.547 2.359-.656.803-.111 1.621-.015 2.441-.009-.805.229-1.598.546-2.411.66zm8.217-3.871c.138.087-.734.58-1.296.718-.98.242-1.482.08-1.732-.204-.2-.227-.649-.404-1.146-.543-.417-.117-.948-.154-1.556-.11-.622.014-1.324.106-2.071.28-.861.2-1.583.492-2.386.738-2.842.84-5.612 1.108-8.245.884-2.36-.145-3.102-.659-1.869-1.476 1.101-.424 2.155-.854 3.39-1.192 1.32-.391 2.814-.757 4.826-.877a24.257 24.257 0 0 0 4.167-.625 17.952 17.952 0 0 0 1.821-.529 26.78 26.78 0 0 0 1.651-.71c1.038-.488 2.451-.833 3.768-.804 1.621.034 2.621.329 2.626.918.019 1.085-3.404 2.598-1.948 3.532zm9.051-6.027c-.12.234-1.08.688-1.822.921-.73.23-1.914.441-2.41.401-.349-.028-.175-.516.273-.757 1.254-.673 2.766-1.319 4.167-1.968l-.002.058c-.103.04-.227.092-.392.165.119.368.416.731.186 1.18zm-40.962 27.98a2.543 2.543 0 0 1-.582-.126l1.598.06c-.344.025-.759.087-1.016.066zm-14.266-2.258c.091.029.2.056.309.083l-.886.13s.59-.205.577-.213zm-9.421 3.345-.091.231-.836-.154.927-.077zm-6.481 2.259c.393-.006.831.081 1.251.13-.166.089-.289.248-.509.253-.382.008-.823-.078-1.239-.125.164-.091.291-.255.497-.258zm-200.781-89.717c-.808.062-1.374.257-2.381.194-.441-.027-1.797-.556-2.718-.912-.267-.103-.759-.536-.635-.588.314-.127.728-.325 1.453-.128 1.455.395 3.142 1.036 4.735 1.578l.796.324-1.25-.468zm935.81 72.059c.049-.096.013-.212.165-.284.136-.064.299-.122.468-.178l-.633.462zm1.241-.744c.377-.81.519-.828 2.976-1.687-.623.619-1.351 1.171-2.976 1.687zm3.46-1.893c1.566-1.552 3.227-2.506 6.005-3.384.396-.126 1.08-.251 1.079-.191a9.564 9.564 0 0 1-.242 2.526c-.002.009-.11.057-.282.126l-.676.261c-.529.198-1.162.422-1.581.546-2.466.725-2.093-.426-4.303.116zm9.095-8.833.686-.377.001.208-.687.169zm5.93 24.966a4.69 4.69 0 0 1 1.134-1.145c.801-.593 1.84-.963 2.469-.907.198.018.103.285-.173.474-.674.46-1.527.949-2.316 1.416-.395.061-1.163.228-1.114.162zm14.092-.196c.505-.057.975-.082 1.585-.226.942-.222 1.189-.133.395.465-.123.093-.867.361-1.088.385-.285.031-.375-.082-.474-.171-.16-.142-.288-.298-.418-.453zm47.341-5.385c.277-.252.579-.609.825-.737.744-.388 1.47-.688 2.176-1.016l-.771.742-2.23 1.011zm54.955-51.932.139.111c-.373.152-.893.41-1.088.434-.601.075-.227-.149.949-.545zm-1.219-9.163.332-.471c.435-.112.958-.281 1.262-.308.128-.011-.15.336-.344.417-.379.16-.828.246-1.25.362zm7.657-15.264c.948-.728 2.512-1.169 3.966-1.364.343-.054.813-.011.777.009-.663.374-1.3.747-2.136 1.107-.787.332-1.756.604-2.675.894-.057-.2-.277-.371.068-.646zm-.243-12.709 1.074-.403-.052.249-1.022.154zm5.925 21.228c-.433.329-.789.772-1.314.96-.851.306-2.182.632-2.643.609-.591-.03 1.401-1.099 2.891-1.522.395-.113.711-.037 1.066-.047zm-5.142 20.73c-.789.341-1.22.422-1.214.196 0 0 .704-.301.827-.303.19-.003.286.054.387.107zm-1.981-27.527c-.484.252-1.605.496-2.444.744.344-.286.534-.621 1.071-.849.673-.286 1.52-.518 2.333-.761-.256.29-.411.582-.96.866zm28.549 11.915c1.384-.119 2.579-.32 3.044-.231.364.079.125.547-.383.762a130.362 130.362 0 0 1-6.582 2.499c-.808.283-1.801.47-2.708.542-.899.095-1.703.097-2.154-.073-.299-.111.035-.664.509-.847 2.788-1.037 5.769-1.848 8.274-2.652zm.376-2.599c.341-.06.596.02.89.035l-1.1.442c-.378.054-.996.188-1.091.147-.38-.16.142-.416 1.301-.624zm-8.68 12.669c-.346.162-.683.37-1.039.47-.34.096-.698.079-1.049.112.337-.159.669-.368 1.011-.463.354-.098.717-.084 1.077-.119zm34.268-7.817.578-.347.429.243c-.339.019-.672.064-1.007.104zm59.512-41.661c.237-.073.864-.072 1.328-.103.522.219 1.176.435 1.504.656.146.099-.218.288-.587.298-1.287.037-2.182-.159-2.413-.504-.082-.123-.086-.268.168-.347zm116.964 79.349c.391.018.973.173 1.735.49.736.307 1.963 1.051 2.445 1.478.105.092.17.19.21.282a300.32 300.32 0 0 0-4.39-2.25zm35.018-21.723.78.339-.709-.185-.071-.154zm3.99 32.245c.108-.283.8-.145 1.748.484.598.395.901.894 1.196 1.282.05.07-.789-.137-.928-.235-.723-.507-1.353-1.02-2.016-1.531zm101.103 18.563c-.047-.057.669-.037 1.034-.053.342.256.769.521.966.762.049.059-.658.043-1.016.061-.353-.26-.78-.526-.984-.77zm43.551 26.492 5.478.219c1.815 0 3.13.262 4.383.577 1.254.29 2.446.63 4.006.808.135.015-.177.495-.72.682-.567.195-1.557.37-2.555.428-4.386.179-8.957.044-13.477-.546-.88-.108-2.017-.423-2.218-.633-.553-.579 2.928-1.596 5.103-1.535zm47.473-4.631-.225-.06.168-.014c.019.024.026.043.057.074zm18.129 3.043 2.072-.031-1.581.449-.491-.418zm10.322 1.158c-.177.086-.357.172-.545.257-.398-.095-.209-.176.545-.257zm70.124-38.495c-.024-.404-.102-.788-.159-1.178.628.104 1.276.196 1.851.329.202.046.377.233.195.343-1.221.738-1.865.893-1.887.506zm4.873 1.335.429-.46.43.085-.859.375zm43.057-17.024c.412-.266.83-.531 1.271-.787.074-.042.236-.057.42-.066-.564.285-1.13.567-1.691.853zm1.447-12.268c.045.011.085.024.131.034l-.142.068.011-.102zm18.905-1.387c.39-.107 1.063-.328 1.114-.282.093.08-.182.306-.301.475-.393.106-1.073.335-1.117.293-.087-.082.181-.314.304-.486zm22.251-31.812.644-.409.526.135-1.17.274zm2.502 21.485.068-.278 1.043-.106-1.111.384zm14.935-3.438.041 1.917c-.698.01-1.395.019-2.04.003-1.766-.05-2.646-.057-2.608-.213.033-.169.984-.473 2.886-1.071.621-.197 1.17-.417 1.721-.636zm3.88 2.075a75.911 75.911 0 0 0-2.973-.151c1.11-.281 2.225-.541 3.343-.795l-.37.946zm5.808-.549c1.723.288 3.389.551 5.063.885l2.153.421a265.26 265.26 0 0 0-7.988 1.297c-.557-.426-1.077-.857-1.208-1.357-.106-.417-2.189-.467-3.473-.665 2.015-.534 3.945-.846 5.453-.581zm-3.539-1.297.736.104-1.672.424.936-.528zm-5.651-.363-.215.022c.154-.06.306-.122.463-.181l-.248.159zm2.713-11.385c-.087.033-.405.07-.699.097s-.562.035-.562.035c.147-.225.305-.461.705-.707.166-.102 1-.302 1.367-.332.371-.03.538.095.794.152-.519.252-.975.51-1.605.755zm-6.38-7.15c2.143-.167 4.294-.294 6.43-.436 2.184-.115 4.378-.179 6.555-.265a6.41 6.41 0 0 0-.35.076 23.752 23.752 0 0 1-.225-.033c-4.337 1.36-8.855 2.132-13.586 2.472l.074.244c-.134-.025-.267-.051-.437-.066 1.735-.854 3.16-1.642 1.539-1.992zm-8.376-4.419c.555-.312 2.062-.737 3.083-.916.835-.148 1.553-.024 2.661-.017-1.103.485-2.073.984-3.369 1.444-.386.126-2.145.315-2.467.238-.425-.112-.453-.458.092-.749zm-6.032-4.473c1.012-.232 2.721-.597 2.924-.527.856.292 1.261.723 1.825 1.103-.661.329-1.226.756-1.973.947-.868.222-2.541.426-2.741.315-.637-.352-.81-.831-1.006-1.304-.042-.097.619-.455.971-.534zm-11.452 40.232c.287-.096.58-.046.869-.06-.288.165-.577.385-.863.483-.288.095-.576.054-.865.073.287-.172.572-.402.859-.496zm-10.499-24.787c.589-.031 1.276-.105 1.66-.039.154.025-.406.463-.558.506-.935.285-1.846.511-2.766.758l1.664-1.225zm-9.679-.5c.482.073.315.348-.65.779-.362.158-1.107.22-1.678.325.771-.378 1.548-.744 2.328-1.104zm-6.355 5.425c.877-.756 2.31-1.378 3.954-1.841.464-.132.838-.165 1.252-.242-.141.149-.23.356-.427.438l-4.191 1.681c-.199.079-.695.055-.588-.036zm.027 18.851c.052-.027.563-.012.459.073-1.077.897-2.142 1.137-3.197 1.376l2.738-1.449zm-8.129 6.035c-.162.08-.325.158-.486.238.007-.015.016-.031.018-.042.155-.067.313-.13.468-.196zm-.499.267c.24.109.569.185.9.26-2.801 1.326-1.15.138-.9-.26zm-5.615 12.701c.036-.107.524-.501.765-.613.302-.14.56-.131.835-.186-.099.165-.091.347-.314.495-.911.604-1.428.737-1.286.304zm-6.233-9.619c.108-.162.569-.533.933-.737 1.485-.854 3.415-1.045 3.211-.372-.768.507-1.602 1.21-2.283 1.521-1.862.869-2.572.669-1.861-.412zm-1.59 7.922.666-.033-.551.632c-.221.015-.602.118-.62.019-.018-.103.322-.405.505-.618zm-7.191.226c1.132-.473 2.023-.601 3.185-.925-1.208.828-2.091 1.552-2.785 1.879-.703.34-1.457.416-1.746.31-.405-.142.359-.836 1.346-1.264zm-8.942-10.089c.327-.214.642-.414.998-.666l.594.007c-.326.221-.75.576-.959.641-.281.101-.429.021-.633.018zm-6.66 14.419c5.098-.397 5.611 1.793 6.494 3.774.223.499 1.279.263 4.192-1.099.468-.223.959-.528 1.421-.74.888-.408 1.764-.777 2.666-1.172.261 1.026-1.651 2.866-3.812 4.768-.345.285-1.875.973-2.464 1.119-2.131.528-2.565-.039-3.166-.494-.356-.27-.562-.736-1.514-.537-1.74.398-4.371 1.333-6.014 1.581-1.726.228-2.913.184-5.54 1.121.075-1.662.273-3.313.427-5.003 2.734-1.248 5.061-2.228 7.31-3.318zm-10.721.646c-.704.797-1.216.695-1.765.747l1.765-.747zm-18.393 15.882-1.314.52-.901-.013c1.091-.56 1.827-.728 2.215-.507zm-14.844 10.19c1.132-.453 2.084-.602 2.453-.372.101.062-.567.482-.705.508-.924.175-1.798.287-2.687.419.309-.188.532-.392.939-.555zm-15.025-1.669c.537-.636.887-1.229 1.636-1.912.273-.245 1.504-.609 2.296-.918.807-.046 2.166-.253 2.324-.111.917.827 1.64 1.711 2.181 2.642.061.104-1.665.834-2.254.924-1.44.219-2.766.275-3.999.317-1.763.043-2.818-.208-2.184-.942zm-3.166-3.831c.141-.028.269.091.404.144-.404.114-.809.252-1.208.329-.144.028-.271-.09-.405-.141.404-.114.809-.253 1.209-.332zm-14.759 26.559.167-.445 1.295-.071-1.462.516zm-12.143-5.267c.122-.231 1.229-.548 2.027-.8.175-.048 1.107-.059 1.471-.016 1.556.192 3.036.414 4.551.623.989-.154 1.991-.285 2.964-.467.505-.1 1.314-.374 1.391-.362.898.137.451.279-1.255.462-1.013.1-2.099.264-3.151.402.295.361.717.697.961 1.065.073.11-.262.383-.569.44-1.017.188-2.521.479-3.099.431-2.986-.212-5.894-.658-5.291-1.778zm-.937 3.964c1.243-.064 1.745.088 1.57.396-1.153.252-2.058.275-2.437.004-.099-.072.667-.391.867-.4zm-10.104 5.067c.318-.021.599.086.897.138l-1.008.281-.891-.153c.336-.095.688-.245 1.002-.266zm-22.272-13.358-.064.015-.711-.273.775.258zm-15.657-3.095c-.122.013-.257.029-.411.049.104-.037.188-.077.287-.115l.124.066zm.867-15.721.254-.188.775.176-1.029.012zm-23.826-9.213c1.255-.515 2.971-.885 5.749-.647 7.034.672 14.045 1.132 20.694 1.44 3.851.826 5.813 1.675 2.95 2.821-.235.097-3.852 2.527-4.163 2.611-.284.104-.474.228-.772.329-.278.095-.643.17-1.107.29-4.444-.099-9.03-.349-13.347-.616-2.385-.752-5.39-1.316-5.175-2.317l4.516.447c1.734.164 3.003-.186 2.035-.58-1.544-.65-2.578-1.182-1.842-1.895.594-.578-1.326-1.051-3.733-1.101-1.471-.017-2.905-.033-4.38-.101-.346-.016-.895-.182-1.14-.299-.246-.119-.457-.314-.285-.382zm-15.241 1.556c1.239.195 1.778.456 1.372.708-.128.079-.745.051-1.14.073-.73-.223-1.848-.457-2.087-.666-.312-.272.64-.306 1.855-.115zm-10.702-10.704c.39.01 1.008.139 1.458.254.415.103 1.096.316 1.064.375-.661 1.195 2.323 2.259 5.868 3.321-2.302.593-3.463.889-5.233 1.024-1.775.155-4.148.08-8.93-.072-3.582-1.143-3.24-2.152-4.371-3.414 1.51-.418 2.87-.806 4.442-1.084 1.573-.298 3.356-.467 5.702-.404zm-10.473-5.618c1.255.589 2.632 1.179 3.658 1.774.363.21.053.572-.475.627-2.19.214-4.78.081-7.869-1.137a231.93 231.93 0 0 0 4.686-1.264zm-14.267 12.382c2.858.978 5.096 1.97 6.061 3.026.275.297.234.556.339.832-.886-.182-1.962-.316-2.625-.553-3.612-1.258-6.89-2.713-8.154-4.241 1.547.32 3.208.536 4.379.936zm-8.104-14.486c.486-.172 1.352-.012 2.239.358.301.129.359.325.529.492-.544.175-1.328.093-2.214-.35-.311-.156-.672-.459-.554-.5zm-1.812 21.957c.644-.01 1.771.109 2.646.322.701.178 1.548.639 1.803.905.294.305.135.568-.059.787-.345.389-2.078.319-3.368-.187-1.072-.447-1.806-.953-2.555-1.359.654-.217.885-.455 1.533-.468zm-26.356-11.268.031-.02.306.212-.337-.192zm-25.273-13.706c1.389.648 3.023 1.309 4.124 2.017 5.328 3.369 7.76 3.53 9.331 2.701.509-.27 2.054.304 3.507 1.047 1.393.725 2.65 1.465 2.716 1.986.146 1.109 1.079 2.504 3.047 4.092.613.498 1.391 1.026 2.154 1.55-2.118-.9-4.3-1.807-6.406-2.834-.953-.457-1.888-.874-2.426-.788-1.313.228-1.876.995-3.815.733-2.118-.27-4.275-.686-6.153-.809-.616-.039-1.437-.245-2.194-.408-.927-.192-4.535-2.39-4.733-2.934-.142-.364.179-.529.098-.87-.08-.332-.406-.775-.592-1.11-2.721-1.624-5.448-3.224-7.922-4.905a12.287 12.287 0 0 1-2.579-2.363c-.321-.387-.08-.817.335-.659 3.424 1.281 6.534 2.261 8.868 2.393.392.018 1.732.739 2.64 1.161zm-5.292-18.66 3.286 1.957c-.124.044-.229.185-.374.114a39.739 39.739 0 0 1-2.335-1.239c-.342-.198-.619-.483-.925-.728.117-.037.286-.14.348-.104zm-13.99-13.996c1.922.981 3.783 2.063 5.671 3.124.119.067.176.331.263.504-1.499-.156-4.028-1.289-6.317-2.8-.365-.239-.602-.542-.788-.773-.521-.644-.111-.713 1.171-.055zm-6.787 12.453c2.263 1.49 4.49 3.277 6.693 4.443.873.462 1.681.918 2.436 1.369.374.231.738.455 1.093.672l.953.626a40.067 40.067 0 0 1 3.248 2.46c1.946 1.591 3.54 3.195 5.424 4.748 1.496 1.249.375 1.883-1.586 1.191-3.755-1.328-7.186-3.415-10.341-5.88-.679-.521-1.134-1.125-1.25-1.473-.187-.559.057-.902.004-1.396-.122-1.159-2.609-2.977-6.038-4.381-1.275-.527-2.425-.858-3.637-1.254-.323-.714-.728-1.481-.909-2.139-.203-.733 2.147-.115 3.91 1.014zm-6.552 3.335-.595-.369.048-.116.547.485zm-2.871 33.107c.394.28.607.57.884.836-.118.099-.096.289-.353.263-1.33-.145-3.066-.961-5.026-2.176-1.304-.808-1.659-1.654-.61-1.453 1.499.291 2.966 1.004 5.105 2.53zm-3.063-2.865c-1.997-.863-3.752-2.101-3.888-2.795-.049-.253.653-.143 1.167-.074.144.02 1.011.525 1.246.737.879.793 1.632 1.556 2.413 2.313-.395-.07-.614-.04-.938-.181zm-12.204-22.616a8.378 8.378 0 0 1 2.193.621c1.975.907 3.305 1.497 3.708.894.372-.557 2.002.143 4.078 1.491 2.31 1.5 3.234 2.46 2.513 2.69-.843.269-1.808.458-2.695.678-2.9-1.083-5.503-2.562-8.038-4.44-1.463-1.048-2.457-2.033-1.759-1.934zm1.6 7.848c4.624 2.46 4.143 3.686 5.925 5.429 1.62 1.608 1.135 1.955-1.664 1.092-3.213-.99-4.993-1.205-3.686.761.279.419.052.647-.104.871-.155.224-.27.53-.839.446-.876-.128-2.149-.338-3.206-.899l-9.823-5.392c-1.179-.644-1.719-1.154-1.388-1.365.076-.049.757.258 1.164.407 1.738.636 3.554 1.355 5.188 1.874.665.211.992.03 1.314-.073.058-.019-.626-.569-1.035-.801-2.739-1.54-5.477-3.107-8.251-4.588-1.584-.823-2.734-1.631-3.154-2.267-.191-.289.509-.289 1.047-.244 1.178.099 3.602.829 3.591.39-.032-1.525 5.303.382 4.551-1.481-.657-1.616 1.765-.721 4.88.669.466.207.946.449 1.562.743a229.262 229.262 0 0 1 3.928 4.428zm-6.774-40.283-.351-.212.016-.042c.115.086.232.172.335.254zm-8.718-8.133c1.412.308 2.839.63 4.312.989.694.169 1.978.808 2.992 1.267 1.322.599 2.976 1.857 3.119 2.339.133.445-1.474.378-2.575-.213-3.86-2.061-7.578-3.542-11.457-5.084l3.609.702zm-11.026-9.979c2.036.491 4.281 1.463 6.271 2.736 1.61 1.036 1.848 1.625.649 1.906-.419.099-.926.15-1.449.19-.856.065-2.967-.768-3.87-1.542-.868-.755-1.411-1.384-2.471-2.141-1.615-1.137-3.752-2.045-5.974-2.603 2.256.463 4.405.833 6.844 1.454zm-7.902 6.323c1.503.195.786-.473.026-1.181-.827-.77-.263-.977.741-.942 1.756.06 2.153-.473 2.155-1.239 0-.621 2.953.246 4.878 1.345.934.545 1.946 1.141 2.677 1.666 1.36.989 2.576 1.953 3.828 2.921.061.306.041.581.239.938.309.555.899 1.259 2.923 1.9 5.158 1.746 7.564 3.635 9.211 5.603.078.093.218.207.375.327-2.998-1.201-6.545-2.867-8.879-3.476-2.129-.568-4.283-1.154-6.484-1.971-2.224-.796-4.506-1.82-7.139-3.027-1.318-.592-2.908-1.015-4.415-1.384-.231-.57-1.952-1.714-.136-1.48zm-2.598 41.291c.729.273 1.446.585 2.164.89-.49-.041-.929-.042-1.474-.126-.261-.043-1.057-.338-1.297-.502-1.12-.754-.87-.839.607-.262zm-11.649-6.392c-.011.002-.242-.099-.477-.211s-.472-.233-.495-.271a2.228 2.228 0 0 1-.242-.598c.799.435 1.937.93 1.214 1.08zm-1.909-1.653c-1.498-.649-2.498-1.269-2.704-1.846 1.725.685 2.395 1.281 2.704 1.846zm-2.937-2.071c-.462-.324-.923-.656-1.392-.964 2.244.661 1.79.811 1.392.964zm-7.865-8.086c.38.149.734.34 1.097.516-.148.02-.296.101-.444.049-.356-.126-.711-.313-1.067-.476.14-.034.316-.128.414-.089zm-23.01-41.077c.264-.011 1.044.165 1.565.301l6.923 1.882c-3.632-.801-5.263-1.159-6.902-1.52-1.612-.361-2.25-.634-1.586-.663zm-12.219 26.218c.799.242 1.263.611 1.877.922l-3.661-.039c-.687-.428-1.614-.822-1.591-1.027.047-.462 1.598-.394 3.375.144zm-8.33-37.915c.84.218 1.644.453 2.478.698-1.213-.216-2.82-.198-3.426-.737-.022-.02.751-.012.948.039zm-13.465 38.343c-.462.124-.847.376-1.407.341-1.016-.064-1.514-.366-.889-.546.41-.118 1.274-.115 1.937-.166l.359.371zm-4.612-35.566c.293-.009.634-.008.811.023.852.15 1.6.358 2.426.552l-2.418.158c-.469-.233-.965-.467-1.347-.699-.011-.007.235-.025.528-.034zm-3.386-3.698c.42.088.969.301.84.341-.483.148-1.344.391-1.842.34-1.453-.146-2.835-.377-4.232-.59 2.416-.453 3.421-.473 5.234-.091zm-25.569-3.044c3.622.105 7.063.306 10.035.667 1.488.182 2.859.406 4.082.686 1.226.308 2.306.701 3.204 1.133.428.208 1.445.391 2.324.581-.841.124-1.538.304-2.509.377-2.688.162-5.236.046-6.244-.488-.718-.378-.95-.79-1.613-1.173-.644-.373-2.842-.59-4.631-.474-2.326.153-4.734.263-6.773.609-.769.115-.947.434-1.381.664-.309-.494-.709-.984-.909-1.482-.224-.553 2.055-1.09 4.415-1.1zm-21.551-.838c2.353-.087 4.464-.093 6.137.112 1.668.22 2.923.557 3.612 1.011 1.555 1.026 3.604 1.875 8.249 2.307-2.931-.017-5.948.044-8.782-.059l-3.122-.13-2.493-.081c-1.466-.065-2.554-.178-3.38-.364-1.652-.372-2.257-1.038-2.748-2.201-.129-.306.994-.531 2.527-.595zm-.682 5.378-.98.135.112-.213.868.078zm.239 1.695c.809.06 1.031.369 1.517.566-.033.479-1.353.836-3.312.828-.994-.004-2.236-.088-2.632-.253-.829-.343 2.745-1.267 4.427-1.141zm-5.373 28.346c-.242.064-1.036.065-1.44.06-.263-.01-.284-.148-.414-.229.431-.095.899-.28 1.287-.278 1.379-.026 1.616.158.567.447zm-7.463-30.456c.129-.126.703-.362 1.061-.394 1.062-.091 2.658-.259 3.063-.128.867.247 1.122.615 1.566.894-1.131.3-1.808.529-2.739.742-1.426.307-3.241.135-3.369-.328-.064-.24.145-.518.418-.786zm1.76 4.904c.615-.134 1.449-.222 2.324-.284.872-.037 1.784-.026 2.561-.02 1.342.014 1.659.318.761.618-1.03.354-2.171.737-3.601.973-2.212.385-4.631.553-6.86.209 1.544-.498 2.905-1.08 4.815-1.496zm-6.369-7.493c.456-.044 1.314-.007 1.294.05-.118.328-.974.547-2.298.644-1.734.127-3.012.086-3.673-.189 1.559-.174 3.118-.355 4.677-.505zm-6.368 48.321c.148-.189 1.521-.472 2.355-.715.628.086 1.615.1 1.791.275.38.379-1.558 1.003-2.924.938-.708-.033-1.393-.28-1.222-.498zm-3.293 4.895c.862-.131 1.775-.06 2.671-.076-.868.246-1.701.571-2.594.71-.823.109-1.686.107-2.534.155.815-.276 1.594-.677 2.457-.789zm-8.794-41.47-.095.209-.987.059c.361-.088.72-.193 1.082-.268zm-13.576 31.743c.171-.164.455-.357.822-.532 1.353-.645 2.7-1.288 4.249-1.885.776-.29 1.595-.602 2.504-.837a37.811 37.811 0 0 1 2.987-.614c2.14-.353 4.38-.981 6.468-1.284 1.256-.201 2.311.043 3.093.106.382.617-1.603 1.617-3.268 1.883-2.547.353-5.144.447-7.548.963-.629.137-1.242.289-1.842.472-.595.202-1.181.418-1.765.64-1.166.444-2.321.908-3.529 1.324s-2.133.455-2.328.183c-.077-.106-.006-.264.157-.419zm-1.639-28.839-.891.357a2.295 2.295 0 0 0-.211-.007l1.102-.35zm-2.598-.118c.134-.072 1.448-.294 1.453-.263.043.222-.067.482-.146.734-1.017.03-2.708.278-1.307-.471zm-2.47 3.987c.081-.107.801-.397 1.152-.466.378-.074.666.013.991.031-.179.143-.258.328-.556.421-1.216.379-1.87.389-1.587.014zm-4.293 39.693a23.44 23.44 0 0 1 2.4-.558c-.367.163-.732.329-1.088.519l-2.439.577c.376-.184.772-.435 1.127-.538zm-1.895 5.197c-1.212.597-2.486 1.072-3.829 1.248-2.543.445-3.511.095-3.37-.815 1.283-.566 2.728-1.337 3.699-1.484 1.618-.295 2.892-.234 4.164-.24.796-.004.336.798-.664 1.291zm-.074-57.968-.062.008c-.016-.012-.036-.022-.053-.034l.115.026zm-22.648 7.281 5.387-2.588 2.74-1.29c.927-.412 1.872-.79 2.82-1.185 2.454-1.011 4.891-1.536 7.08-1.778l2.291-.248c.634-.06 1.272-.095 1.912-.135-.571.082-1.136.192-1.604.317-.579.178-1.006.369-1.108.531-.286.457-.043.806.324 1.087.55.421.501.95-.948 1.871-1.818 1.153-5.844 2.366-7.657 2.252-.677-.044-1.016-.231-1.587-.321-.554-.095-1.19-.105-1.794-.155-1.819.584-3.686 1.245-5.434 1.732-.974.271-1.845.3-2.565.336-.263.011-.164-.278.143-.426zm.973 52.711c1.031-.264 2.344-.673 3.297-.811.441-.063.524.328.186.644-.785.735-2.402 1.409-3.524 1.645-.987.197-1.613.091-2.134-.03-.087-.027 1.218-.858 2.175-1.448zm-3.916 13.068c.763-.354 1.551-.634 2.439-.987-.33.342-.638.816-.944.949-.726.322-1.459.455-2.184.704.225-.238.426-.546.689-.666zm-5.007-63.516-.637.519-.612-.06 1.249-.459zm-5.543 5.728c.367-.17.793-.292 1.196-.433-.108.132-.171.316-.331.388-.379.171-.803.289-1.209.43.111-.132.17-.304.344-.385zm-6.564 71.547c-.308.065-.845.254-.862.16-.017-.095.483-.47.756-.723l.926-.194-.82.757zm-.104-5.099c-.233.228-.475.55-.697.665-.696.359-1.386.641-2.079.952l.713-.695 2.063-.922zm-3.18-29.764.447.038-.853.417.406-.455zm-1.243-19.232c-.194.338-.476.863-1.029 1.156-1.38.748-2.881 1.449-4.816 2.402 1.069-.984 1.709-1.679 2.715-2.443.44-.349 1.659-.856 2.507-1.18.297-.119.705-.076.623.065zm-7.602-12.577c.914-.791 3.289-2.069 4.383-2.307.789-.172 1.681-.301 1.759-.086.282.78-.11 1.84-2.925 3.783-2.825.762-4.398 1.088-4.856.895-.47-.196.081-.957 1.639-2.285zm-2.522 45.15-.867.346.82-.584.047.238zm-1.414-35.481-1.058.669-.006-.299 1.064-.37zm-.701 26.712c.356-.231.829-.419 1.247-.628.001.105.135.195-.024.319-.317.247-.837.594-1.194.756-1.41.639-1.424.46-.029-.447zm-9.583 11.311c2.574-1.812 5.139-3.663 7.826-5.432.254-.169.902-.357 1.153-.374.168-.011.064.223-.095.415-1.483 1.754-4.335 3.503-7.177 5.25-.782.304-1.563.62-2.27.858-.062.022.234-.481.563-.717zm-1.95-4.287c.305.083 1.074.053.837.266-.987.891-2.153 1.822-3.285 2.753.481-.725.959-1.447 1.507-2.192.152-.208.62-.547.941-.827zm-3.154 3.675c0 .301.087.556-.137.955-1.044 1.854-2.718 3.011-5.947 4.137-.676.235-1.308.423-1.951.622 1.327-.977 1.923-1.723 2.306-2.403 1.896-1.19 3.776-2.535 5.729-3.311zm-6.997 2.213c.643.181.712.758.995 1.186-1.228.945-2.15 1.793-2.375 2.42-.82.32-1.613.6-2.465.968-2.397 1.04-3.805 1.278-3.796.391.005-.609-.066-1.186.247-1.955.119-.291 1.137-1.119 1.89-1.609.747-.486 2.005-1.137 2.466-1.222 1.205-.22 2.377-.365 3.038-.179zm-11.271-24.701c.088-.444.811-1.023 2.012-1.623 2.814-1.406 5.759-2.88 6.593-2.177.316.257 1.791-.2 1.974.125.174.311-.639 1.211-1.016 1.85.027.635-.369 1.427-1.213 2.386-.852.961-2.136 2.086-3.831 3.369l.313.158-.469.066c.737-1.386 1.48-2.784 2.306-4.209-.915.417-2.067 1.066-2.619 1.187-2.774.616-4.347.375-4.05-1.132zm-7.164 36.702c.496-.522 1.333-.984 2.157-1.143.952-.185 1.76-.242 2.683-.367-.75.588-1.326 1.15-1.966 1.509-2.268 1.267-3.311 1.443-3.291.637.003-.142.186-.393.417-.636zm-5.244-17.903a46.666 46.666 0 0 1 2.548-1.56c.37-.212.768-.324 1.154-.481.033.086.138.218.088.251-1.185.763-2.376 1.533-3.592 2.259-.314.186-.715.232-1.074.337.285-.266.516-.569.876-.806zm-1.913 26.007c.459-.381 1.339-.859 2.052-1.251.182-.099.65-.139.639-.033-.038.375-.707.866-1.8 1.37-1.076.44-1.525.439-.891-.086zm-3.791-2.661.457.025-.813.429.356-.454zm-3.529 8.886c-.199.372-.739.908-.878 1.243-1.284.48-1.544.25-1.331-.243.065-.153.338-.448.664-.656 1.127-.698 1.826-.867 1.545-.344zm-2.726-30.015c.269-.196.99-.53 1.189-.549.526-.045.967-.027 1.265.083.092.029-.327.462-.643.681-.318.226-.934.571-1.198.641-1.072.281-1.43-.26-.613-.856zm-.403 40.778c2.203-.736 4.332-1.144 5.742-1.2 1.081-.041 1.391.502 1.206 1.161-.098.324-2.019 1.451-3.273 2.199-1.245.743-2.777 1.471-3.367 2.169l-.014-.017c-1.516.985-3.18 1.894-4.755 2.858-2.826 1.684-5.385 2.681-7.861 2.908l-.468.134c.013-.02.024-.031.037-.053 2.961-1.178 2.352-1.708 3.038-2.482.492-.555 2.32-1.604 1.166-1.556-.512.018-1.957.656-2.907.908-2.345.571-2.536-.124-1.012-1.033 1.567-.956 3.279-2.132 5.148-2.99a71.618 71.618 0 0 1 3.75-1.619c1.263-.52 2.482-1.031 3.57-1.387zm-4.416-10.31c.344-.475 1.278-.944 2.019-1.084.304-.058.616-.048.6.07-.073.526-.945 1.075-2.338 1.597-.157-.172-.498-.283-.281-.583zm-5.017-23.907c.396-.363 1.467-1.032 1.962-1.197.557-.186.811.039 1.2.085-.592.436-1.131.946-1.78 1.288-1.268.668-2.181.555-1.382-.176zm-10.48-4.923c.085-.413.773-.876 1.82-1.219 1.208-.381 2.144-.626 2.815-.695.67-.06 1.074.071 1.224.388-.512.44-.956.984-1.557 1.305-2.791 1.374-4.556 1.437-4.302.221zm-.553 4.786.453.038-.809.344.356-.382zm-.696 8.714c1.269-.638 2.53-1.219 3.75-1.947a205.715 205.715 0 0 0 3.634-2.157c1.244-.759 2.364-1.214 3.115-1.383.749-.176 1.131-.01.892.55-.229 1.013-.349 1.938-.769 2.987-.17.424-1.443 1.133-2.065 1.177-1.743.099-3.317.708-5.583 2.136-1.25.785-2.498 1.02-3.392.989-1.225-.063-2.593.328-4.668 1.397-1.131.577-2.704 1.325-3.722 1.567-.964.229-1.71.007-2.081-.232-.311-.199.562-.732 1.631-1.172.439-.182.863-.455 1.276-.592 1.395-.482 2.776-.921 4.095-1.513 1.32-.582 2.615-1.186 3.887-1.807zm-5.559-2.105c-.756.762-1.124 1.316-2.01 1.826-1.196.688-2.545.93-3.526.943-.92.013-2.034-.001-1.069-.722.71-.53 2.329-1.284 3.459-1.638 1.016-.328 1.934-.212 3.146-.409zm-8.522-.631c.562-.249 1.558-.384 2.048-.371.841.022.562.773-.364 1.231-.749.371-1.598.788-2.374 1.046-1.22.383-2.434.577-3.654.865.481-1.02 2.31-1.815 4.344-2.771zm-30.915 28.71c.417-.026 1.116-.126 1.2-.064.283.207-.376.489-1.662.704-.214.035-.587-.114-.514-.227.068-.104.631-.273.976-.413zm-4.85 31.751c1.462-.681 6.352-1.399 7.762-1.25 2.887.266 1.804 1.699-2.077 2.548-.534.118-1.115.213-1.674.318-2.544.215-3.401-.2-4.266-.521-.578-.214-.516-.736.255-1.095zm-37.244-33.95.295.243-.854-.019.559-.224zm-78.281-23.119c-1.514-.692.024-.533.119-.776a.091.091 0 0 1 .014.007l-.133.769zm-.017-.84c-2.04-.493-4.189-.882-6.278-1.463l1.216-.905c1.751.891 3.418 1.594 5.062 2.368zm-11.312-6.595c.594.221 1.047.606 1.564.92-.318-.023-.612-.004-.961-.082-.383-.091-.971-.244-1.199-.416-.506-.348-.898-.695-1.324-1.042.658.188 1.323.37 1.92.62zm-2.43 2.64c.67-.281 2.407.06 4.153.923 1.029.515 1.988 1.053 2.974 1.586 1.879 1.883 2.078 3.218 1.786 4.512-.044.198-.731.285-1.36.237-.894-.102-1.422-.474-1.566-.903-.102-.305-.331-.664-.743-1.029-.903-.8-2.208-1.542-4.224-2.071-1.087-.268-1.711-.654-1.89-1.039-.482-1.043-.136-1.754.87-2.216zm-1.38 5.735c.186.165.613.427.533.444-.629.12-1.166-.127-1.359-.549-.024-.054.537.066.826.105zm-8.26-7.522c1.338.416 2.576 1.005 3.256 1.657 1.054 1.056 1.309 1.674.693 1.857-.308.092-.834.076-1.585-.046-.755-.106-1.727-.361-2.923-.76-.409-.132-.967-.312-1.253-.491-.663-.413-1.748-1.073-1.689-1.213.251-.606.818-1.076 1.283-1.589.734.185 1.458.352 2.218.585zm-7.543-3.253c.061-.116.307-.146.5-.196.981-.253 2.472.326 3.985 1.414.885.655 1.416 1.219.723 1.371-1.029-.192-2.02-.322-3.14-.639-.622-.188-1.809-.851-2.146-1.172-.351-.339-.038-.554.078-.778zm-119.104-67.014.307.384c-.457-.124-1.192-.284-1.325-.364-.866-.517-.469-.517 1.018-.02zm-38.787 11.937c1.348.423 2.36.925 4.571 1.837-2.965-.584-4.608-.838-6.015-1.21-.672-.178-.899-.577-1.329-.878.944.079 2.224.079 2.773.251zm-274.702 55.719c-.081.018-.154.046-.232.067l.194-.078c.012.005.029.007.038.011zm-2.369.925.997-.401a6.61 6.61 0 0 0-.968.644c-.283.22-1.126.641-1.159.636-.576-.126-.17-.417 1.13-.879zm7.033 8.61.846-.416-.376.478-.47-.062zm39.837 1.037c.292-.215.806-.419 1.189-.613.054.076.254.116.127.231-.278.249-.769.637-1.093.791-1.329.631-1.419.463-.223-.409zm1.982-30.983.833-.494-.272.497-.561-.003zm34.371 2.803c.244-.233.726-.535 1.097-.801 2.304-1.085 3.612-1.296 4.101-.902.202.163-.227.675-.368 1.027-.741.279-1.67.708-2.187.805-1.046.197-1.911.245-2.759.288-.18.011-.082-.228.116-.417zm85.542-25.529c1.031-.376 1.943-.485 2.728-.327-.482.121-.978.292-1.443.349-.445.053-.858-.011-1.285-.022zm1.039-3.49a7.24 7.24 0 0 1 1.52-.189c.388.007.623.115.758.222.135.106.062.245.082.387l-.684.409c-.792-.025-1.76.008-2.338-.087-.797-.133-.48-.439.662-.742zm-1.874-1.579c-.339.36-1.14.595-2.485.712.067-.22.018-.436.251-.672.118-.119.736-.34 1.151-.403 1.054-.157 1.432-.007 1.083.363zm-1.213-5.584c.138-.011.213.278.043.319-.673.163-1.394.307-2.115.45.22-.293.081-.612 2.072-.769zm-2.6 1.112.322.349-1.331.17 1.009-.519zm-32.464 11.064c-.289.11-.542.201-.621.202-.769.007-.505-.086.621-.202zm-4.625 7.205c-.405.169-1.018.47-1.178.484-.867.077-.56-.155.774-.603l.404.119zm-1.868-3.083c.122.046.424.091.336.139-.308.168-.988.476-1.106.483-.817.049-.515-.186.77-.622zm-5.979 7.44.439.148-.879.264.44-.412zm-17.703-24.309-.05.321-1.194.278 1.244-.599zm-8.931-1.97c1.331-.457 1.649-.324.973.17-.294.215-.848.54-1.29.723-1.909.795-2.717.894-2.383.308.919-.427 1.891-.923 2.7-1.201zm-4.403 1.526c.027-.035 1.048-.468 1.182-.47.204-.005.207.107.239.202-1.212.565-1.726.671-1.421.268zm-.118 8.697 1.1.27c-.519.082-1.035.161-1.47.209-.143.017.225-.318.37-.479zm-1.793-4.204c-.05.019-.088.038-.135.058l-.647-.07.782.012zm-4.462 1.744c1.235-.491 2.432-.945 3.65-1.385-1.302.651-1.804 1.345-3.015 1.93-.471.231-1.201.184-1.691.19-.055 0 .756-.613 1.056-.735zm-5.712-.905c1.31-.46 2.343-.607 3.129-.8.047.641-1.457 1.679-3.11 2.334-1.698.658-3.023 1.163-3.103.639-.055-.434 1.499-1.635 3.084-2.173zm-7.872 7.083c.767-.54 1.702-1.208 2.579-1.636 2.361-1.153 3.451-1.269 3.439-.515-.482.459-.857 1.019-1.474 1.354-.824.446-1.99.846-2.724 1.032-.737.186-1.187.124-1.64.092-.218-.015-.388-.18-.18-.327zm-10.467 9.139c1.82-1.136 3.754-2.339 5.639-3.354 1.894-1.012 3.749-1.838 5.602-2.163 1.991-.333 5.265-1.621 7.749-2.296.452-.123.277.47-.173.915-.72.712-1.807 1.342-2.976 1.717.001.035.005.069.001.106-.056-.007-.163 0-.336.028l-.641.466c.528-.199.842-.336.962-.416-.132.609-.983 1.463-3.001 2.61-4.077 2.444-6.003 4.194-6.139 5.533-.065.433-2.596 1.887-3.823 2.238-3.142.879-6.207 1.703-6.691.573-.144-.337-.479-.564-.754-.826l4.057-2.078c1.916-.98 4.124-2.07 4.943-3.134.242-.319-1.743.233-2.764.493-.714.175-1.948.738-2.324.699-.293-.028.232-.844.669-1.111zm-4.712-7.936.727-.446c.179.126.408.226.469.419.009.029-.761.497-1.171.762-.166-.144-.366-.27-.446-.463 0 0 .183-.126.421-.272zm-10.971 16.821c-.554-.052-.79-.47-.354-1.071.468-.69 4.539-3.07 5.38-3.291.743-.198 6.116-.714 6.339-.436.123.178-.247.644-.495 1.039-3.508 1.547-6.549 3.313-8.778 5.663-.987 1.053-1.646 2.077-3.755 3.408-.285.179-.674.262-1.439.548l5.935-6.538c-.959.244-2.266.731-2.833.678zm-9.637 42.953c-.332.254-.662.569-.996.745-.359.183-.719.237-1.078.348.713-.656 1.398-1.026 2.074-1.093zm-9.99-25.519c.06-.169.371-.512.712-.748.979-.678 1.775-1.009 2.253-.944.161.251-.306.738-1.421 1.396-1.118.642-1.708.756-1.544.296zm-5.379 6.725-.99 1.323c-.758.237-1.714.63-2.226.676-.843.075-1.586.041-1.996-.178-.224-.121.071-.683.587-1.097.404-.324 1.92-1.029 2.23-1.036 1.008-.02 1.691.202 2.395.312zm-3.639-15.27 1.643-.391-.914.654c-.283.06-.685.202-.813.159-.121-.041.044-.274.084-.422zm-14.676 14.311a85.432 85.432 0 0 1 3.956-2.968c1.432-1.012 2.793-1.971 3.044-2.787l-.178-.082.524-.015c2.966-1.649 5.928-3.238 8.987-5.016.275-.156.781-.226.906-.16.1.053-.135.353-.376.579-.239.225-.654.502-1.022.742-2.39 1.584-4.145 2.634-5.539 3.566-1.389.917-2.389 1.637-3.19 2.323-1.592 1.303-2.377 2.472-3.875 4.756-.092.139.158.157.329.203-1.173.144-2.376.353-3.493.42-1.288.08-1.346-.598-.073-1.561zm-7.852 44.146c.473-.421 1.215-.904 1.894-1.366 1.184-.805 2.901-1.359 3.763-1.193 2.079.402 2.272.719-3.111 2.82-2.523.965-3.799.808-2.546-.261zm-10.246-28.082c.376-.152.785-.246 1.182-.364-.1.129-.158.315-.307.377-.37.152-.779.248-1.173.367.098-.131.158-.323.298-.38zm-18.339 34.633a8.062 8.062 0 0 1 1.475-.444c.296-.052.468.079.7.128l-2.753.75c.184-.144.263-.301.578-.434zm-21.932-1.293-.026.014-1.851-.075 1.877.061zm-4.721-1.274-1.279.198c.228-.228.657-.289 1.279-.198zm-19.649 1.882c1.422-.013 1.62.171.47.444-.288.069-1.034.065-1.431.03-.251-.022-.245-.165-.355-.255.441-.075.929-.215 1.316-.219zm-1.754 1.501c.909-.058 1.851.126 2.787.205-.877.19-1.732.479-2.627.537-.894.059-1.826-.113-2.739-.183.861-.196 1.703-.503 2.579-.559zm-12.795-4.961c.039.031.061.054.122.094-.204-.025-.406-.037-.608-.057l.486-.037zm-19.277 11.28c.339.021.684.059 1.029.098-.24.054-.48.109-.728.161-.346.073-1.347.118-1.475.077-1.037-.33-.59-.448 1.174-.336zm-10.746-15.18c.854.281.675.536-.527.547-.627.006-1.371-.114-2.095-.213.394-.165.767-.337 1.301-.465.159-.038 1.065.048 1.321.131zm-4.632.768c.465-.137 1.082-.238 1.665-.347.219.191.479.384.433.556-.089.329-.967.375-1.97.128-.252-.062-.332-.277-.128-.337zm-5.749-2.32c1.199.074 1.841.323 1.877.636-.232.424-1.462.547-3.165.287-.436-.066-.973-.221-1.138-.338-.508-.363.785-.688 2.426-.585zm-74.129-19.53c.705-.108 2.083.456 3.341 1.118 1.076.566 1.292.899.846.957-.966.086-2.178-.293-3.344-1.043-.57-.367-1.111-.991-.843-1.032zm-4.791-2.471.09.306-.685-.377.595.071zm-6.928-26.256c.103-.072.537.056.82.092l1.425 1.348c-.316-.087-.627-.116-.942-.271-1.072-.53-1.574-.98-1.303-1.169zm-16.213-9.91c.533.509 1.1 1.024 1.482 1.465.132.152-.202.222-.518.125-1.032-.314-1.864-.925-1.779-1.329.04-.218.462-.218.815-.261zm-49.506.432c.223-.001.932.212 1.164.364 1.054.695 1.318 1.127.714 1.134-.219.003-.788-.238-1.197-.367-.997-.703-1.292-1.127-.681-1.131zm-21.009-4.431c.176-.433 1.865-.207 2.564.311.575.426.988.92.948 1.143-.07.382-.496.601-.797.876-2.08-.999-2.941-1.779-2.715-2.33zm-18.169 2.653-.171.201-.819-.476.99.275z" />
		<path d="M1749.039 193.381c.091-.042.172-.076.261-.117-.031-.021-.06-.042-.093-.062a4.278 4.278 0 0 0-.168.179z" />
		<path d="M1862.868 139.403c-.19.033-.375.067-.561.101l.203.096.358-.197z" />
		<path d="m79.42 150.797.018.007c.087.005.161.003.25.009l-.268-.016z" />
		<path d="m317.13 216.056-.018.005c.11.019.221.032.331.052l-.313-.057z" />
		<path d="M1530.719 187.87c.034.041.073.082.109.123l.182.086-.291-.209z" />
		<path d="M499.557 139.924c.024-.006.047-.017.071-.022.111-.023.209-.042.293-.056l.081-.063c.086-.026.17-.052.255-.081-.001-.039.006-.081-.001-.117l-.699.339z" />
		<path d="M16.369 104.406c2.095.609 4.609 1.154 7.135 1.659.568.114 2.031-.024 2.923-.112.359-.035.195-.265.424-.381.856-.434 1.289-.65 2.041-.646.752.005 1.821.2 3.965.763 4.013 1.011 5.314 1.097 7.132.445.272-.097.276-.255.528-.358 1.282-.503 3.235-.47 5.637.25 2.184.667 3.497 1.319 3.732 1.976l.175-.048c2.414.473 5.012 1.173 7.197 1.385 3.747.434 6.66 1.451 9.465 2.408 1.404.491 2.782.986 4.23 1.456a45.41 45.41 0 0 0 4.636 1.453c.559.141.999.752 1.627 1.157 1.122.724 2.629 1.054 4.033 1.069 2.129.024 1.366-.759 1.498-1.306.118-.489 2.016-.313 3.716.339 2.21.851 4.243 1.77 6.388 2.651.313.128 1.177.31 1.257.268.333-.174.835-.334.6-.663-.647-.904-3.781-1.781-5.594-2.682-2.781-1.383-5.54-2.622-4.765-3.594.524-.668-1.85-2.154-3.085-3.415-2.922-1.076-5.861-2.21-8.955-3.247-3.102-.934-6.353-1.829-9.871-2.62-1.663-.374-2.779-1.727-1.521-1.872.71-.082 1.947.034 2.923.05 4.073.068 4.179-.052.628-1.519l-3.515-1.406c-1.166-.443-2.301-.803-3.343-1.173-4.152-.432-7.872-.694-11.586-1.204-3.28-.346-6.354-.519-9.341-.62l-4.432-.109c-1.464-.014-2.904.059-4.366.081-.39.009-.801.238-.635.35.393.264 1.086.698 1.73.746.867.065 1.745.088 2.625.104l2.659.131c1.804.096 4.146.204 4.722.739.385.357-.945.672-1.778.944-.529.172-1.437.257-2.228.369-1.418-.053-2.886-.168-4.272-.168-1.429.003-2.789.03-3.96.122-2.344.184-3.931.627-3.824 1.656.048.484-1.854 1.159-3.586 1.193-2.829.044-4 .37-4.485.814-.488.428-.299.93-.386 1.397-.066.377.774.84 1.902 1.168zm18.468-6.105c1.725.813 4.375 1.418 7.253 2.012 1.113.229 2.327.468 3.434.72 1.111.282 2.117.605 2.808.913 1.888.853 4.005 1.294 6.383 1.467 1.522.111 3.028.487 4.503.814 1.478.385 2.925.735 4.351.713 1.798-.024 3.417-.132 5.066-.194 1.857.703 3.264 1.305 4.078 1.878.813.589 1.038 1.083.547 1.49-4.259-.861-8.551-1.538-12.91-2.31-4.361-.669-8.798-1.14-13.373-1.722-1.873-.756-3.74-1.329-5.67-2.003a219.502 219.502 0 0 0-5.991-1.944c-3.084-.944-2.115-1.399-.479-1.834z" />
		<path d="M1669.692 227.749c2.483-1.067 1.233-1.97-1.507-2.469-.436-.086-2.302.186-2.774.351-1.011.396-2.185.948-2.152 1.301.09.96.777 1.849 1.477 3.251 2.457-1.14 3.541-1.844 4.956-2.434z" />
		<path d="m1873.604 135.456-.016-.006a.852.852 0 0 1 .047-.015l-.109-.009a7.738 7.738 0 0 0-.343-.132c-.009.034-.024.067-.028.101l.449.061z" />
		<path d="M1873.184 135.293c.146-.573.919-1.046 2.264-1.42 1.425-.393 3.474-.704 6.093-.77 3.184-.104 4.414-.585 5.099-1.167.313-.273.481-.549.716-.824l-.43.101c-2.471-.057-4.903-.116-7.405.002-6.29.451-9.503 1.615-8.829 2.999.21.43 1.496.724 2.492 1.079z" />
		<path d="M1225.775 98.644c.676-.066 1.707-.536 2.575-.819.834-1.018-4.664-1.736-8.749-1.004-.413.086-1.013.392-1.138.539-1.313 1.598 1.173 1.829 7.312 1.284z" />
		<path d="M81.779 144.013c-3.545-1.207-6.519-1.505-6.968-.623-.049.091.555.385.849.606 3.565 1.169 6.737 1.466 7.029.631.036-.102-.529-.483-.91-.614z" />
		<path d="M1326.941 94.336c2.088.681 4.407 1.256 7.162 1.48 2.312.147 4.722.559 7.09.916-4.133-1.538-8.666-2.587-13.81-3.199-.613-.073-1.699-.125-1.668-.093.277.29.455.645 1.226.896z" />
		<path d="M1889.243 142.51c.466-.026 1.027-.17 1.245-.284.22-.115.317-.32.037-.381-1.495-.313-3.078-.514-4.715-.459a24.305 24.305 0 0 0-4.469.608c2.424.284 4.38.676 7.902.516z" />
		<path d="M169.25 155.574c1.387 1.152 2.731 1.646 3.816 1.995.555.178.726-.05 1.07-.094-.816-.611-1.679-1.379-2.437-1.798-1.225-.679-2.398-1.134-3.655-1.706.498.682.626 1.13 1.206 1.603z" />
		<path d="m1735.056 202.058-.009-.004h.001l.608-.379-.722.331-.163-.07-.104.192.389-.07z" />
		<path d="M1734.771 201.936c.364-.674.748-1.354 1.015-1.994.044-.105-.504-.077-.864.034-1.083.334-1.967.887-1.716 1.146.345.354.984.57 1.565.814z" />
		<path d="M1629.438 204.706c.605-.182 1.407-.337 1.76-.551.396-.24.389-.533.556-.804-.239-.109-.391-.256-.73-.32-.979-.186-1.834-.095-2.202.247-.282.263-.521.553-.425.814.078.218.673.41 1.041.614z" />
		<path d="M1777.965 160.753c1.69-.537 3.583-1.214 5.418-1.835.088-.302.218-.627.129-.84-.291-.697-1.389-.411-4.345 1.145-.524.276-1.414.815-1.447.906-.109.308-.232.773.245.624z" />
		<path d="m170.747 151.309-.013-.006c-.01-.007.015.016.015.016l-.002-.01z" />
		<path d="M175.546 154.45c.293-.116.709-.215.496-.612-.43-.8-1.911-1.836-3.307-2.673-.663-.399-1.752-.865-1.964-.803-.321.087-.051.605-.025.947 1.616.612 2.445 1.636 3.615 2.507.327.245 1.114.663 1.185.634z" />
		<path d="M77.114 103.676c.64.346 2.17.878 3.12 1.069.845.17 1.436-.018 2.139-.048-.318-.353-.349-.686-1.033-1.062-.682-.375-2.166-.971-3.033-1.138-.833-.161-1.657.006-1.864.21-.208.205.014.614.671.969z" />
		<path d="m72.271 118.234.161.112.318-.113-.479.001z" />
		<path d="M70.884 120.555c1.252.515 2.44.786 2.935.605 1.454-.528.349-1.61-1.387-2.814-1.033.366-2.08.727-3.033 1.121-.193.089-.118.284.135.47.254.185.855.415 1.35.618z" />
		<path d="m363.969 194.139.274-.032.218-.067.022-.006.003-.001-.517.106z" />
		<path d="M356.578 195.19c-.33.339.251.422 1.46.178l5.932-1.229-6.336.742c-.353.044-.963.212-1.056.309z" />
		<path d="m170.735 151.304-.043-.028.045.035c.013.009-.012-.015-.002-.007z" />
		<path d="m165.231 147.712 5.461 3.564c-1.95-1.536-4.084-3.101-5.953-4.621-1.553-1.249-2.968-2.47-3.94-3.62-.003.047-.007.092-.005.142.063 1.516.676 2.072 4.437 4.535z" />
		<path d="M336.417 212.618c.788.009 1.912-.115 2.538-.287.314-.086.14-.53-.316-.615-1.021-.19-2.355-.257-3.553-.373-.385.209-.823.352-.845.474-.08.457.608.784 2.176.801z" />
		<path d="M.665 103.275c-.364.006-.878.462-.571.653.292.182 2.139.444 2.317.406 1.477-.311 2.778-.668 4.115-1.017-1.965-.032-3.935-.074-5.861-.042z" />
		<path d="M6.901 103.218c-.127.032-.25.066-.376.098l.852.013-.476-.111z" />
		<path d="M67.104 142.662c-.739-.059-1.485.037-1.547.244-.045.149.931.675 1.619.895 1.486.474 2.461.326 2.177-.247-.285-.422-1.155-.804-2.249-.892z" />
		<path d="M320.225 204.354c.479-.019.945-.054 1.391-.109.616-.449-.007-.76-1.466-.857-.656-.072-1.885.06-2.35.223-.653.23-1.022.529-1.446.815.677-.093 1.418-.11 2.18-.1l1.691.028z" />
		<path d="m316.111 204.587.012-.008.01-.001-.006-.001c.081-.049.153-.1.228-.151a6.264 6.264 0 0 0-.515.095l-.065-.013a6.38 6.38 0 0 1-.335.105l.671-.026z" />
		<path d="M14.192 107.22c.73-.024 1.223-.301 1.826-.429-.289-.125-.754-.322-.829-.316-.872.08-2.006.141-2.433.309-.586.23.225.486 1.436.436z" />
		<path d="M1887.747 154.721c-.341.406.282.562 1.48.389.332-.048.34-.255.497-.39l-.914-.333c-.369.111-.965.217-1.063.334z" />
		<path d="m1530.728 187.874.281.205.343-.039-.624-.166z" />
		<path d="M1535.551 189.03c.316.058.393-.37.439-.616.016-.082-.364-.336-.633-.434-.362-.132-.95-.285-1.167-.262l-2.839.323 1.812.482c.809.193 1.61.362 2.388.507z" />
		<path d="M1873.886 153.749c-.943.251-1.927.495-2.793.762-.199.062-.169.254.034.306.628.161 1.786.132 2.921-.015 1.14-.119 2.262-.342 2.805-.634.625-.329-1.173-.596-2.967-.419z" />
		<path d="M1850.336 128.608c.601-.08 1.997-.606 2.265-.842.302-.266-.041-.458-.198-.672-1.083.181-2.255.336-3.097.589-.743.24-1.502.755-1.302.888.248.169 1.372.152 2.332.037z" />
		<path d="M1852.357 127.023a.504.504 0 0 0 .046.071l.393-.065-.439-.006z" />
		<path d="M1446.996 138.994c.046.009-.491-.467-.759-.72l-1.994-.508c.305.256.589.522.884.783.637.16 1.295.337 1.869.445z" />
		<path d="M1766.161 174.275c-.002.014-.034.05-.01.05l.167-.059.337-.116c.216-.077.439-.171.63-.295.981-.646 1.89-1.325 2.815-1.964-.416.147-.904.25-1.244.471-.502.325-.986.658-1.474 1.009l-.717.519-.338.249-.169.124-.043.031.015-.006.031-.013z" />
		<path d="m360.318 192.357 1.355-.538-.978-.008c-.285.105-.743.222-.807.314-.065.09.269.156.43.232z" />
		<path d="M1258.205 92.349c-.025-.049-.685-.043-1.058-.062-.152.122-.437.255-.395.36.019.047.697.041 1.078.058.145-.12.427-.253.375-.356z" />
		<path d="M332.921 215.783c.337-.246.731-.467.904-.706.042-.05-.659-.14-1.017-.21-.282.218-.668.434-.792.656-.043.075.571.169.905.26z" />
		<path d="M101.881 118.593c-.397-.187-.793-.406-1.192-.545-.192-.067-.389.016-.583.031.402.192.793.411 1.208.564.162.06.376-.029.567-.05z" />
		<path d="m320.41 219.572-.057.004a5.65 5.65 0 0 1-.393.069c0-.001.493-.073.45-.073z" />
		<path d="m788.777 131.808.027.014.008.011.008-.002c.496.257.978.516 1.453.781l-.282-.209c-.154-.11-.324-.219-.491-.327-.069-.257-.222-.357-.473-.306-.142-.09-.285-.179-.424-.27l.174.308z" />
		<path d="M791.648 133.399c-.457-.268-.914-.53-1.375-.787l1.716 1.268c-.112-.164-.196-.395-.341-.481z" />
		<path d="m1726.932 210.605-.028.04.006-.005-.03.026.115-.061c-.018.003-.039.008-.056.01l-.007-.01z" />
		<path d="M1726.353 209.257a.295.295 0 0 0-.128.411c.2.327.465.627.707.937.374-.545.8-1.094 1.032-1.583.241-.509-.422-.408-1.611.235z" />
		<path d="M168.282 157.822c-.346-.147-.543-.093-.719-.011.083.022.156.033.253.071 1.214.483 1.219.261.466-.06z" />
		<path d="m1807.141 142.711-.342-.042-.344.27c.226-.077.457-.151.686-.228z" />
		<path d="M1810.477 142.027c.097-.151-.282-.247-.65-.148-.856.229-1.778.528-2.687.833l1.219.149c.924.091 1.727-.219 2.118-.834z" />
		<path d="M1890.245 152.029c-.4-.043-1.092-.081-1.376-.026-1.138.219-.949.391.446.413.388.006.86-.104 1.294-.161-.114-.079-.134-.201-.364-.226z" />
		<path d="M1873.688 126.956c-.159-.075-.316-.227-.48-.212-1.736.164-2.152.352-1.052.46.205.021 1.005-.16 1.532-.248z" />
		<path d="M1900.167 155.03c.002-.042-.725-.093-1.12-.139-.159.125-.435.25-.417.375.007.048.69.095 1.064.143.178-.127.466-.251.473-.379z" />
		<path d="M1364.935 112.882c-.229-.198-.523-.531-.68-.573-1.012-.269-1.994-.474-2.985-.699.27.205.419.415.83.612 1.169.562 2.16.78 2.835.66z" />
		<path d="M1359.825 108.598c.213.03.159-.143.227-.223-.51-.181-1.036-.41-1.528-.528-.523-.125-1.016-.144-1.521-.209.396.199.724.426 1.203.591.467.162 1.142.302 1.619.369z" />
		<path d="m79.342 150.792.347.021-.563-.102.216.081z" />
		<path d="M75.48 149.804c.216.145.96.377 1.396.473.765.168 1.505.299 2.25.433l-2.69-1.012c-1.433-.519-1.829-.478-.956.106z" />
		<path d="M315.188 204.394c.2.037.393.076.588.115.465-.161.275-.201-.588-.115z" />
		<path d="m1880.562 129.466-.005.087c.207-.04.356-.072.474-.099a2.07 2.07 0 0 0 .32-.021c.535-.316.231-.356-.782-.116l-.412.146h.002l-.038.014.441-.011z" />
		<path d="M321.81 204.283c.011-.021.016-.04.03-.062h.001-.001c-.072.01-.149.015-.222.024-.032.023-.052.045-.091.07.091-.015.188-.022.283-.032z" />
		<path d="M323.723 204.54c.436-.146-.783-.372-1.913-.257-.289.536.149.847 1.913.257z" />
		<path d="M321.673 208.723c-.918-.102-1.144-.033-.629.177l.519.079c.013-.027.035-.059.058-.093l.264-.006a1.626 1.626 0 0 0-.202-.095c.016-.032.021-.059-.01-.062z" />
		<path d="m115.609 125.918-.751-.06 1.01.468-.259-.408z" />
		<path d="M1348.794 107.451c.386.022 1.04.121 1.085.046s-.521-.324-.82-.498c-.388-.022-1.041-.121-1.085-.045-.045.075.522.324.82.497z" />
		<path d="m6.878 103.212.5.118-.029-.339s-.495.215-.471.221z" />
		<path d="M123.602 126.18c.169.074.326-.068.488-.11l-.349-.226c-.414-.214-1.135-.614-1.196-.613-.656.011-.257.372 1.057.949z" />
		<path d="M299.967 205.122a7.807 7.807 0 0 0-.537-.111l-.029-.012c.089.046.166.092.243.139l.093.001.23-.017z" />
		<path d="m301.784 204.985-1.817.137c.809.19 1.659.438 1.817-.137z" />
		<path d="M1866.052 129c.178.071.938.094 1.305.03 1.639-.287 1.798-.5.53-.584l-.234-.044c-1.641.121-2.251.339-1.601.598z" />
		<path d="m1878.822 159.159-.339-.129-.384.123.077.035.063-.032.583.003z" />
		<path d="M1784.784 158.308a24.67 24.67 0 0 0-.977.443l-.055.041-.369.126c-.018.062-.038.126-.05.186l1.451-.796z" />
		<path d="M160.557 142.746c.075.096.159.193.241.289.006-.11.018-.216.026-.324l-.626-.454c.058.086.128.174.191.261l-.671-.298c.655.547.931.719.839.526z" />
		<path d="m1886.47 130.911.456.302s.43-.101.39-.1c-.041.001-.846-.202-.846-.202z" />
		<path d="m1335.901 101.077-.728-.358-.324-.076.128.062.039.003c.251.106.885.369.885.369z" />
		<path d="m1891.537 124.719-.644.221 1.08-.005-.436-.216z" />
		<path d="m1788.128 150.978-1.062.637 1.065-.338-.003-.299z" />
		<path d="M109.224 113.852c-.294-.205-.545-.457-.898-.596-.353-.139-.806-.162-1.215-.236.296.203.547.456.899.594.351.139.805.161 1.214.238z" />
		<path d="m1806.484 142.916.315-.246-.298-.006c-.007.081.007.157-.017.252z" />
		<path d="M1806.501 142.663a.337.337 0 0 1 .057-.165c.349-.526-.051-.485-1.285.151l.733.004.495.01z" />
		<path d="m1628.684 224.62-.135-.099a50.37 50.37 0 0 1-1.954.107c.697.007 1.393.01 2.089-.008z" />
		<path d="M1626.594 224.628c-.551-.005-1.101-.012-1.652-.012-.002.014-.018.025-.022.039l.102.036c.524-.024 1.049-.042 1.572-.063z" />
		<path d="m1724.003 205.171-.135.188c.588-.351.625-.407.135-.188z" />
		<path d="m1744.95 194.145-.318.113.3.037c1.06.515 1.061.513 4.098-.908.009-.006.163-.178.177-.185l-4.253.981c-.001-.013-.004-.027-.004-.038z" />
		<path d="m1744.95 194.145.458-.163c-.326-.086-.466-.029-.458.163z" />
		<path d="M1854.139 126.312c-1.09.155-1.564.37-1.419.624.456-.106.927-.211 1.277-.331.229-.078.185-.299.142-.293z" />
		<path d="m1852.356 127.023.439.006a.337.337 0 0 1-.075-.093l-.364.087z" />
		<path d="m317.036 216.035.406.079-.455-.177c.019.033.028.064.049.098z" />
		<path d="M315.756 215.432c.383.172.805.338 1.231.504a3.478 3.478 0 0 1-.281-.693c-.332.066-.97.18-.95.189z" />
		<path d="M72.262 118.233h.489l-1.003-.302c-.001.001.505.297.514.302z" />
		<path d="M1341.274 97.04c1.119.219 1.181.13.198-.262l-.007-.004h-.003l-.008-.003.006.003a24.609 24.609 0 0 1-.267-.041c.217.081.437.157.653.24l-.572.067z" />
		<path d="m1406.678 118.518-1.077-.402.843.552.234-.15z" />
		<path d="M308.191 212.393c-.01.264.431.401 1.212.414l.026-.788c-.774-.011-1.228.111-1.238.374z" />
		<path d="M1884.625 137.251c.161-.373.305-.739.44-1.103-.774.384-1.465.766-.44 1.103z" />
		<path d="M1884.625 137.251c-.025.058-.046.115-.073.174l-.053.019c.051-.009.097-.014.147-.022l.201-.103c-.084-.022-.152-.045-.222-.068z" />
		<path d="m325.313 211.357.385-.124c-.377-.025-1.057-.087-1.084-.071-.548.326-.284.394.699.195z" />
		<path d="m1885.789 135.78.169-.112-.759.128-.003.008a.098.098 0 0 0-.019.005l.018-.001-.129.341c.249-.123.504-.247.713-.369h.01z" />
		<path d="m1885.789 135.78-.228.152c1.029-.139 1.092-.187.228-.152z" />
		<path d="M1868.549 137.554c.195-.007.72-.241 1.094-.371l-1.215-.082c-1.381.327-1.401.505.121.453z" />
		<path d="m50.692 108.361-.631-.408s-.175.048-.155.061l.786.347z" />
		<path d="m1873.635 135.435.548.046c.668-.37.476-.386-.548-.046z" />
		<path d="M1431.111 189.942c.273.225.913.577 1.224.687.246.087.248-.109.359-.179-.362-.28-.741-.645-1.083-.826-1.489-.79-1.686-.662-.5.318z" />
		<path d="m1428.449 189.878-.577-.112.663.448-.086-.336z" />
		<path d="M1612.548 216.961c.317.107.946.156 1.396.153.339-.003.832-.108.895-.198.275-.39.417-.791.592-1.159-.07-.303-.062-.579-.227-.85-.076-.124-.465-.327-.76-.343-.848-.037-1.943-.112-2.55-.027-3.142.485-2.922 1.288.654 2.424z" />
	</g>
</svg>
